<svg id="Capa_1" data-name="Capa 1" xmlns="http://www.w3.org/2000/svg" viewBox="0 0 1920 931"><defs><style>.cls-1{fill:#2296ff;}.cls-2{fill:#fe0b53;}.cls-3{fill:#ffb624;}.cls-4{fill:#ff0050;}</style></defs><title>fondo_slide</title><path class="cls-1" d="M1610.06,931H1050.59c-6.45-36.62-10.63-90.56,7.5-149.28,21.9-71,60.3-96.85,90-142.5,96.82-148.86,8-365.09,0-384C1075.92,85.72,932,15.65,897.59,0h712.47Z"/><path class="cls-2" d="M-.5,359.1s13.74,7.4,55.74-2.6S184.7,272.67,245,125.09C283,32.09,277,0,277,0H0Z"/><path class="cls-3" d="M1328.16,0c151.56,273.15,139.37,419,89.91,502.73-73.18,123.81-262,169.13-297,348a293.33,293.33,0,0,0-4.3,80.29H1920V0Z"/><path class="cls-4" d="M946.38,474.82a6.69,6.69,0,0,0,4.74,11.42,6.69,6.69,0,0,0,4.73-11.42A6.71,6.71,0,0,0,946.38,474.82Zm5.46-60.11h0a6.69,6.69,0,1,0-9.47,0,6.7,6.7,0,0,0,9.47,0Zm25.42-171.26a6.7,6.7,0,1,0-4.73,2A6.62,6.62,0,0,0,977.26,243.45Zm-29.44,101.7h0a6.7,6.7,0,1,0-9.47,0,6.7,6.7,0,0,0,9.46,0Zm41.47,107a6.74,6.74,0,0,0,0-9.51,6.82,6.82,0,0,0-9.46,0,6.73,6.73,0,0,0,0,9.5,6.68,6.68,0,0,0,9.46,0Zm-8-139.14h0a6.7,6.7,0,1,0-4.74,2A6.7,6.7,0,0,0,981.28,313Zm4,69.57h0a6.7,6.7,0,1,0-4.74,2A6.71,6.71,0,0,0,985.29,382.6Zm-150-17.54a6.77,6.77,0,0,0,0,9.51,6.7,6.7,0,0,0,9.47,0,6.75,6.75,0,0,0,0-9.51A6.84,6.84,0,0,0,835.33,365.06Zm42.92-23.94h0a6.75,6.75,0,0,0,0-9.51,6.83,6.83,0,0,0-9.47,0,6.75,6.75,0,0,0,0,9.51,6.7,6.7,0,0,0,9.47,0ZM982.52,512.23a6.72,6.72,0,0,0,4.73,11.48,6.63,6.63,0,0,0,4.73-2,6.71,6.71,0,0,0-9.46-9.51Zm-109.72-111a6.75,6.75,0,0,0,0,9.51,6.68,6.68,0,0,0,9.46,0h0a6.71,6.71,0,0,0-9.47-9.51Zm71-125.61h0a6.71,6.71,0,1,0-4.73,1.95A6.71,6.71,0,0,0,943.81,275.57ZM908.92,438.7a6.69,6.69,0,1,0,11.42,4.73,6.61,6.61,0,0,0-2-4.73A6.69,6.69,0,0,0,908.92,438.7ZM910.36,309h0a6.7,6.7,0,1,0-4.73,2A6.69,6.69,0,0,0,910.36,309Zm4,69.58h0a6.7,6.7,0,1,0-9.47,0,6.69,6.69,0,0,0,9.46,0ZM1087,353.16h0a6.76,6.76,0,0,0,0-9.51,6.84,6.84,0,0,0-9.47,0,6.76,6.76,0,0,0,0,9.51,6.7,6.7,0,0,0,9.47,0Zm-5.45,60.06a6.75,6.75,0,0,0,0,9.51,6.68,6.68,0,0,0,9.46,0h0a6.74,6.74,0,0,0,0-9.5A6.82,6.82,0,0,0,1081.52,413.22Zm2.78-129.64h0a6.71,6.71,0,1,0-9.47,0,6.68,6.68,0,0,0,9.47,0Zm-29.44,103h0a6.75,6.75,0,0,0,0-9.51,6.84,6.84,0,0,0-9.47,0,6.76,6.76,0,0,0,0,9.51,6.7,6.7,0,0,0,9.47,0ZM1009.37,210a6.7,6.7,0,1,0-4.73,2A6.62,6.62,0,0,0,1009.37,210Zm148.51,137.71a6.7,6.7,0,1,0,0,9.47A6.71,6.71,0,0,0,1157.88,347.71ZM1115,381.17a6.69,6.69,0,0,0,9.47,9.46h0a6.69,6.69,0,1,0-9.47-9.46Zm5.46-60.11h0a6.74,6.74,0,1,0-4.74,1.95A6.71,6.71,0,0,0,1120.43,321.06Zm-71,125.61a6.75,6.75,0,0,0,0,9.51,6.66,6.66,0,0,0,9.46,0h0a6.74,6.74,0,0,0,0-9.5A6.82,6.82,0,0,0,1049.41,446.67ZM1050.85,317a6.75,6.75,0,0,0,0-9.5,6.83,6.83,0,0,0-9.47,0,6.74,6.74,0,0,0,0,9.5,6.68,6.68,0,0,0,9.47,0ZM1021.4,418.72a6.74,6.74,0,0,0,0-9.51,6.71,6.71,0,1,0-9.47,9.51,6.69,6.69,0,0,0,9.46,0Zm-8-139.14h0a6.7,6.7,0,1,0-4.74,2A6.71,6.71,0,0,0,1013.39,279.58Zm4,69.56h0a6.75,6.75,0,0,0,0-9.5,6.84,6.84,0,0,0-9.47,0,6.74,6.74,0,0,0,0,9.5,6.68,6.68,0,0,0,9.47,0Zm29.44-101.68a6.71,6.71,0,1,0-9.47,0,6.68,6.68,0,0,0,9.47,0ZM1016,478.78a6.7,6.7,0,1,0,9.45,9.51h0a6.75,6.75,0,0,0,0-9.5A6.82,6.82,0,0,0,1016,478.78Z"/></svg>