<?xml version="1.0" encoding="utf-8"?><svg id="Capa_1" data-name="Capa 1" xmlns="http://www.w3.org/2000/svg" xmlns:xlink="http://www.w3.org/1999/xlink" viewBox="0 0 700 700"><defs><style>.cls-1,.cls-11{fill:none;}.cls-2{fill:#ff004f;}.cls-3{clip-path:url(#clip-path);}.cls-4{fill:#e7c0a3;}.cls-5{fill:#050800;}.cls-6{fill:#dea480;}.cls-7{fill:#933e35;}.cls-8{fill:#d9976f;}.cls-9{fill:#bc004e;}.cls-10{fill:#302c24;}.cls-11{stroke:#24221c;stroke-miterlimit:10;}</style><clipPath id="clip-path"><path class="cls-1" d="M643.86,339.68C665,432.9,575.17,525.85,510.5,569c-110.06,73.41-310.29,111.14-411.22,2.55C-.06,464.65,107.43,140.09,230,62,394.47-42.78,612.25,199.9,643.86,339.68Z"/></clipPath></defs><path class="cls-2" d="M643.86,339.68C665,432.9,575.17,525.85,510.5,569c-110.06,73.41-310.29,111.14-411.22,2.55C-.06,464.65,51.73,275.09,174.3,197,338.77,92.23,612.25,199.9,643.86,339.68Z"/><g class="cls-3"><path class="cls-4" d="M156.17,457.37s-5.57,173.84,0,225.47H530s3.71-142.29-3.1-217.43S156.17,457.37,156.17,457.37Z"/><path class="cls-5" d="M479.92,682.84c9-52.93-3.39-115.27-3.39-115.27,26-12.94,9-76.92,9-76.92,27.12-6.35,62.16-34.82,62.16-34.82s-15.82-22.34-39.17-33.92c-15.86-8.75-33.62-12.38-51.38-15.35l8.43,1.16c-23.31-4.46-29.65-9.58-46.15-16.67l-140.35,2.14c-16.49,6.93-33.14,10.4-50.9,13.37s-35.53,6.6-51.39,15.35c-23.34,11.58-39.16,33.92-39.16,33.92s35,28.47,62.16,34.82c0,0-18.93,56.34,9,76.92,0,0-12.43,62.34-3.39,115.27Z"/><path class="cls-6" d="M292.06,344.13c0,17.76-.92,48.84-13.32,51.25,39.41,38.85,125.81,32.19,148.75-2.22-11.47-1.11-15.35-14.81-17-26.09-1.48-11.29.93-22.76.56-34.41"/><path class="cls-7" d="M201,352s-14.24-41,8.22-87.07,12-76.31,30.1-119.33,62.48-66.07,97.55-68.12,97,4.61,122.16,67.61,25.21,99.16,29.59,159.6,18.08,61.65,2.74,107.23-34,62-21.92,126-5.44,106-5.44,106,1.06-50.19-18.11-66.07c0,0,17,54.29,1.64,89.12,0,0-3.29-50.19-19.17-71.19,0,0,6.57,25.1,1.64,50.19,0,0-10.77-44-29.49-69.65s-30.77-49.17-15.43-91.16,19.05-110.83,3.17-141.56-79.32,28.07-79.32,28.07l-15.76-9.82s34.79,54.68,3.53,105.89-6.4,71.7,10.58,112.16-9.86,83-9.86,83Z"/><path class="cls-4" d="M258.31,224.39c1,24,1.43,47.22,4.54,68.59,3.14,21.58,4.49,41.19,16.35,57.39a100.75,100.75,0,0,0,33.17,28.44c10,5.32,15.82,10.2,29.84,13.33,13.39,2.66,29.48-1,39.7-9.69C400.12,367,421,353.05,430,333c6.59-19.13,8.66-40.5,12.8-60.21,8.84-37.46,2.05-75.62-14.33-110.87-3.65-10.65-9.67-20.48-19.34-27-64.13-46-160.88-7.67-152.88,74.56"/><path class="cls-8" d="M338.75,221.64s3.54,43.66-3.93,57-15.24,29.51,4.77,29.9c0,0,1-3.41,3.27-1.84s5.42,5.07,10.32,5.07a18.36,18.36,0,0,0,11.36-3.67c2.8-2.1,4.72-2.45,5.07.53,0,0,7.52-1.75,7.7-8.92S363.88,277.6,364.05,257s.35-35.07-.38-40.8C362.44,206.55,338,204.48,338.75,221.64Z"/><path class="cls-9" d="M390.06,330.78a67.22,67.22,0,0,0-7.41,12.6c-2.61,6.3-15.67,18.3-24.67,18.3s-16.11.15-23.66-4.8-7.83-7.5-9.43-10.5-3.92-10.5-9-11.85a12.56,12.56,0,0,0,11,1.12c5-2,10.51-5.32,13.91-5.32s7.76,2.09,12.23,2.28c3,.12,6.06-1.43,8.86-2,4.28-.75,10.67,1.92,16.28,3.43C384.89,335.88,390.53,330.7,390.06,330.78Z"/><path class="cls-5" d="M305.26,241.91c-7,0-6.15,12.27.35,12.27C311.75,253.87,312.28,241.91,305.26,241.91Z"/><path class="cls-5" d="M397.84,254.18c6.33,0,7.16-12.27.33-12.27C391.34,242.07,391.67,254,397.84,254.18Z"/><path class="cls-10" d="M374.12,225.92s7.64-10.75,16.19-13.44,38.78-3.18,41.47,13.44c0,0-6.36-12.7-23-7.08S386.09,226.3,374.12,225.92Z"/><path class="cls-10" d="M326.23,226s-13.92.19-23-2.25S280.79,219.43,273,226c0,0,6.11-11.29,19.3-12.27S325,216.15,326.23,226Z"/><path class="cls-7" d="M402.4,130.44s-30,60.7-71.52,84.91c0,0,20.52-26.92,27.36-47.56,0,0-16.61,31.9-43.49,56.75,0,0,10.76-28,10.27-47,0,0-5.72,26.42-23.63,47,0,0,9.3-24.39,4.49-35.17,0,0-17.51,25.79-32.91,38,0,0,6.6-7,11-20.36,0,0-17.1,16.1-11,47.08a58.05,58.05,0,0,1-6.1-31s-2,31-19.06,63.36c0,0-6.84-66.14,8.8-111.16s53.76-62.86,53.76-62.86l73.28-2.81Z"/><path class="cls-7" d="M402.4,130.44s18.06,42.18,24.25,74.87c0,0-.33-24.23-14.66-61.13,0,0,17.59,21,18.56,94,0,0,2.45-7,1.23-25.19,0,0,4.36,33.21,14.43,38.18s7.15-54.75,7.15-54.75l-25.28-53.78-21-18.14-4.7,6"/><path class="cls-10" d="M377.29,329a.75.75,0,0,0,0-1.5.75.75,0,0,0,0,1.5Z"/><path class="cls-10" d="M313.68,320.76a.75.75,0,0,0,0-1.5.75.75,0,0,0,0,1.5Z"/><path class="cls-7" d="M259.44,334.5s-43,15.35-31.28,77.25S192.9,492,204,528.5s40.45,61.12,25.47,93.69c0,0,19.54-16.94,9.77-48.86s-27.36-43.65-8.47-74.92,59.4-94.5,37.84-143.35S259.44,334.5,259.44,334.5Z"/><path class="cls-7" d="M219.08,526.6s-10.89,17.43,8.17,33.77,29.09,31.58,27.07,55c0,0,15.4-22.87,7.23-44.38,0,0,16.92,24.24,9,61.81,0,0,18.22-18.51,19.85-56.63.82-19.06-17-109.81-35.05-117.44S219.08,526.6,219.08,526.6Z"/><path class="cls-7" d="M461.87,503.19s17.53,59.63,42.69,70.21c0,0-29.66-45.2-28.69-82.71S470.1,419.43,444.13,382"/><path class="cls-10" d="M378.39,250.6S388,238.4,401,240.06c8.68,1.1,13.68,7,17.23,9s4.39,4.31,8.06,2.35a5.88,5.88,0,0,1-6.6,2.17c-2.93-.84-8.43-5.59-12.7-7.54S391.86,240.21,378.39,250.6Z"/><path class="cls-10" d="M324.29,250.6s-9.56-12.2-22.6-10.54c-8.67,1.1-13.68,7-17.22,9s-4.4,4.31-8.06,2.35a5.87,5.87,0,0,0,6.59,2.17c2.94-.84,8.43-5.59,12.71-7.54S310.83,240.21,324.29,250.6Z"/><path class="cls-11" d="M335.63,298.47s-6.49,1.92-6.4,6.54c.13,6.72,9.08,6.8,12,2.85"/></g></svg>