<?xml version="1.0" encoding="utf-8"?><svg id="Capa_1" data-name="Capa 1" xmlns="http://www.w3.org/2000/svg" xmlns:xlink="http://www.w3.org/1999/xlink" viewBox="0 0 700 700"><defs><style>.cls-1,.cls-13{fill:none;}.cls-2{fill:#ffb624;}.cls-3{clip-path:url(#clip-path);}.cls-4{fill:#edd3c6;}.cls-5{fill:#050800;}.cls-6{fill:#322f23;}.cls-7{fill:#dea480;}.cls-8{fill:#62533b;}.cls-9{fill:#e7c0a3;}.cls-10{fill:#302c24;}.cls-11{fill:#8f6149;}.cls-12{fill:#d9976f;}.cls-13{stroke:#62533b;stroke-linecap:round;stroke-miterlimit:10;}.cls-14{fill:#d99586;}.cls-15{fill:#fff;}</style><clipPath id="clip-path"><path class="cls-1" d="M253,579C144.1,521.78,59.29,386.71,97,275,144.18,135.23,305-41,512,76c122.13,69,162.82,354.89,73,464.19C505,637.65,351.3,630.65,253,579Z"/></clipPath></defs><path class="cls-2" d="M253,579C144.1,521.78,59.29,386.71,97,275,144.18,135.23,371.07,67.85,511.35,165.4c115.17,80.1,163.47,265.49,73.7,374.79C505,637.65,351.3,630.65,253,579Z"/><g class="cls-3"><path class="cls-4" d="M182.81,465.1s-5.58,174,0,225.75H557.07s3.72-142.47-3.1-217.71S182.81,465.1,182.81,465.1Z"/><path class="cls-5" d="M507,690.85c9-53-3.4-115.41-3.4-115.41,26-13,9.06-77,9.06-77,27.16-6.36,62.24-34.86,62.24-34.86s-15.85-22.38-39.22-34c-15.88-8.76-33.66-12.39-51.45-15.37l8.45,1.16c-23.35-4.46-29.7-9.59-46.21-16.69l-140.53,2.15c-16.51,6.94-33.18,10.41-51,13.38s-35.57,6.61-51.44,15.37c-23.38,11.59-39.22,34-39.22,34s35.08,28.5,62.24,34.86c0,0-19,56.41,9,77,0,0-12.45,62.41-3.4,115.41Z"/><path class="cls-6" d="M314.56,388.32a21.23,21.23,0,0,1-7-16.78,47.16,47.16,0,0,1-18.94,18,38.64,38.64,0,0,0,3.75-31.07,83.57,83.57,0,0,0-6.07,10c2-10.54,3.4-22.15-1.78-31.61a78.72,78.72,0,0,1,49.11,29.29Z"/><path class="cls-6" d="M254,241.52c-2-15.36-15.72-30.36-9.29-44.65a52,52,0,0,1,5.54-8.39c8.57-12.51,10.18-28.4,16.25-42.33,9.11-20.9,27.5-36.61,37-57.33,2.85-6.25,5-13,9.64-17.86,3.93-4.11,9.47-6.25,14.83-7.86a96.61,96.61,0,0,1,46.25-2.32c13.75,2.68,26.79,8.39,40.72,10,3.75.36,7.68.54,11.25,1.79,9.11,3,14.29,12.32,20.36,19.82a18.65,18.65,0,0,0,7.5,6.43c2.86,1.25,6.08,1.07,9.11,1.43a34.54,34.54,0,0,1,23.4,12.68c8,10,9.64,23.58,15,35.18s17.68,22.69,29.83,18.22c7-2.68,11.25-9.64,14.82-16.25a55,55,0,0,1-23.93,38.4c11.78,6.78,15.18,24.46,7,35.18-2.5,3.39-6.25,7.14-4.64,11.07.71,1.79,2.32,2.86,3.75,3.93a104.53,104.53,0,0,0,14.64,8,56.05,56.05,0,0,1-26.61-2.86c.72,11.43,10.36,21.61,21.79,23a24.2,24.2,0,0,1-22.14-5,54.7,54.7,0,0,1-19.47,43c-7.14,5.89-15.9,10-22.33,16.79A38,38,0,0,0,464,351.36c-.53-3.93-1.07-7.86-1.78-11.79a54,54,0,0,1-16.07,21.79c.53-3.22.89-6.61,1.42-9.83a28.13,28.13,0,0,0-10.53,26.26,41.92,41.92,0,0,1-13-37.33"/><path class="cls-7" d="M315.1,353.14c0,17.15-.9,47.15-12.86,49.47,38,37.51,121.44,31.08,143.59-2.14-11.07-1.07-14.83-14.29-16.43-25.18-1.43-10.9.89-22,.53-33.22"/><path class="cls-8" d="M241.87,315.1c2.32-9.47,38.58-8.39,40.9,0s-10.36,36.08-18.22,36.08S239.37,324.92,241.87,315.1Z"/><path class="cls-9" d="M337.42,102.75C301.52,116,280.09,136.68,275.27,176c-2,16.61,1.25,33.58-1.07,49.83-1.25,8.58-6.07,14.83-8,22.86-2.32,9.29.18,20.18,1.07,29.47,1.61,17,1.07,25.72,5.18,42.33,3.93,16.07,16.61,30.9,29.83,38.22,12.86,7.14,15.71,13.75,29.11,19.46,18.93,8,43.58.9,58.93-9.1,24.29-15.9,57.69-13.58,64.83-38.4,3.93-13.57,4.29-33.22,4.83-53.58.53-16.79,1.78-18,.35-32.5-1.6-16.61-4.28-28.4-4.46-45.55-.18-15.71-.36-50-7.86-64.11-16.25-31.08-69.83-35.36-100.91-35.72"/><path class="cls-5" d="M316.17,206.69c-7.15,0-6.25,13.93.35,13.93C322.78,220.27,323.31,206.69,316.17,206.69Z"/><path class="cls-5" d="M403.32,219.19c6.79,0,7.68-13.93.36-13.93C396.36,205.44,396.71,219,403.32,219.19Z"/><path class="cls-10" d="M441.72,200.09c-5.71-12-19.47-12.51-30.9-12.86-4.1,0-11.61,1.6-15,.17-2.32-1.07-2.86-6.6-5.89-8.39C406.89,177.05,439.4,178.65,441.72,200.09Z"/><path class="cls-10" d="M279.2,201.87c5.71-12,19.47-12.5,30.9-12.86,4.1,0,11.6,1.61,15,.18,2.32-1.07,2.86-6.61,5.89-8.39C314,178.83,281.34,180.44,279.2,201.87Z"/><path class="cls-9" d="M267.77,238c-2.32-6.25-9.29-8.58-13.22-5.54-4.82,3.57-5.18,12.86-5.71,20.36-.72,14.65-.54,50.72,13.93,45.36,1.61-.71,6.78-4.82,8-8.21"/><path class="cls-11" d="M269.38,291.88c.35-3.21-.72-6.43-3.4-7.32-4.11-1.25-5.36,6.79-9.82-1.25-2.86-5.18-2.86-15-2.86-21.25,0-7.68,1.25-17.68,8.57-20.36.72-.36.54-1.79-.17-1.43-10,3.57-10,19.82-9.11,30,.35,5.18.89,13,4.28,16.79,1.08,1.07,1.79,1.79,3.22,1.79.71-.18.89-.9,1.61-.9.35-.17.53-.53.71-.71,2.32-2.86,4.11-1.25,5.54,4.29,0,1.25,1.25,1.42,1.43.35Z"/><path class="cls-11" d="M269.38,268.84c-.54-5.35-7.15-9.64-10-3.75-2.5,5.18,2.5,10.18,4.29,3.22,2-6.79,1.43-18.22-.36-24.83-1.43-6.25-7.14-10.18-9.64-2.32-.54,1.07.71,1.25,1.25.54,3.57-9.65,7.68,2,8,5.71.35,3.57.53,7,.53,10.36a37.88,37.88,0,0,1-.71,8.93c0,.89-.54,1.61-.72,2.68-1.6-3.93-1.07-5.71,1.43-5.36,2.5,0,4.11,2.32,4.47,5.36.18.89,1.6.54,1.43-.54Z"/><path class="cls-12" d="M356.17,196.51c-8.93,0-11.43,11.08-12.14,18.76-.89,9.64-1.07,21.25-5.9,29.82-3,5.36-17.14,9.11-8,17,3.93,3.39,9.11,2.86,13.57,4.28,4.64,1.43,7.15,4.29,12,2.5,5-2,7.5-2.67,13-2.67,4.47,0,8.76-.54,11.61-4.29a10.59,10.59,0,0,0,.72-11.43c-2.32-4.29-7-4.64-9.65-8.22-2.68-3.39-1.78-10.18-2.14-14.11-.54-5-1.07-10-1.79-15C367.07,209.91,365.1,196.51,356.17,196.51Z"/><path class="cls-6" d="M461.54,251.16a27.06,27.06,0,0,0-6.43-16.61c-2-2.5-4.46-4.46-6.25-7.14-3.57-5.89-2.5-13.57-2.32-20.54a71.1,71.1,0,0,0-24.47-55,19.91,19.91,0,0,1,10.72,0c-18.75-1.25-35.72-11.6-51.61-21.61-9.47-6.07-19.29-12.14-26.44-20.71-3.21-3.75-5.89-7.86-9.1-11.61a62.22,62.22,0,0,0-20.36-16.25,205.13,205.13,0,0,1,43-3.93c9.46.18,19.11,1.07,28.22,3.75,12.14,3.57,23,10.18,33.57,17.14,8.4,5.54,16.79,11.43,24.11,18.4a99.16,99.16,0,0,1,21.43,30c12.51,26.61,12.86,57.33,11.43,86.62"/><path class="cls-9" d="M458.69,239c4.46-8.39,13.21-6.61,16.61.18,3,5.53,2.5,15,2.32,23.57-.36,12-.72,41.08-14.65,38.76-3-.54-7.5-7.68-3.93-12.86"/><path class="cls-11" d="M459.58,288.67c2.14-2.5,6.79,5.53,10.54,2.5,3.57-2.86,4.1-9.82,4.82-14.65,1.07-10.18,1.07-29.64-8.75-35-.72-.36-1.07.89-.54,1.25,9.47,5,9.11,25.72,7.68,35.54-1.07,7.32-3,13.39-9.82,9.47-1.79-1.25-2.86-2.68-4.64-.54-.72,1.07,0,2.14.71,1.43Z"/><path class="cls-11" d="M458,276.17c.18-2.68,1.07-10.36,3.4-11.61,1.25-.72,4.1-.18,4.64,1.61.18.53,0,2.5-.36,2.67-1.25,1.25-3.21-2.5-3.39-3.75a17.42,17.42,0,0,1-.18-4.28c.18-4.82.89-10.9,2.5-15.18,1.43-4.11,7.14-8.75,9.29-1.61.35,1.07,1.25.54,1.07-.36-2.14-7.68-8.57-5.18-11.07.36-2.15,4.46-6.25,22.86-.54,27,3.75,2.5,4.64-5.72,2.32-8-5.53-6.43-8.93,9.29-9.11,13,.36.89,1.61,1.07,1.43.18Z"/><path class="cls-8" d="M488.33,315.1c-2.32-9.47-38.57-8.39-40.89,0s10.35,36.08,18.21,36.08S490.83,324.92,488.33,315.1Z"/><line class="cls-13" x1="465.65" y1="295.99" x2="465.65" y2="315.1"/><line class="cls-13" x1="260.27" y1="295.99" x2="260.27" y2="315.1"/><path class="cls-14" d="M309.56,289.2s19.65-7.5,26.25-7.5,12.5,2,17.86,2,10.18-2.86,16.08-2S400.46,288,405.47,291c0,0-9.83,22-15.36,27.68-5.72,5.72-12.86,8.58-21.79,8.58s-31.61.53-38.4-3.22c-6.79-3.93-14.11-14.64-16.79-21.79A48.35,48.35,0,0,1,309.56,289.2Z"/><path class="cls-15" d="M405.29,291A187.2,187.2,0,0,1,364,293.31c-22.86-1.25-40.9-1.25-54.47-4.11,0,0,10,26.26,24.11,28,13.39,1.61,42,2.33,49.29,0C390.28,315.1,394.75,306.17,405.29,291Z"/></g></svg>