<?xml version="1.0" encoding="utf-8"?><svg id="Capa_1" data-name="Capa 1" xmlns="http://www.w3.org/2000/svg" xmlns:xlink="http://www.w3.org/1999/xlink" viewBox="0 0 700 700"><defs><style>.cls-1,.cls-10,.cls-15{fill:none;}.cls-2{fill:#ff6724;}.cls-3{clip-path:url(#clip-path);}.cls-4{fill:#7b482a;}.cls-5{fill:#f2e1e3;}.cls-6{fill:#8f6149;}.cls-7{fill:#dcd5d4;}.cls-8{fill:#0c0f09;}.cls-9{fill:#a3432c;}.cls-10{stroke:#f3e3d8;stroke-width:27px;}.cls-10,.cls-15{stroke-miterlimit:10;}.cls-11{fill:#050800;}.cls-12{fill:#ebcebd;}.cls-13{fill:#f3e3d8;}.cls-14{fill:#dda385;}.cls-15{stroke:#24221c;}.cls-16{fill:#db9c8c;}.cls-17{fill:#fff;}.cls-18{fill:#dfd5d6;}.cls-19{fill:#885437;}</style><clipPath id="clip-path"><path class="cls-1" d="M253,579C144.1,521.78,59.29,386.71,97,275,144.18,135.23,313.73-24.56,454,73c115.17,80.1,220.82,357.89,131,467.19C505,637.65,351.3,630.65,253,579Z"/></clipPath></defs><path class="cls-2" d="M253,579C144.1,521.78,59.29,386.71,97,275,144.18,135.23,371.07,67.85,511.35,165.4c115.17,80.1,163.47,265.49,73.7,374.79C505,637.65,351.3,630.65,253,579Z"/><g class="cls-3"><path class="cls-4" d="M231,213.73S179.84,266,192.37,333.14c0,0-3.65-53.6,20.89-85.49,0,0-21.93,51.54,6.27,105.49s-20.37,94-20.37,94l228.33-29.6,24.62-185.25Z"/><path class="cls-5" d="M243.24,236.34c-2.47-6.66-9.89-9.13-14.07-5.9-5.14,3.8-5.52,13.69-6.09,21.68-.76,15.59-.57,54,14.83,48.29,1.72-.76,7.23-5.13,8.56-8.74"/><path class="cls-6" d="M245,293.76c.38-3.42-.76-6.85-3.61-7.8-4.38-1.33-5.71,7.23-10.46-1.33-3-5.51-3-16-3-22.62,0-8.18,1.33-18.83,9.12-21.68.76-.38.57-1.9-.19-1.52-10.64,3.8-10.64,21.1-9.69,31.94.38,5.52.95,13.88,4.56,17.87,1.14,1.15,1.9,1.91,3.42,1.91.76-.19.95-1,1.71-1,.38-.19.57-.57.76-.76,2.48-3,4.38-1.33,5.9,4.57,0,1.33,1.33,1.52,1.52.38Z"/><path class="cls-6" d="M245,269.23c-.57-5.7-7.61-10.27-10.65-4-2.66,5.51,2.66,10.84,4.57,3.42,2.09-7.23,1.52-19.39-.38-26.43-1.53-6.65-7.61-10.84-10.27-2.47-.57,1.14.76,1.33,1.33.57,3.8-10.27,8.17,2.09,8.55,6.08a107.36,107.36,0,0,1,.58,11,39.68,39.68,0,0,1-.77,9.51c0,.95-.57,1.71-.76,2.85-1.71-4.18-1.14-6.08,1.53-5.7,2.66,0,4.37,2.47,4.75,5.7.19.95,1.71.57,1.52-.57Z"/><path class="cls-7" d="M234.66,307.75c6.3-.65,14.42,7.46,11.81,18.06s-12,14.36-18.39,4.12S228.36,308.38,234.66,307.75Z"/><path class="cls-8" d="M236.77,289.57C231,290.08,232,295.8,232,298s.51,15.49.51,15.49h7.42s-.25-13.57,0-17.41S239.63,289.33,236.77,289.57Z"/><path class="cls-9" d="M269,92s-42.83,15.3-42.3,51.15S200.58,218.3,211,241s37.08,38.47,25.59,63.39,15.51,52-28,49.83-27.34-37.48-27.34-37.48S157.76,349,196.4,359.5s47-14.86,44.92-31,38.13-50.27,29.77-77.37S296.68,111.2,296.68,111.2Z"/><path class="cls-10" d="M200.78,473.93s-52.7,137.23-45.65,151.71,34.21,84.46,34.21,84.46"/><path class="cls-10" d="M448,473.93s52.7,137.23,45.64,151.71S459.4,710.1,459.4,710.1"/><path class="cls-11" d="M417.66,699.24l1-118.24c20-13.28,7-78.91,7-78.91,20.87-6.52,55.06-35.72,55.06-35.72s-12.17-22.92-30.13-34.8c-12.2-9-25.87-12.7-39.53-15.74l6.48,1.18c-17.93-4.57-40.81-9.82-53.5-17.1l-72,2.2c-12.69,7.11-43.5,10.67-57.16,13.72s-27.33,6.77-39.53,15.74c-18,11.88-30.14,34.8-30.14,34.8s34.2,29.2,55.06,35.72c0,0-14.56,57.79,7,78.91l1,118.24Z"/><path class="cls-12" d="M293.43,345.93c-.36,6.69.36,51.58-2,57.73-3.26,8-15.41,8.69-21.56,11.95-.72,17.92,25.34,55.92,71.49,49.05,41.81-6.34,50.13-41.81,49.41-53-3.62-1.81-16.31-.91-20.66-6-9.95-11.22-6.51-58.64-6.51-58.64"/><path class="cls-13" d="M285.4,114.33S237,135.9,238.09,184.8s6.31,61.13,7.36,89.46,5.26,75.13,54.69,101.95c0,0,26.29,19.81,63.1-4,0,0,31.55-13.3,42.76-57.83s11.92-93.66,11.92-93.66L376.24,106.45Z"/><path class="cls-14" d="M322.08,218.18l-1.4,32s-.85,7.86-5.9,11.22-12.35,8.15-8.42,14.88,14,2,14,2,2.36,8.1,10.18,8.1S340.65,278,340.65,278s13.86,5,15.38-2.55c2.52-12.63-12.95-13.51-14.08-19.13s-3.31-15.38-4.15-38.12Z"/><path class="cls-15" d="M312.27,267.87s-4.23,2.88-2.82,7.86a6.43,6.43,0,0,0,6.38,4.92"/><path class="cls-16" d="M287.71,302.88c4.82,6.07,18.2,25.89,22,28.21,5.35,3.39,12,2.49,18.38,2.67,5.36.18,12.51.18,17.51-1.79,7.14-3,21.05-22.83,24.8-28.36L325.19,320.2Z"/><path class="cls-11" d="M290.57,213.28c-7.68,0-6.61,14.82.36,14.82C297.89,227.74,298.25,213.28,290.57,213.28Z"/><path class="cls-11" d="M370.36,228.46c7.32,0,8.21-14.82.36-14.82C363.22,213.64,363.58,228.1,370.36,228.46Z"/><path class="cls-6" d="M276,225.77c7.5-3.93,17.5,1.6,17.85,10.17a.81.81,0,0,0,1.61,0c-.54-9.64-12-16.07-20.17-11.42-1.08.17-.18,1.6.71,1.25Z"/><path class="cls-6" d="M369.43,234.88c0-7.32,10.89-12.5,17.14-10.54,1.07.36,1.43-1.24.36-1.6-7.14-2-19.28,3.93-19.1,12.32-.18.89,1.6.89,1.6-.18Z"/><path class="cls-17" d="M370.35,303.61c-14,2.77-40.74,4.08-40.74,4.08s-37.08-2.13-41.9-4.81c5,4.11,17.63,20,23.17,21.44,8.92,2.14,29.5,2.15,38.07-1.07C354.11,320.57,370.35,303.61,370.35,303.61Z"/><path class="cls-18" d="M366.29,128.42s-43.72-34.24-53.8-14.25-53.37,28-53.37,28l2.45,27.35L242.43,242.5s-5.16-23.1-5.53-57.4,19.55-57.61,47.72-72.53S366.29,128.42,366.29,128.42Z"/><path class="cls-14" d="M266.48,314.35a67,67,0,0,0,4.4,17.28,108.56,108.56,0,0,0,7.82,16,127.14,127.14,0,0,0,10.14,14.67,164.48,164.48,0,0,0,11.83,13.35l-.11-.09A49.2,49.2,0,0,0,332,382.76a71.51,71.51,0,0,0,16.05-3.83,69.3,69.3,0,0,0,14.75-7.34l-.1.09a74,74,0,0,0,9.72-13.34,122.07,122.07,0,0,0,7.25-15,199.28,199.28,0,0,0,9.85-31.85c-.94,5.5-2.24,10.93-3.72,16.3a165.27,165.27,0,0,1-5.23,15.91A124.13,124.13,0,0,1,373.53,359a69,69,0,0,1-9.76,13.72l0,.06-.06,0a69.73,69.73,0,0,1-15.07,7.62,73.19,73.19,0,0,1-16.38,4,50.94,50.94,0,0,1-25-3.64,44.08,44.08,0,0,1-7.54-3.95l0,0-.05,0a148.14,148.14,0,0,1-11.82-13.58,128.09,128.09,0,0,1-10-15,99.23,99.23,0,0,1-7.51-16.33A64.3,64.3,0,0,1,266.48,314.35Z"/><path class="cls-11" d="M307.76,203.47c4.86-2.51-5.5-8.76-21.06-11.34-12.68-2.1-26.79,7.52-31,15.29,0,0,8.42,1.31,14.2-3.42s9.46-4.48,13.41-3.42S299.61,207.68,307.76,203.47Z"/><path class="cls-11" d="M352.19,201.89c-.8-3,20-9.46,33.13-8.41s16.3,2.89,16.3,2.89l1.32,11.21s-18.93-7.48-26.56-7.11S354.56,210.83,352.19,201.89Z"/><path class="cls-4" d="M307.8,86.81s49.31-23,80.54-7.31,55.25,40.22,77.19,108.64-15.76,80.4,11.18,132.91,21.2,69.73,5.53,117.78,1.57,59.54,8.36,111.77-6.79,82-29.77,102.89c0,0,17.23-38.13,8.87-69.46s-47-72.08-36.56-135.8S436.63,232,436.63,232Z"/><path class="cls-19" d="M300,90s51.71-2.61,88.27,24.54,26.82,60.59,48.4,85.14,34.12,46.48,31.51,97.14,24.54,88.27-6.27,132.14,8.88,94.53-14.1,132.66-2.61,65.28,4.18,71.55c0,0-32.39-3.13-40.74-38.12s31.86-51.71,22.46-84.09S399.2,487.93,406,419s20.36-67.38,20.36-67.38l5.23-55.36-49.1-106-33.42-64.77Z"/><path class="cls-9" d="M278.55,85.07c6.59-6.66,37.6-4.87,41.78,7s24.69,10.44,47.51,31.33,25.61,67.55,51.38,112.12S438,388,424.79,402.62s2.09,41.78-7,71-27.15,25.07-18.8,41.78-2.09,32.73-2.09,32.73,4.36-17.41-6.09-37.77,25.07-22.46,21.41-56.93S373.08,416.37,394,385s31.86-33.75,31.86-70.41S397.11,276.4,383,229.4,356.37,144.26,325,137,248.26,115.71,278.55,85.07Z"/></g></svg>