<?xml version="1.0" encoding="utf-8"?><svg id="Capa_1" data-name="Capa 1" xmlns="http://www.w3.org/2000/svg" xmlns:xlink="http://www.w3.org/1999/xlink" viewBox="0 0 700 700"><defs><style>.cls-1{fill:none;}.cls-2{fill:#0dbe38;}.cls-3{clip-path:url(#clip-path);}.cls-4{fill:#e6bba0;}.cls-5{fill:#050800;}.cls-6{fill:#dca383;}.cls-7{fill:#302c24;}.cls-8{fill:#8f6149;}.cls-9{fill:#d9956f;}</style><clipPath id="clip-path"><path class="cls-1" d="M643.86,339.68C665,432.9,575.17,525.85,510.5,569c-110.06,73.41-310.29,111.14-411.22,2.55C-.06,464.65,61.74,110.23,194,50,530-103,612.25,199.9,643.86,339.68Z"/></clipPath></defs><path class="cls-2" d="M643.86,339.68C665,432.9,575.17,525.85,510.5,569c-110.06,73.41-310.29,111.14-411.22,2.55C-.06,464.65,51.73,275.09,174.3,197,338.77,92.23,612.25,199.9,643.86,339.68Z"/><g class="cls-3"><path class="cls-4" d="M110.43,580.73s-7.29,68.11,0,102.16H600.16s4.87-93.85-4-143.41S110.43,580.73,110.43,580.73Z"/><path class="cls-5" d="M605.75,557.65c.48-16.54,1-66-4.38-81.57-10.22-29.67-37.46-46.22-67.46-63.08-27.41-15.24-50.27-27.08-78.32-34.86l-197.36,4.54c-52.05,11.51-118.37,59-126.48,67-19,19.13-24.49,47.35-29.19,73.78-8.34,52.43-8.34,63.25-8.34,63.25S143.77,591,172,587.76c0,0-9.64,42.16-7.47,95.13H539.62s2.16-58.38-6.48-111.35C533.14,571.54,589.71,570.78,605.75,557.65Z"/><path class="cls-6" d="M283.53,338.24c-.49,7.79.65,23.52-3.4,30.65-5.52,9.25-11.52,10.22-22.06,13.95-1.13,20.92,36.49,80.75,114.16,72.81,70.38-7.3,84.49-64.38,83.19-77.35a97.56,97.56,0,0,1-24.16-13.14C414.4,352,421.86,329,417.8,309.38"/><path class="cls-7" d="M459.32,265.59c1.45,1.79,3.08,3.57,3.72,5.68s.49,4.7-1.29,6.16-5,1.3-6-.81a18.1,18.1,0,0,1,5.84,12c.16,2.92-.49,6.16-2.76,8.11-2.27,2.11-6.33,2.59-8.43.32.16,1.79.32,3.9-.49,5.52-1,1.62-3.41,2.59-4.87,1.46a20.24,20.24,0,0,0,1,4.54c.32,1.46.32,3.24-.81,4.38s-3.73.48-3.73-1a6.19,6.19,0,0,1,.48,8.76c-2.27,2.43-6.64,4.22-9.24,2.11a7.9,7.9,0,0,1-3.73,8.75c-5.35,3.41-9.73-1.62-9.73-1.62l-139.78,9.08c-2.11,3.25-7.46,3.73-10.71,1.46a9.41,9.41,0,0,1-3.24-10.37,6.38,6.38,0,0,1-7.94-1,5.24,5.24,0,0,1,1.13-7.46c-2.59,0-4.38-2.59-4.38-5s1.3-4.55,2.6-6.65c-4.38-1.14-9.57-2.92-10.71-7a9.89,9.89,0,0,1,.17-4.86,20.27,20.27,0,0,1,3.56-7.3l17.52-24.16"/><path class="cls-7" d="M229.37,245.81c-6.65-.49-11.68-7.62-9.57-13.46.65-1.94,1.95-3.73,1.79-5.67-.17-3.09-3.41-5.19-4.87-8.11-2.59-4.87,1.78-11.52,7.62-11.52-3.73-3.24-7.62-8.59-4.54-12.32.81-1,1.95-1.62,2.76-2.59,2.92-3.57-.81-8.44-3.89-11.68s-5.84-9.08-1.95-11.68c1.14-.81,2.76-1,3.89-1.78,3.41-2.43.81-7.62-2.59-10.05s-7.62-5-7.79-8.92c0-3.25,3.25-5.84,6.65-6.49s7,.32,10.22,1.14c-1-3.73-3.57-7.14-5.35-10.71s-2.76-7.78-.81-11.35c1.94-3.4,7.94-4.7,10.21-1.62-2.43-5-4.86-10.22-4.38-15.73s5.19-11,11-10.54c2.92.16,5.35,1.62,8.11,2.59s6.16,1,8-1.13c3.56-3.89-2.6-10.38,0-14.92,1.94-3.57,7.46-3.24,11-1.3s6.16,5.52,9.73,7.3a6.57,6.57,0,0,0,4.22.81,6.31,6.31,0,0,0,2.76-1.78,22.07,22.07,0,0,0,6.81-17c0-1.13-.17-2.27.32-3.08,1.62-3.08,6.65-.65,9.08,2s7.3,5.18,9.08,2.1C304.77,63.38,301,59.16,300.4,54s4.05-11.35,9.24-9.73c2.92,1,4.38,3.73,6.49,5.84s6,3.41,7.94,1.3a7.94,7.94,0,0,0,1.3-3.41,12.61,12.61,0,0,1,10.38-8.92c4.86-.48,10.21,2.6,11.35,7.14,1,4.05-.16,9.57,3.89,11.19,1.95-6,8.11-10.54,14.76-10.87a16.71,16.71,0,0,1,15.73,9.73c1.46,3.41,1.78,7.79,4.86,10.06,3.89,2.75,9.41.65,14-1s10.86-2.43,13.13,1.63c2.44,4.21-1.29,11,3.25,13.29,4.37-4.38,9.4-9.08,15.73-10,7.94-1.14,15.73,4.38,18.32,11.51S451.37,97,447,103.11c2.6-.33,5.19-.65,7.62.16s4.54,3.08,4.06,5.51c-.65,3.73-6.81,6.49-4.71,9.73,1,1.46,2.92,1.79,4.54,2.44,3.57,1.62,4.87,6.64,2.44,9.56,4.86-.65,10.86-.48,13.62,3.57,2.11,3.08,1.13,7.46-1.3,10.22-2.43,2.92-6,4.7-9.4,6.32a12.88,12.88,0,0,1,14.27,6.16,11.52,11.52,0,0,1-3.73,14.27c-3.41,2.27-8.44,3.41-9.57,7.3-1.62,5.68,6.65,8.92,9.57,14.11,3.08,5.35-1.63,13-8.11,13.3a7.55,7.55,0,0,1,6.32,6.32,7.42,7.42,0,0,1-4.54,7.46c4.87.32,8.92,5.19,8.11,9.73s-6.32,7.95-11,6.81"/><path class="cls-4" d="M444.56,232.68c0-7.46-.49-14.6-4.22-21.25-3.08-5.51-7-9.24-8.75-15.4-3.57-12.49.64-25.79-1.3-38.6-4.22-27.24-44.27-41.35-67.3-47.35,4.38,5.68-9.4,7.3-6.32.65-.81,3.41-4.54,11.68-8.92,10.54-4.54-1.13-2.27-6.49-.49-9.08a6.44,6.44,0,0,1-6,1.78l1-4.38c-1.94,2.44-4.86,6-8.43,5.52-1.78-.33-3.08-2.43-3.89-2.76a17.65,17.65,0,0,0-6-.16c-10.7,1.62-21.41,3.4-31.46,7.46-19.62,7.94-30.49,22.21-32.11,43.3-2.43,32.1-13.62,62.27-7.78,95,3.73,20.44,8.76,42.33,15.73,62.11,7.13,20.27,20.11,33.89,39.57,43.14,18.16,8.59,39.73,13.29,59.35,7.94,18.81-5,35-19.62,48.16-33.4,16.54-17.35,19.95-40.38,23.84-63.25C441.15,260.89,443.26,246.78,444.56,232.68Z"/><path class="cls-5" d="M383.26,271.92a91.62,91.62,0,0,1-38.76,8.27c-12.32-.16-28.21-1.78-36.16-12.49-1-1.29-3.08,0-2.11,1.3,7.46,10.22,20.76,12.65,32.6,13.46,15.73,1.13,31.3-2.11,45.73-8.43,1.3-.65.16-2.76-1.3-2.11Z"/><path class="cls-4" d="M251.1,234.46c-3.24-5.84-12.16-7.3-16.54-4.22-5.35,3.9-4.87,12.65-4.54,19.95.81,14.11,4.7,48.32,21.4,42,2.11-.81,5.68-3.73,6.49-6.81"/><path class="cls-4" d="M444.56,224.57c7-8.11,17.67-5.84,21.24,1.29,3.08,5.84,1.3,15.25-.16,24-2.11,12.33-6.32,41.68-23.84,38.11-3.73-.81-8.59-8.27-3.4-13.29"/><path class="cls-8" d="M439,275c3.41-2.43,7.95,6.16,13.3,3.24,4.7-2.59,6.65-9.73,8-14.43,2.59-10.22,5.19-30-6.65-35.84-.81-.48-1.62.81-.81,1.3,11.67,5.68,8.43,26.76,5.35,36.49-2.27,7.29-5.68,13.46-13.95,8.92-2.43-1.3-3.24-2.92-6-1-.64.65,0,1.95.81,1.3Z"/><path class="cls-8" d="M438.88,262c.65-2.76,2.76-10.38,5.84-11.68,1.95-.65,5.51,0,5.84,2.11,0,.49-.33,2.43-.81,2.76-1.95,1.13-3.57-2.76-3.89-3.9-.33-1.46.16-3.08.32-4.37.81-5,2.43-10.87,5.19-15.09,2.59-4.05,10.38-8.27,12.16-1,.16,1,1.62.49,1.46-.32-1.78-7.95-10.05-5.84-14.11-.49-3.56,4.54-10.86,22.7-4.05,27.08,4.38,2.76,6.81-5.35,4.21-8.11-6.32-6.81-12.48,8.76-13.29,12.65-.33,1,1,1.3,1.13.33Z"/><path class="cls-7" d="M274,200.57a38.31,38.31,0,0,1,19.3-13.46c9.41-2.92,19.95-2.92,28.87-6.81-14.92-5.19-32.92-4.38-43.14,7.94C273.48,194.57,274,200.57,274,200.57Z"/><path class="cls-7" d="M365.42,181c7.14-8.92,19.95-10.54,28.54-8.6,8.6,2.11,19,13.46,21.08,22.06-7.45-6.82-18-13.63-28.21-15.57C379,177.54,371.42,180.14,365.42,181Z"/><path class="cls-5" d="M300.56,199.27c-6.65,0-5.84,13,.32,13C306.88,211.92,307.21,199.27,300.56,199.27Z"/><path class="cls-5" d="M386,211.11c6.32,0,7.13-13,.32-13C379.69,198.3,380,210.78,386,211.11Z"/><path class="cls-9" d="M335.91,233.16a18.24,18.24,0,0,0-18-3.89,11.82,11.82,0,0,0-6.65,5.51,6.51,6.51,0,0,0,1.78,7.79,9.69,9.69,0,0,0,4.87,1.46c4.38.48,9.08.48,13,2.43,4.06,2.11,7.14,6.16,11.68,6.49,5.84.32,9.57-6,14.76-8.6,4.37-2.11,9.72-1.62,13.78-3.89,5.51-3.08,6.65-11.35,2.11-15.57s-13.3-3.24-16.54,2c.16-16.22-.81-33.41-9.57-47.35-.81-1.3-1.62-2.6-3.08-3.08-2.27-1-4.87.16-6.33,1.94s-1.94,4.06-2.43,6.33a163.57,163.57,0,0,0-2.11,46.21Z"/><path class="cls-7" d="M299.1,348c-2,5.84-2.11,13.95,1.3,19.3,2.1,3.24,12.32,8.43,12.48.32-5.19,5.36,3.41,12.33,8.44,8-3.57,4,0,10.54,4.7,11.51,6,1.14,10.21-5.19,12.65-9.56-2.76,10.86,12.48,12.16,11,5.35A12.27,12.27,0,0,0,351.8,389a22.55,22.55,0,0,0,7.3-8.76c6.32,13.3,19-5,20.92-10.7,4.86,12.16,24,.81,14.92-8.59,1.13,4.54,7.29,2.75,9.08,0,2.59-4.22-1-9.41-3.41-12.65,1.3,5.51,10.87,1.62,7.62-5.52-2.59-5.83-13.29-7.13-18.81-7.62-6.81-.65-13.62,1.62-20.27,1-7.46-.65-8.43-7.3-14.43-10.55a16.6,16.6,0,0,0-8.27-2.1,9.18,9.18,0,0,0-4.22.48c-2.43,0-3.4,1.14-3.08,3.41-3.73,4.54-5.51,7.46-11.51,9.57C321.32,338.73,299.1,337.92,299.1,348Z"/><path class="cls-8" d="M258.72,285.54c0-2.92-1.46-6.16-4.7-6.65-5.19-.81-5.68,7-12.16-.48-4.06-4.71-5-14.11-5.68-20-.81-7.3-.32-17,7.95-20.11.81-.32.48-1.78-.33-1.46-11.67,4.22-9.73,19.79-7.62,29.52,1.14,5,2.59,12.32,7.14,15.4,1.29.81,2.43,1.62,4.05,1.46.81-.16,1.13-.81,1.95-1a3.82,3.82,0,0,0,.81-.65c2.43-2.76,4.7-1.46,7.13,3.73,0,1.13,1.46,1.13,1.46.16Z"/><path class="cls-8" d="M256.29,263.65c-1.3-5.19-9.57-8.6-12.49-2.6-2.43,5.19,3.89,9.41,5.68,2.6,1.62-6.65-.16-17.51-2.92-23.68-2.6-5.83-9.57-9.08-12-1.46-.33,1,1.13,1.3,1.46.33,3.08-9.57,9.4,1.3,10.21,4.86a71.64,71.64,0,0,1,1.79,9.89,29.48,29.48,0,0,1,.16,8.44,6.67,6.67,0,0,1-.65,2.43c-2.43-3.57-1.94-5.35,1.3-5.35,2.92-.16,5.19,1.94,6,4.7a.74.74,0,1,0,1.46-.16Z"/></g></svg>