<?xml version="1.0" encoding="utf-8"?><svg id="Capa_1" data-name="Capa 1" xmlns="http://www.w3.org/2000/svg" xmlns:xlink="http://www.w3.org/1999/xlink" viewBox="0 0 700 700"><defs><style>.cls-1,.cls-10,.cls-12,.cls-9{fill:none;}.cls-2{fill:#2296ff;}.cls-3{clip-path:url(#clip-path);}.cls-4{fill:#eacead;}.cls-5{fill:#ebcebe;}.cls-6{fill:#8f6149;}.cls-7{fill:#050800;}.cls-8{fill:#e3bb90;}.cls-9{stroke:#8f6149;}.cls-12,.cls-9{stroke-linecap:round;}.cls-10,.cls-12,.cls-9{stroke-miterlimit:10;}.cls-10{stroke:#050800;}.cls-11{fill:#d9956f;}.cls-12{stroke:#5e4e43;stroke-width:0.5px;}</style><clipPath id="clip-path"><path class="cls-1" d="M253,579C144.1,521.78,59.29,386.71,97,275,144.18,135.23,316.73-74.56,457,23c115.17,80.1,217.82,407.89,128,517.19C505,637.65,351.3,630.65,253,579Z"/></clipPath></defs><path class="cls-2" d="M253,579C144.1,521.78,59.29,386.71,97,275,144.18,135.23,371.07,67.85,511.35,165.4c115.17,80.1,163.47,265.49,73.7,374.79C505,637.65,351.3,630.65,253,579Z"/><g class="cls-3"><polygon class="cls-4" points="201.07 577.4 191.99 708.01 238.52 708.01 249.88 558.18 201.07 577.4"/><polygon class="cls-4" points="536.95 577.4 546.03 708.01 499.5 708.01 488.14 558.18 536.95 577.4"/><path class="cls-5" d="M266.42,267.81c-3.59-6.5-13.39-8-18.12-4.67-5.88,4.34-5.39,13.84-4.9,22,.82,15.51,5.23,53,23.51,46.18,2.61-1,7-4.67,7.19-8.5"/><path class="cls-6" d="M274.75,322.66c-.49-3-2.94-6.33-6.37-6.17-1.47,0-2,1.17-3.1,1.5-4.41,1.34-8.33-.33-10.45-4.66-5.06-10.67-10.12-37,4.9-42.52.81-.33.49-1.83-.33-1.5-12.41,4.5-11.59,21-9.63,31.68,1.14,6.17,2.77,14.84,8,18.84a6.11,6.11,0,0,0,4.41,1.67c.81-.17,1.3-.84,2-1,2.61-.66,6.85-10.5,9,2.51.49,1,1.79.66,1.63-.34Z"/><path class="cls-6" d="M267.56,299c-.49-6.17-8.16-9.34-12.4-4.34-3.6,4.34.81,11.51,4.57,5.5,3.92-6.16,3.26-18.33,2.28-25.34s-8-14.67-12.73-6c-.49.84.81,1.67,1.3.84,5.39-2.67,8.49-1.67,9.47,3,.17.33.17.83.33,1.16a34,34,0,0,1,.49,4.34,62.79,62.79,0,0,1-.16,9.5A44.56,44.56,0,0,1,259.4,297a8,8,0,0,1-1,2.5c-.65-1.34-1.3-2.84-1.79-4.17a6.08,6.08,0,0,1,5.55-1.33c2.45.5,3.75,2.16,4.08,5,0,.83,1.47.83,1.3,0Z"/><path class="cls-5" d="M461.22,262c7.51-8.84,19.43-6.34,23.18,1.33,3.27,6.5,1.47,16.67-.16,26.34-2.29,13.51-6.86,45.85-26,41.68-4.08-.83-9.47-9-3.76-14.5"/><path class="cls-6" d="M454.85,316.33c3.76-3,10.12,8.33,16.33,4.33,5.06-3.33,6.85-11.34,7.83-16.67,2.13-11.34,3.6-32.68-9.47-38.18-.81-.33-1.3,1-.32,1.5,13.39,5.67,10.45,31,7,42.18-.82,2.84-1.8,6.17-3.92,8.17-5.71,6-8,1.17-12.08-1.67-2.45-1.66-3.92-2.5-6.37-.5-.82.34.16,1.5,1,.84Z"/><path class="cls-6" d="M458.44,301.49a21.78,21.78,0,0,1,3.43-8.84c1.47-2.16,8.49-8.67,10.29-2,.49,3.67-1.15,4.5-4.9,2.17a14.06,14.06,0,0,1-1.14-2.83,25.84,25.84,0,0,1-.66-7.17A39.74,39.74,0,0,1,467.75,269c1.79-4.34,10-12.51,13.22-3.34.33.84,1.8.5,1.47-.33-3.1-8.17-11.26-5.17-15.18,1.17-3.43,5.83-6.53,24.17.33,29,4.89,3.33,8.16-4,4.73-7.67-7.18-7.34-14.69,8.33-15.51,13.67,0,.83,1.47.83,1.63,0Z"/><path class="cls-7" d="M273.13,304.29c-7.19-3.82-14.48-7.72-20.28-13.33s-10-13.24-9.65-21.35a32.78,32.78,0,0,0,6.21,27.7,29.89,29.89,0,0,1-15.53-27.52L225.56,279c-1.2-9.72,4.36-20.14,13.33-25a23.35,23.35,0,0,1-15.68-5l12.07-.25a13.39,13.39,0,0,1-8-12.9,14.77,14.77,0,0,1,9.59-12.51,38.74,38.74,0,0,1-17.58-10.11l10.85-.18a39.23,39.23,0,0,1-8.7-26.39,13.52,13.52,0,0,1,7.87,2.53,32.8,32.8,0,0,1-6.42-26.43l6,3.19a38.17,38.17,0,0,1,.26-31.71,10.16,10.16,0,0,0,6,6.37c4.26-13.44,13.73-42.83,26-50.33a19.31,19.31,0,0,1,1.16,11c7.35-7.9,18.31-11.94,25.51-20,2.75-3.07,4.86,10.79,7.5,7.62,10.1-12.15,26.42-17.12,41.7-21.44a31.91,31.91,0,0,1-8.28-5.61,38.8,38.8,0,0,1,20,2.67,10.46,10.46,0,0,1,9-5.53l2.4,8.76a68.34,68.34,0,0,1,23.74-18.57q-3.9,6.06-7.78,12.12a43.28,43.28,0,0,1,30.08,9.79,48.22,48.22,0,0,1-15.45-.21,56.49,56.49,0,0,1,30.5,12l1-8.4a32.81,32.81,0,0,1,7.32,9.94c3.15-1.78,13.47-6.42,17-6.84l-6.5,7c11.26,7.93,14.56,3.44,23.18,14a21.23,21.23,0,0,0,2.07-10.39c2.37,4,4.74,25.4,7.11,29.39a11.67,11.67,0,0,1,6.8-5.27,21.38,21.38,0,0,0,3.64,20.77,8.73,8.73,0,0,1,5-4.53C506.14,149,510.28,180.64,498,206a21.46,21.46,0,0,1,7.06-6.8l-1.73,19.9a11.53,11.53,0,0,1-1.21,5,6.2,6.2,0,0,1-4,2.84,13.07,13.07,0,0,1,5.31,8.1,12.05,12.05,0,0,0-5.15,3l10.37-4a30.79,30.79,0,0,1-14.38,14.77l12.07.25a23.35,23.35,0,0,1-15.68,5c9,4.83,14.53,15.25,13.33,25l-8.32-9.18a29.89,29.89,0,0,1-15.53,27.52,32.78,32.78,0,0,0,6.21-27.7c.37,8.11-3.85,15.75-9.65,21.35s-13.09,9.51-20.28,13.33"/><path class="cls-7" d="M549,576.43c.35-14.27-2.79-58.69-6.58-72.12-7.23-25.6-24.77-46.84-46-61.39-19.4-13.15-72.86-23.11-72.86-23.11l-110.07,3.92s-75,15.52-96.49,38.62-24.3,60-27.63,82.82c-5.9,45.23-5.9,45.85-5.9,45.85s52.49,3.73,72.45.93c0,0-5.08,97.35-3.55,143H488.23s-4.76-39.68-3.23-102C485,633,518.29,590,549,576.43Z"/><path class="cls-8" d="M329.08,385.63c-.46,7.49,2.14,22.64-1.69,29.52-5.2,8.9-21.56,9.84-31.51,13.43-1.07,20.15,37.66,51.67,78.63,48.27s62.87-40.15,61.64-52.64c-5.66-2-31-7-38.09-12.65-.88-9.69-3.51-52.18-3.51-52.18"/><path class="cls-4" d="M266.75,231.06c1.94,46.78-2.56,81.91,11.7,126.13,17.83,24.88,58.61,54,89.85,52.94,30.16-8.64,77.29-29.73,86.47-61.43,5.56-19.17,5.78-47.18,7.68-89.91,2.56-57.86,2.38-132.1-48.79-131.24-38.31.59-85-10.21-118.55,13.3-11.2,9.63-24.38,17.52-34.43,28.25C255.45,188.34,261.85,212.2,266.75,231.06Z"/><path class="cls-7" d="M322,234.35c-8.08,0-7.6,15.49-.27,15.52C329.08,249.53,330.08,234.39,322,234.35Z"/><path class="cls-7" d="M408.63,247.31c7.7,0,9.28-15.48,1-15.52C401.76,231.76,401.51,246.9,408.63,247.31Z"/><path class="cls-7" d="M261,273.27c8.93-10.44,11.75-24.53,13.16-38,.61-5.73,2.1-12.84,7.7-14.45-4.36-5.92-1.33-14.4,1.8-21.3,5.89-13,3.94-35.37,15.9-43.24-1.85,4,33-16.74,50.46-18.73-3.09,1.1,24.6-5.59,48.64-.39,20,4.32,35.91,20.63,44.25,21.79,11.81,9.95,4.2,25.49,11.71,39,6.85,12.32,7.1,24.09,4.76,38.28-.3,1.83-.75,3.73-.22,5.48a9.87,9.87,0,0,0,2.51,3.68l13.5,14.43c3.54-31.68,7.08-63.83,2-95-.86-5.27-2-10.61-4.82-15.09-2.55-4.08-6.33-7.21-10.07-10.22-8.71-7-18-13.92-29.11-16.14a77.92,77.92,0,0,0-14.26-1.05q-18.72-.24-37.46-.45C339,121.48,295.37,121.5,255,136.3a3.93,3.93,0,0,0-1.91,1.17,4,4,0,0,0-.5,2.41,43.86,43.86,0,0,1-4,18.1c-1.58,3.42-3.61,6.7-4.46,10.35a32.71,32.71,0,0,0-.29,9.78q2.7,37.53,7.66,74.79"/><path class="cls-9" d="M434.81,333.11s-4-21.4,5.11-32.08"/><path class="cls-7" d="M286.32,237.77s.5-10.29,8.71-13,44.81-3.76,48-9.1S338,202.55,338,202.55s-11,6.19-18,5.27-10-4.42-20.34,2.79S281.72,223.13,286.32,237.77Z"/><path class="cls-7" d="M382.77,217.11l.5-6s2.41,7.69,7.78,7.19,13.84-1.56,24.3-2.23,23.8.73,30.43,9.63c0,0,4.63-6.85-7.64-15s-9.75-9.8-22-7.86-13.8-4.07-20.06-2a30.47,30.47,0,0,0-10.69,6.37L384,202.12S378.81,208,382.77,217.11Z"/><path class="cls-10" d="M325.24,324.53s9.53,13,14.13,12.33,22.26.12,25.78-2.36,13.51,1.2,19.81.83,20.73-1.75,20.73-1.75"/><path class="cls-9" d="M289.24,309s8.65,12.41,5.16,31.36"/><path class="cls-10" d="M321.88,328.14s4.76-5.65,10.69-6.61"/><path class="cls-7" d="M295.76,374.76c0,5.08.07,10.33,2.08,15s4.77,3.42,9.84,3.2c.88,2.35,0,5.12,1.08,7.4a5,5,0,0,0,7.36,1.7c-.28,2.24,1.75,4.24,4,4.75s4.49-.09,6.67-.68c2,3.18,4.5,6.2,7.86,7.88s7.72,1.77,10.64-.58A9.76,9.76,0,0,0,357.66,415a6.36,6.36,0,0,1,2.36-1.32c1.22-.23,2.39.48,3.51,1a14.6,14.6,0,0,0,17.7-4.57,14,14,0,0,0,18.85-1.5,7.84,7.84,0,0,1,2.49-2.35c1.64-.73,3.51.08,5.29.3,5.09.61,9.39-3.8,11.82-8.32.84-1.58,1.82-3.41,3.58-3.75a27.21,27.21,0,0,0,2.72-.16c1.56-.46,2.17-2.3,2.48-3.89.69-3.52,1.05-3.62,1.06-7.2,3.32.43,6.3-3.53,5-6.6-8.8,6.87-19.59,13.86-30.19,17.34-6.45,2.12-28.65.51-32.52-2.57-3.6-2.86-4.95-7.9-8.63-10.67-2.79,1.08-4.35,4-6.89,5.63-16.66,10.34-25.95,13-41.93,3.91S295.76,374.76,295.76,374.76Z"/><path class="cls-11" d="M344.8,275.86a12.65,12.65,0,0,0-7.14,5.92c-1.22,2.79-.7,6.45,1.91,8.36,1.4,1.05,8,3.83,12.2,5.93,4.35,2.26,7.66,6.61,12.54,7,6.27.35,10.28-6.44,15.85-9.23,4.71-2.26,8.71-1.74,13.07-4.18,5.92-3.31,7.14-12.2,2.26-16.72s-14.28-3.49-17.77,2.09c.18-17.42.88-53.31-8.53-68.29-.87-1.4-1.74-2.79-3.31-3.31-2.44-1-5.23.17-6.8,2.09s-2.09,4.35-2.61,6.79c-3.13,16.38-3.83,50.52-2.26,67.07A7.58,7.58,0,0,0,344.8,275.86Z"/><polyline class="cls-12" points="380.96 216.52 363.39 206.59 367.89 218.08 355.63 201.76 361.15 215.38 348.28 204.46 346.65 216.66 343.79 201.76"/><path class="cls-7" d="M273.18,199.44a82.68,82.68,0,0,0,17.1-24c2.93-6.25,5.53-13.41,11.62-16.66-1.93,4.48,4.35,8.8,9,7.43s7.76-5.68,11.14-9.2c6.73-7,16.29-11.68,26-11.08-8.16,3-12.62,13.44-9.16,21.42,4,9.15,15.78,12.57,25.55,10.52a14.71,14.71,0,0,1,2.94-25.68,15.65,15.65,0,0,0,5.86,16.38,40,40,0,0,1,25-25.75c-3.08,3.4-1.39,9.22,2.22,12s8.43,3.43,13,3.94c-5.65,1.32-8,9.11-5,14s9.78,6.71,15.37,5.16,10.09-5.79,13.4-10.55c.28,8.94,8.65,15.85,17.34,17.95,5.58,1.34,12.18.93,16.06-3.29,3.52-3.82,3.78-9.71,2.34-14.7s-4.32-9.4-6.56-14.08c-1.82-3.8-3.25-7.84-5.78-11.21a35.52,35.52,0,0,0-7.85-7.12c-31.31-22.52-71.54-30-110-27.64a47.31,47.31,0,0,0-9.85,1.36c-4.54,1.26-8.64,3.71-12.63,6.22q-12.8,8.06-24.83,17.24c-7.3,5.58-14.42,11.51-20.17,18.67A69.65,69.65,0,0,0,260,196.75"/></g></svg>