<?xml version="1.0" encoding="utf-8"?><svg id="Capa_1" data-name="Capa 1" xmlns="http://www.w3.org/2000/svg" xmlns:xlink="http://www.w3.org/1999/xlink" viewBox="0 0 700 700"><defs><style>.cls-1,.cls-14,.cls-15{fill:none;}.cls-2{fill:#5f0dfc;}.cls-3{clip-path:url(#clip-path);}.cls-4{fill:#f3e3cd;}.cls-5{fill:#524938;}.cls-6{fill:#786438;}.cls-7{fill:#050800;}.cls-8{fill:#edd0af;}.cls-9{fill:#e9c39a;}.cls-10{fill:#8f6149;}.cls-11{fill:#db9c8c;}.cls-12{fill:#fff;}.cls-13{fill:#dda385;}.cls-14{stroke:#d7d1c9;stroke-linecap:round;}.cls-14,.cls-15{stroke-miterlimit:10;}.cls-15{stroke:#050800;stroke-width:2.5px;}.cls-16{fill:#d7d1c9;}</style><clipPath id="clip-path"><path class="cls-1" d="M643.86,339.68C665,432.9,575.17,525.85,510.5,569c-110.06,73.41-310.29,111.14-411.22,2.55C-.06,464.65,119.43,155.09,242,77,406.47-27.78,612.25,199.9,643.86,339.68Z"/></clipPath></defs><path class="cls-2" d="M643.86,339.68C665,432.9,575.17,525.85,510.5,569c-110.06,73.41-310.29,111.14-411.22,2.55C-.06,464.65,51.73,275.09,174.3,197,338.77,92.23,612.25,199.9,643.86,339.68Z"/><g class="cls-3"><path class="cls-4" d="M184.5,461.82c-23.3,47.51-29.7,179.64-23.84,233H553.55s4.82-124-17.16-226.67C520.07,391.89,207.81,414.32,184.5,461.82Z"/><path class="cls-5" d="M470.4,454.45c-14.76-.56-29.56-1.12-44.31-.23-19.28,1.17-38.32,4.81-57.49,7.1a411.6,411.6,0,0,1-130.82-5.44c-6.74-1.38-13.84-3.14-18.66-8.06-6.67-6.81-7-17.44-6.8-27,.14-8.82.32-17.71,2.18-26.33,1.51-6.95,4.09-13.63,5.94-20.5,4.29-15.94,4.55-32.64,6.42-49s5.65-33.24,15.75-46.3c7.67-9.92,18.45-16.94,29.41-23,10.48-5.83,21.4-11,33-14.25,21.49-6,44.22-5,66.51-3.93L486,273.9Z"/><path class="cls-6" d="M498.91,284.9c7.92,8.22,15.92,16.54,21.65,26.41s9,21.6,6.8,32.78c-1.51,7.54-5.42,15.47-2.27,22.48s12.38,10.49,13.38,18c1.21,9.11-10.82,16.54-8.55,25.46,1.32,5.16,6.82,7.86,10.58,11.65a20.31,20.31,0,0,1-10.19,34.19,40.87,40.87,0,0,1-10,.44l-49.9-1.9,16.26-135.89Z"/><path class="cls-7" d="M497.18,696.64c9.08-53.16-3.41-115.76-3.41-115.76,26.11-13,9.08-77.26,9.08-77.26,27.24-6.37,44.55-25,44.55-25s-13.5-55.07-71.07-69.35-180.82-3.49-180.82-3.49c-16.56,7-33.78,8.31-51.13,13.42-55.45,16.35-75,55.45-75,55.45s19.29,22.63,46.53,29c0,0-19,56.58,9.08,77.26,0,0-12.48,62.6-3.4,115.76Z"/><path class="cls-8" d="M300.94,411s-1.07-2.23-15.59.59c46.16,45.51,147.37,37.71,174.24-2.6-13.44-1.3-21.5-7-21.5-7s2.65-50.24,2.21-63.89"/><path class="cls-9" d="M300.94,359c-5.94,21.69,0,52.07,0,52.07l66.71,28.73L438.09,402s4.65-41.74,4.17-70.47S306.88,337.27,300.94,359Z"/><path class="cls-4" d="M328.2,104.77c-22.57,8.7-54.59,13.6-62.95,39.7-6.13,17.37-6.23,36.19-6.27,54.61,1,36.16-2.35,72.78,1.35,108.74,10.67,26.95,26.53,56.3,45.26,71.22s43.28,28.45,73,23.57,93.72-47.25,82.23-131.2c-8.24-60.18-10.58-138.31-70.8-165.88-15.19-8.74-32.61-6.73-47.66,1.41"/><path class="cls-7" d="M300.9,234c-10,1.61-5.48,20.62,3.56,19.17C313.43,251.28,310.87,232.43,300.9,234Z"/><path class="cls-7" d="M401.46,239.12c9.5-1.53,7.56-21-2.64-19.31C389.09,221.37,392.58,240.07,401.46,239.12Z"/><path class="cls-10" d="M284.54,253.29c8.92-6.66,23-1.57,25.31,9.48a1.05,1.05,0,1,0,2.08-.34c-2.71-12.4-18.88-18.35-28.57-10.61-1.36.46.1,2.12,1.18,1.47Z"/><path class="cls-10" d="M401.59,247.64c-1.53-9.5,11.53-18.5,20.05-17.25,1.47.24,1.59-1.92.13-2.16-9.68-1.06-24.21,9.13-22.22,20-.05,1.2,2.27.83,2-.57Z"/><path class="cls-11" d="M316,320.83s19.76,23.56,50.51,19.27C400.3,335.39,404,310.68,404,310.68l-34.52,13.6-37.37,1.46L316,320.83"/><path class="cls-12" d="M404,310.68c-7,4-37.79,8.25-42.74,8.69-14.36,1.74-39.48,3.27-45.32,1.46a167.79,167.79,0,0,0,19.52,8.2,78.09,78.09,0,0,0,18.42,4.31c10.5.74,21-2,30.48-6.22C395.68,322.4,404,310.68,404,310.68Z"/><path class="cls-13" d="M349.87,231.33s-11.62,6.46-10.12,36.08c0,0-19,6.73-12.31,20.87s19.19,0,19.19,0,11.78,14.48,23.9-1c0,0,13.47,6.74,18.52-4.37S384,262.07,373.9,265.41C373.9,265.41,366.23,230.26,349.87,231.33Z"/><path class="cls-4" d="M453.84,245.72c5.42-10.19,16.05-8,20.17.22,3.68,6.72,3,18.21,2.82,28.62-.44,14.53-.87,49.87-17.78,47.05-3.69-.65-9.11-9.32-4.77-15.61"/><path class="cls-10" d="M454.93,306c2.6-3,8.24,6.72,12.79,3,4.34-3.47,5-11.93,5.85-17.78,1.31-12.36,1.31-36-10.62-42.5-.87-.44-1.3,1.08-.65,1.51,11.49,6.08,11.06,31.23,9.32,43.15-1.3,8.89-3.68,16.27-11.92,11.5-2.17-1.52-3.47-3.26-5.64-.66-.87,1.31,0,2.61.87,1.74Z"/><path class="cls-10" d="M453,290.82c.21-3.25,1.3-12.57,4.12-14.09,1.51-.87,5-.22,5.63,1.95.22.65,0,3-.43,3.25-1.52,1.52-3.9-3-4.12-4.55a21.6,21.6,0,0,1-.22-5.21c.22-5.85,1.09-13.22,3-18.43,1.73-5,8.67-10.62,11.27-2,.44,1.3,1.52.65,1.3-.43-2.6-9.32-10.4-6.29-13.44.43-2.6,5.42-7.59,27.76-.65,32.74,4.55,3,5.64-6.93,2.82-9.75-6.72-7.81-10.84,11.27-11.06,15.82.43,1.09,1.95,1.31,1.74.22Z"/><path class="cls-6" d="M370.17,107.45c6.28,9.44,17.5,14.59,28.7,16.35,2,.31,4.15.58,5.71,1.88,2.79,2.3,2.47,6.59,3.74,10,2.23,5.93,9.07,8.55,13.27,13.3,6.79,7.68,6.07,20.23,13.52,27.28,2.52,2.39,5.89,4,7.6,7a16,16,0,0,1,1.55,5.74c.9,6.91,1.56,14.52,6.54,19.39,1.64,1.6,3.7,2.84,4.81,4.84,4,7.2-7.16,16.61-2.68,23.52,2.34,3.61,8.06,4.39,9.43,8.47.68,2,0,4.23.17,6.36.63,8.72,13.29,11.31,16.6,19.39,2.45,6-1,13.05,1.26,19.09,1.7,4.62,6.33,7.58,8.41,12,1,2.22,1.4,4.72,2.44,6.94s3.14,4.26,5.59,4.07c3.18-.25,4.83-3.83,5.77-6.89,5.73-18.8,9-39.53,1.77-57.79-3-7.51-7.75-14.53-8.47-22.58-.55-6.12,1.3-12.37,0-18.37-2.43-11.43-15.15-18.11-18.66-29.25-1.37-4.34-1.28-9.23-3.79-13-2.4-3.64-6.69-5.51-9.89-8.48-9.34-8.69-7.72-24.81-16.57-34-4.11-4.27-9.9-6.39-14.94-9.53-9.37-5.85-16.37-15.41-26.62-19.53-8.07-3.24-17.09-2.68-25.76-2.07-2.82.2-5.74.43-8.21,1.79s-4.36,4.21-3.7,7"/><line class="cls-14" x1="462.3" y1="314.89" x2="462.3" y2="369.09"/><polyline class="cls-7" points="438.14 208.99 466.91 239.57 465.99 246.81 442.26 222.73 439.53 215.95 436.08 208.99"/><path class="cls-6" d="M482.59,384.13a32.48,32.48,0,0,1,18.58-22.48c4.71-2,10.08-3,13.81-6.55,4-3.79,5.25-9.86,4.36-15.32s-3.62-10.43-6.52-15.13a22.83,22.83,0,0,1-2.93-5.89c-1.86-7,3.61-13.61,6.28-20.37a24,24,0,0,0,0-18.17A19,19,0,0,0,502.26,269c-3-.5-6.21-.19-9-1.39-5.59-2.38-7.2-9.39-8.09-15.41q-2.19-14.94-4.39-29.89a60.47,60.47,0,0,0-1.49-7.79,61.73,61.73,0,0,0-4.74-11l-9-17.59c-2-3.85-4-7.82-7.32-10.6s-8.24-4.13-12-2.06c-4.2,2.28-5.52,7.56-6.43,12.25q-.87,4.5-1.75,9a11.36,11.36,0,0,0-.28,3.89,11.11,11.11,0,0,0,2.79,5l7.94,9.71a9.71,9.71,0,0,1,2,3.22c1,3.5-2.06,6.84-2.53,10.46-.6,4.64,3.15,8.66,7,11.37s8.22,5.15,10.12,9.42c3.3,7.41-2.6,16.35.14,24,2.22,6.19,9.59,9.81,10.73,16.29,1.24,7-5.56,13.81-3.74,20.7a28.16,28.16,0,0,0,2.52,5.29,24.13,24.13,0,0,1,2.53,13.41c-.7,6.85-4.26,13-6.7,19.45-4.73,12.5-5.28,27-8,40.1-1.59,7.88-3.18,15.87-2.65,23.89a45.6,45.6,0,0,0,6.42,20.41c2.64,4.38,6.08,8.45,7.22,13.44,1.44,6.33-1.11,12.84-1.27,19.33-.19,7.63,3.27,15.42,9.5,19.83s15.16,5,21.55.79,9.41-13.11,6.29-20.08a15.22,15.22,0,0,1-9.74,7.72,7.92,7.92,0,0,1-5.33-.25c-3.11-1.51-4-5.73-3-9s3.38-6,5.44-8.74c7.73-10.41,11.46-24.49,6.93-36.63-1.8-4.84-4.8-9.14-7.31-13.66-3.65-6.55-6.35-13.78-6.54-21.27s2.36-15.26,7.89-20.31a13.79,13.79,0,0,0,3.07-3.27c2.13-3.93-1.39-8.44-4.63-11.52"/><path class="cls-6" d="M390.73,91.63C384.41,83.72,373,81.79,363,83.39s-46.28,10.18-55.6,13.15c-17.36,5.54-34,20.06-44.71,34.81S238.59,161,232.52,178.22c-3.11,8.81,0,20.11-6.44,26.83-3.47,3.58-7.78,6.3-11,10.09a24.79,24.79,0,0,0-5.51,19.92c1.14,6.8,5.13,13,5.56,19.85.62,9.81-6.15,18.64-14,24.6-2.82,2.15-5.93,4.19-7.58,7.34a18.83,18.83,0,0,0-1.67,7.51c0,.42,0,.85-.06,1.28a28,28,0,0,0-.16,3.32,119.27,119.27,0,0,0,.8,18.41,36.86,36.86,0,0,0,3.59,12.6,32.44,32.44,0,0,1-10.89,20.52c-4.73,4-11.24,7-12.89,13-2.22,8.09,6,15.9,5,24.22-.71,6-5.87,10.25-10.34,14.28s-9,9.48-7.72,15.37c.67,3.16,2.91,5.77,3.88,8.85,1.71,5.48-.93,11.52-4.93,15.64s-9.18,6.81-14,9.93c-5.81,3.76-11.31,8.39-14.43,14.57s-3.4,14.14.73,19.68c3.21,4.29,8.77,6.94,10.4,12,2.07,6.46-5.33,13.71-11.74,11.51,4.2,3.64,11.34,2.46,14.77-1.9s3.22-11,.17-15.6c-1.64-2.49-4-4.49-5.5-7a14.34,14.34,0,0,1,2.44-17.38c4-3.7,9.7-4.72,14.87-6.45s10.61-5.08,11.49-10.46a15,15,0,0,0,2.19,11.61c2,2.91,5.11,5.43,5.19,8.94.06,2.3-1.25,4.38-2.54,6.28-7,10.3-15.06,22.06-11.88,34.08,2.15,8.17,9.41,15.46,7.61,23.71-.67,3.07-2.55,5.72-3.68,8.64-2.57,6.6-1.1,14.35,2.83,20.23s10.08,10,16.66,12.64c-3.1-3.8-6.26-7.69-8-12.29s-1.8-10.1,1-14.1c2.21-3.11,5.8-4.9,8.52-7.57,8.5-8.32,6.43-22.83.39-33.09-2.24-3.8-5-8.32-3.08-12.29a11,11,0,0,1,4.1-4c11.23-7.39,25.46-11.24,33.23-22.21,5.66-8,6.72-18.25,7.6-28-2.3-9.19,2.52-18.54,7.56-26.57a289.75,289.75,0,0,1,33.21-43.19c-4.23-11.38-4.17-23.82-6.07-35.81a72.67,72.67,0,0,0-1.49-7.18c1.61-3,3-6.19,4.29-9.34,1.65-3.91,3.33-8.05,2.81-12.27-1.2-9.61-13.4-17-10.46-26.2,1.45-4.57,6.3-7.37,7.93-11.87,2.22-6.17-2.25-12.48-5.05-18.41a7.86,7.86,0,0,1-1-3.64c.13-3.36,3.71-5.31,5.93-7.84,6.82-7.78.23-20.23,3.19-30.13,2.25-7.54,9.76-12.59,12.06-20.11,2.51-8.18-1.38-18.45,4.36-24.81,1.79-2,4.26-3.18,6.46-4.68a27.32,27.32,0,0,0,9.79-12c.94-2.26,1.68-4.8,3.64-6.28a12.72,12.72,0,0,1,4.63-1.78A41.22,41.22,0,0,0,329.9,128.4c1.75-2,3.42-4.32,5.9-5.34,2.21-.92,4.7-.67,7.09-.62a40.1,40.1,0,0,0,27.69-10.78,25.52,25.52,0,0,0,19.61-6.78,10.53,10.53,0,0,0,3.08-4.71C394.05,97.19,392.66,94,390.73,91.63Z"/><path class="cls-15" d="M338.45,225.64s-15.59-9.86-47.49-4-31.42,15.83-27.83,30.13,9.88,26.88,22,26.88,47.14-4.49,51.17-14.81S342,231.93,338.45,225.64Z"/><path class="cls-15" d="M362.61,224.49s12.27-13.77,44.54-17,34.56,6.55,35.05,21.29-2.08,28.56-13.73,31.9-46.54,8.68-53.27-.14S360.89,231.52,362.61,224.49Z"/><path class="cls-7" d="M340.41,242.25s9.16-11.68,24.18-3.82l.09-18.07s-17.24,5.19-28.3,1.15Z"/><path class="cls-16" d="M453.67,355.83h18.85a1.25,1.25,0,0,0,0-2.5H453.67a1.25,1.25,0,0,0,0,2.5Z"/><path class="cls-16" d="M454,340.41q9.78.09,19.52.93c1.61.14,1.6-2.36,0-2.5q-9.73-.84-19.52-.93a1.25,1.25,0,0,0,0,2.5Z"/><path class="cls-6" d="M372.33,204.1a51.18,51.18,0,0,1,11.55-6,61.19,61.19,0,0,1,12.63-3.33,43.39,43.39,0,0,1,13.22-.05,25.21,25.21,0,0,1,12,5.3,44.22,44.22,0,0,0-12.31-2.33,50.87,50.87,0,0,0-6.16.17q-3.09.21-6.18.68c-4.12.56-8.21,1.45-12.32,2.39S376.53,203,372.33,204.1Z"/><path class="cls-6" d="M315.19,210.83c-6.26.18-12.26-.29-18.06.1a32.64,32.64,0,0,0-4.18.56,16.43,16.43,0,0,0-3.89,1.36,37.58,37.58,0,0,0-3.86,2.08,11.1,11.1,0,0,0-1.74,1.3A3.88,3.88,0,0,0,282.2,218a3.62,3.62,0,0,1,.4-2.4,10.52,10.52,0,0,1,1.35-2.07,19.7,19.7,0,0,1,3.59-3.25A14.87,14.87,0,0,1,292,208a21.47,21.47,0,0,1,2.43-.59c.81-.12,1.62-.2,2.43-.29a36.19,36.19,0,0,1,9.44.73A33.79,33.79,0,0,1,315.19,210.83Z"/><path class="cls-6" d="M220.89,410.11c-1.12,15.49,7.33,35.74,21.44,42.23,8.61,4,23.27.57,31.42,5.4a20.82,20.82,0,0,1,9.88,19.52c-.42,4.19-2.13,8.19-2.46,12.39a19.41,19.41,0,0,0,10.21,18.27c6,3.08,13.57,3,18.7,7.33,5.94,5.07,6.21,14.42,3.29,21.65-1.31,3.24-3.17,6.41-3.21,9.9-.08,5.93,5.11,10.62,10.47,13.16,8.08,3.83,17.71,4.63,26.05,1.43s15.16-10.58,16.93-19.35A24.46,24.46,0,0,1,336,551.19,9.83,9.83,0,0,1,331.1,548a9.72,9.72,0,0,1-1.48-4.39c-1.55-12.22,6.83-25,2.34-36.44-4.91-12.54-22.88-16.82-26.17-29.88-2-8.1,2.53-16.4,2.35-24.75-.19-9-6.09-17.17-13.79-21.77-5.49-3.27-12.31-5.4-15.27-11.06-3.74-7.14.7-15.66,5.08-22.42s9-15.11,5.55-22.39c-2.56-5.39-8.93-8.35-11-13.94-2.45-6.57,1.93-13.5,3.39-20.36a25,25,0,0,0-7.92-23.61c-2.39-2.07-5.16-3.67-7.54-5.76-3.06-2.69-6.14-6.45-10.19-5.95-3.86.47-6.05,4.64-7.09,8.39-3.17,11.49-1.73,23.7-3,35.55s-6.41,24.7-17.44,29.21"/></g></svg>