<?xml version="1.0" encoding="utf-8"?>
<!-- Generator: Adobe Illustrator 26.0.0, SVG Export Plug-In . SVG Version: 6.00 Build 0)  -->
<svg version="1.1" id="Capa_1" xmlns="http://www.w3.org/2000/svg" xmlns:xlink="http://www.w3.org/1999/xlink" x="0px" y="0px"
	 viewBox="0 0 500 500" style="enable-background:new 0 0 500 500;" xml:space="preserve">
<style type="text/css">
	.st0{clip-path:url(#SVGID_00000032646499177962563310000015867849918060257678_);}
	.st1{clip-path:url(#SVGID_00000034087243986278968590000005348266199929761452_);fill:#FDC616;}
</style>
<g>
	<g>
		<g>
			<defs>
				<path id="SVGID_1_" d="M37.5,140.2v219.7c0,8,4.3,15.4,11.2,19.4l190.1,109.8c6.9,4,15.5,4,22.4,0l190.1-109.8
					c6.9-4,11.2-11.4,11.2-19.4V140.2c0-8-4.3-15.4-11.2-19.4L261.2,10.9c-6.9-4-15.5-4-22.4,0L48.7,120.8
					C41.8,124.8,37.5,132.2,37.5,140.2z"/>
			</defs>
			<clipPath id="SVGID_00000141451447340928220650000011645382009300960158_">
				<use xlink:href="#SVGID_1_"  style="overflow:visible;"/>
			</clipPath>
			<g style="clip-path:url(#SVGID_00000141451447340928220650000011645382009300960158_);">
				<g>
					<defs>
						
							<rect id="SVGID_00000005988011490368140060000013875257776945973665_" x="-562.3" y="-1786.2" width="2687.2" height="3873.4"/>
					</defs>
					<clipPath id="SVGID_00000173858274862943158040000000357063376876664213_">
						<use xlink:href="#SVGID_00000005988011490368140060000013875257776945973665_"  style="overflow:visible;"/>
					</clipPath>
					
						<rect x="24.1" y="-5.5" style="clip-path:url(#SVGID_00000173858274862943158040000000357063376876664213_);fill:#FDC616;" width="451.9" height="511.1"/>
				</g>
			</g>
		</g>
	</g>
</g>
<g transform="translate(0.000000,512.000000) scale(0.100000,-0.100000)">
	<path d="M1322.2,4118.2l-15.2-11.7v-253.2v-253.2l-38.1-31.1c-68.6-56.3-133.1-138.9-178.2-229.2
		c-85.6-169.4-99.1-368.7-38.1-550.4c15.2-46.3,53.9-127.2,73.3-154.2c11.1-15.2,11.1-16.4-0.6-41c-10.6-24.6-11.7-39.9-11.7-281.4
		c0-276.7,2.3-304.8,33.4-400.9c17.6-55.7,56.9-136,89.1-184.1c12.9-18.8,48.1-61.5,78.5-95c68.6-75.6,356.4-360.5,387.4-383.9
		l22.9-17l-330.6-2.9l-330.6-2.9l-1.8-48.7l-1.8-48.1h1477.7h1477.1v630.1v630.1l-162.4-1.2l-162.9-1.8l-28.1-83.2l-28.7-83.2
		l-79.7,53.3c-44.5,29.3-82.6,55.1-85.6,58c-2.9,2.3,14.7,29.3,40.4,61.5c25.2,31.1,49.2,64.5,53.9,73.3l8.2,17h205.7h205.2l17,17
		c9.4,9.4,17,21.7,17,26.4c0,12.3-385.1,1555.1-393.3,1575c-3.5,8.8-12.9,18.2-20.5,22.3c-10.6,4.7-315.9,6.4-1138.9,6.4H1338
		L1322.2,4118.2z M3718.9,3321.7c97.3-388.6,178.8-713.3,180.5-722.1l4.1-16.4h-46.9c-46.3,0-46.9,0-51,16.4
		c-1.8,8.8-78,312.4-168.8,675.2l-164.7,659.4l-985.9,1.8l-985.9,1.2v-117.2c0-106.7-1.2-117.8-10-120.7
		c-5.9-2.3-27.5-11.1-48.1-20.5c-20.5-9.4-38.1-17-39.3-17c-1.2,0-2.3,83.2-2.3,184.6v184.6l1070.9-1.2l1070.9-1.8L3718.9,3321.7z
		 M3551.3,3217.9c85-341.1,155.9-623.7,157.7-627.2c1.8-5.9-14.1-7.6-67.4-7.6h-70.3l-17.6,28.7c-33.4,52.8-99.6,76.8-164.7,59.2
		c-21.7-6.4-35.8-16.4-66.2-48.1l-38.7-39.9h-458.4h-457.8v31.7c0,31.1,0,31.1,28.7,49.2c35.8,21.7,57.4,53.3,65.6,95.5
		c10.6,49.8,3.5,67.4-62.1,159.4c-26.4,36.9-31.7,67.4-33.4,194l-1.2,104.3l17,8.8c25.8,12.9,55.1,42.2,69.2,69.2
		c17.6,32.8,17,107.3-1.2,167.6c-21.1,68.6-45.1,108.4-100.2,164.1c-41,41.6-58.6,55.1-99.6,74.4c-85.6,41-111.4,44-379.2,40.4
		c-128.4-1.8-243.3-5.3-255-7l-22.3-4.1v53.3v53.3h901.5h900.9L3551.3,3217.9z M2163.9,3632.3c95-29.3,170-107.3,195.2-202.2
		c12.9-49.2,11.7-85.6-3.5-104.9l-11.7-15.2h-277.2c-162.9,0-290.1-2.3-308.9-5.9c-86.8-16.4-148.3-79.7-160.6-165.3
		c-4.1-26.4-4.7-27.5-33.4-36.9c-133.6-43.4-199.3-194.6-139.5-321.2c22.9-48.1,59.8-82.6,141.3-131.3
		c56.9-34.6,75.6-48.7,75.6-57.4c-0.6-37.5-35.8-138.3-59.8-169.4c-8.2-10.6-10.6-10-63.9,11.1c-198.1,78.5-331.8,228-387.4,430.8
		c-11.7,43.4-13.5,63.3-13.5,155.3c0,117.2,7,155.3,45.7,246.8c73.9,174.7,235,313,419.7,359.3c65.1,16.4,59.2,16.4,311.8,17.6
		C2110.5,3644,2128.7,3643.5,2163.9,3632.3z M2254.7,3196.2l16.4-14.1l3.5-116.6c4.1-141.3,11.1-164.1,70.9-236.8
		c32.8-39.9,28.7-65.6-12.9-90.9c-4.7-2.9-85-6.4-178.8-8.2l-170-2.9l-1.8-31.1c-5.9-99.6,51-194,143-236.8
		c31.1-14.7,48.7-18.8,90.3-21.1l52.2-2.9l-11.1-21.1c-22.9-45.1-68.6-72.7-120.2-72.1c-30.5,0.6-244.4,26.4-294.8,36.3
		c-15.8,2.9-59.8,7-96.7,9.4l-68,4.1l14.1,28.1c22.9,44.5,43.4,124.3,47.5,182.9l3.5,53.9l-90.9,54.5c-50.4,29.9-99.1,61-108.4,68.6
		c-39.9,33.4-54.5,107.9-31.1,158.8c13.5,28.7,51.6,62.7,82.1,71.5c12.3,4.1,39.9,7,61.5,7h38.7v61.5c0,65.6,4.7,83.2,30.5,106.7
		c7,7,19.9,15.2,28.1,18.8c8.8,3.5,108.4,5.9,250.3,5.9l235.6,0.6L2254.7,3196.2z M2272.9,2581.9l-1.8-48.7l-42.8,1.8
		c-60.4,1.8-103.7,25.8-129,70.9l-13.5,24h94.4h94.4L2272.9,2581.9z M3463.4,2567.9c36.3-30.5,38.1-27-178.2-298.3
		c-108.4-135.4-202.2-250.9-209.3-256.1c-28.7-25.2-75-3.5-75,35.2c0,17.6,24,50.4,199.9,270.2c109.6,137.2,205.7,252.6,212.2,256.7
		C3432.3,2586.6,3443.4,2584.9,3463.4,2567.9z M1321,2429.5c41-29.3,162.9-92.6,178.8-92.6c4.1,0-7-15.8-24.6-35.2
		c-50.4-54.5-74.4-116.6-74.4-193.4c0-62.1,18.8-121.9,53.9-171.7c6.4-9.4,107.3-103.7,223.9-210.4
		c116.1-106.7,218-199.9,225.1-206.9l14.1-12.9l-32.2-18.2c-53.3-29.9-87.9-83.8-96.7-151.2l-4.7-34.6l-220.4,219.8
		c-180.5,179.9-226.3,229.2-253.2,270.8c-39.3,61-63.9,116.6-84.4,191.7c-14.7,55.7-15.2,59.8-17.6,298.9l-2.3,243.3l36.3-34
		C1262.4,2474.7,1297.5,2445.9,1321,2429.5z M2471,2473.5c-1.8-5.9-18.8-92-38.7-191.1c-19.9-99.6-41-192.8-47.5-207.5
		c-6.4-15.2-12.9-42.2-15.2-60.4c-2.9-30.5-4.7-34.6-22.3-42.8l-18.8-8.8l-22.3,50.4c-31.1,69.2-70.3,127.2-123.1,182.3l-44,46.3
		l31.1,3.5c43.4,5.9,97.9,32.8,130.1,65.1c34.6,34,61.5,91.4,65.6,137.7l3.5,35.2h52.2C2468.7,2483.5,2473.9,2482.3,2471,2473.5z
		 M2638.1,2475.8c24.6-18.8,24.6-27-1.2-158.3l-25.2-124.8H2563c-27,0.6-48.7,2.3-48.7,4.1c0,3.5,45.1,230.4,49.8,250.3
		C2571.8,2478.2,2613.4,2494.6,2638.1,2475.8z M3199,2472.9c-4.1-5.9-66.8-85.6-139.5-176.4c-72.7-90.9-137.2-175.3-143.6-187
		c-17.6-32.8-16.4-89.7,3.5-127.2c38.1-74.4,136.6-100.8,206.9-54.5c11.1,7,49.8,50.4,86.2,96.1l66.2,83.2l127.8-85.6
		c70.3-46.9,127.8-87.9,127.8-91.4c0-3.5-52.2-162.4-115.5-353.4l-116.1-347.6h-80.3h-80.9v140.7c0,155.3-3.5,182.9-32.2,243.3
		c-42.8,88.5-117.8,151.8-213.9,181.7c-21.1,6.4-63.9,10.6-124.3,12.9l-92,3.5l17,22.3c33.4,41.6,53.9,95,56.9,148.3
		c3.5,56.9-5.9,93.2-34.6,133.6l-18.8,25.2l28.7,141.8c19.9,100.8,27,150.6,25.2,171.7l-2.9,29.3h228
		C3198.4,2483.5,3206.6,2482.9,3199,2472.9z M1724.8,2280.7c47.5-15.8,72.1-45.1,167.6-195.8c103.2-161.8,100.2-147.7,42.2-200.5
		c-49.8-45.7-119.6-75-177-75c-27.5,0-28.1,0.6-121.9,86.8c-95.5,87.3-116.1,110.8-128.4,147.1c-10.6,29.3-8.8,104.9,2.9,138.9
		c12.3,36.9,59.8,85,95.5,97.9C1640.4,2291.8,1690.8,2292.4,1724.8,2280.7z M3915.3,1759.6v-530.5h-254.4h-254.4l10,31.1
		c5.3,16.4,85,255.6,176.4,530.5l167.1,499.4h77.4h78V1759.6z M1986.8,2225c95.5-51.6,174.1-134.2,220.4-230.9
		c38.1-80.3,38.7-73.3-15.2-99.6c-25.8-12.3-47.5-21.7-49.2-19.9c-1.8,1.8-227.4,354.6-245.6,384.5
		C1890.1,2270.1,1934.7,2253.1,1986.8,2225z M3502,2190.4c53.3-35.8,96.7-66.8,96.7-69.2c0-15.2-29.3-86.2-34.6-84.4
		c-5.3,1.2-210.4,135.4-222.2,145.4c-3.5,2.3,53.9,72.7,59.2,72.7C3403.6,2254.9,3449.3,2225.6,3502,2190.4z M2619.3,2079
		c53.3-37.5,52.8-124.3-0.6-185.8c-38.7-44-374-340.6-398.6-352.9c-58.6-28.1-126.6-28.1-184.6,0c-20.5,10-107.3,84.4-197.5,169.4
		c-10,10-9.4,10.6,27.5,22.9c51.6,17.6,100.2,47.5,140.7,87.3c20.5,20.5,35.2,31.1,38.1,27c2.3-3.5,10-15.2,17-27l13.5-20.5
		l-20.5-60.4c-11.1-33.4-20.5-61.5-20.5-61.5c0-2.9,88.5-27.5,90.9-25.2c1.8,1.8,11.7,29.3,22.3,61l19.3,58l150.6,76.2l150.6,76.2
		v53.3c0,60.4,9.4,80.9,46.9,106.7C2541.3,2101.9,2590.6,2100.1,2619.3,2079z M2902.4,1688.1c47.5-22.3,90.9-61,112-100.2
		c28.7-52.8,33.4-85.6,33.4-228v-130.7h-96.7h-96.7v110.2v110.2l41,40.4l41,40.4l-33.4,34l-33.4,34l-41.6-41l-41.6-41l-216.3,1.2
		l-216.9,1.8l105.5,95.5l105.5,95.5l149.5-1.8l149.5-1.8L2902.4,1688.1z M2754.7,1325.8v-97.3l-406.2,1.8l-406.2,1.8l-17,13.5
		c-63.9,50.4-43.4,153,34.6,171.2c10,2.9,192.8,4.7,406.8,5.3l388,0.6V1325.8z"/>
	<path d="M2923.5,3737.8c-99.6-15.8-201-63.3-276.1-129.5l-22.3-19.9l35.2-34.6l34.6-34.6l31.7,27.5c35.8,31.1,90.3,61,145.4,79.7
		c58,19.9,169.4,22.9,233.3,7c59.2-15.2,121.3-45.7,170-84.4l37.5-29.3l33.4,33.4l32.8,32.8l-30.5,27.5
		c-55.7,51-143.6,95.5-225.1,115.5C3077.7,3740.2,2968.6,3744.9,2923.5,3737.8z"/>
	<path d="M2930.5,3540.9c-46.9-10-112-41.6-143.6-69.2l-23.4-20.5l33.4-33.4l33.4-33.4l20.5,15.8c42.2,32.2,84.4,46.9,141.3,49.2
		c62.1,2.9,103.2-8.8,150.1-42.2c15.8-11.7,31.1-21.1,33.4-21.1c2.3,0,18.2,14.1,35.8,31.7l30.5,31.1l-27.5,24.6
		C3142.7,3536.8,3032,3563.1,2930.5,3540.9z"/>
	<path d="M2965.7,3351.5c-28.1-8.8-51-23.4-71.5-46.3c-70.3-78-33.4-203.4,68.6-232.7c90.9-27,184.6,44.5,184.6,141.3
		c0,32.2-18.2,73.9-44.5,99.6C3067.7,3348.6,3009.7,3365,2965.7,3351.5z M3034.3,3244.3c19.3-18.2,18.8-52.8-1.8-68.6
		c-21.1-16.4-46.3-15.8-63.9,2.3C2925.9,3220.8,2990.3,3285.9,3034.3,3244.3z"/>
	<path d="M2004.4,3111.2c-31.7-6.4-63.3-23.4-80.3-44c-19.9-23.4-36.9-60.4-36.9-80.9V2970h46.3c41.6,0,46.9,1.2,50.4,11.7
		c5.9,18.2,27,35.2,44,35.2c19.3,0,40.4-14.7,46.9-32.8c5.3-13.5,8.2-14.1,52.8-14.1c46.3,0,46.9,0,46.9,14.7
		c0,19.3-14.1,52.8-31.7,76.2C2115.2,3096.6,2050.7,3120,2004.4,3111.2z"/>
	<path d="M1598.2,2919.6c-2.3-2.3-4.1-25.2-4.1-50.4v-45.7h49.8h50.4l-1.8,48.7l-1.8,48.1l-44,1.8
		C1622.3,2922.5,1600.6,2921.9,1598.2,2919.6z"/>
</g>
</svg>
