<?xml version="1.0" encoding="utf-8"?>
<!-- Generator: Adobe Illustrator 26.0.0, SVG Export Plug-In . SVG Version: 6.00 Build 0)  -->
<svg version="1.1" id="Capa_1" xmlns="http://www.w3.org/2000/svg" xmlns:xlink="http://www.w3.org/1999/xlink" x="0px" y="0px"
	 viewBox="0 0 500 500" style="enable-background:new 0 0 500 500;" xml:space="preserve">
<style type="text/css">
	.st0{clip-path:url(#SVGID_00000107586853870624940500000013868824521501619338_);}
	.st1{clip-path:url(#SVGID_00000178182556764293356400000010216243214514634383_);fill:#FDC616;}
</style>
<g>
	<g>
		<g>
			<defs>
				<path id="SVGID_1_" d="M37.5,140.2v219.7c0,8,4.3,15.4,11.2,19.4l190.1,109.8c6.9,4,15.5,4,22.4,0l190.1-109.8
					c6.9-4,11.2-11.4,11.2-19.4V140.2c0-8-4.3-15.4-11.2-19.4L261.2,10.9c-6.9-4-15.5-4-22.4,0L48.7,120.8
					C41.8,124.8,37.5,132.2,37.5,140.2z"/>
			</defs>
			<clipPath id="SVGID_00000067949156551691041750000016249883724385967508_">
				<use xlink:href="#SVGID_1_"  style="overflow:visible;"/>
			</clipPath>
			<g style="clip-path:url(#SVGID_00000067949156551691041750000016249883724385967508_);">
				<g>
					<defs>
						
							<rect id="SVGID_00000026859309720224462780000000100684905927566229_" x="-562.3" y="-1786.2" width="2687.2" height="3873.4"/>
					</defs>
					<clipPath id="SVGID_00000153700241106521426460000005522536764910406837_">
						<use xlink:href="#SVGID_00000026859309720224462780000000100684905927566229_"  style="overflow:visible;"/>
					</clipPath>
					
						<rect x="24.1" y="-5.5" style="clip-path:url(#SVGID_00000153700241106521426460000005522536764910406837_);fill:#FDC616;" width="451.9" height="511.1"/>
				</g>
			</g>
		</g>
	</g>
</g>
<g transform="translate(0.000000,512.000000) scale(0.100000,-0.100000)">
	<path d="M2164.6,4120.4c-24.2-6.5-58.5-20.1-76.8-30.7c-71.5-40.2-137.6-128.7-154.7-206.7c-10.6-46.1-4.7-138.8,11.2-189.6
		c15.4-47.8,36.6-65.6,71.5-60.8c43.1,6.5,57.3,45.5,37.8,106.9c-14.8,47.2-13,113.4,4.7,151.2c21.3,44.9,50.8,76.8,94.5,100.4
		c34.8,18.9,40.7,20.1,93.3,20.1c63.8,0,88-8.9,138.8-50.8c46.1-38.4,71.5-49,115.2-49s69.1,10.6,115.2,49c43.7,36,75.6,49,127,52.6
		c73.2,4.1,138.8-28.3,180.7-89.2c48.4-70.3,45.5-153.5-9.4-266.9c-66.7-137.6-230.3-305.3-373.2-383.9l-40.2-21.9l-39.6,21.9
		c-21.9,11.8-54.3,32.5-72,44.9c-46.7,33.7-85,29.5-103.9-10.6c-15.9-33.1-3.5-57.3,47.2-92.7c57.9-40.2,141.7-80.3,168.3-80.3
		c59.1,0,212,100.4,327.8,215.6c224.4,223.2,300.6,454.1,204.3,620.1c-70.3,121.1-210.2,184.3-343.7,154.1
		c-57.3-13-94.5-30.7-140.6-67.3c-20.7-17.1-42.5-30.7-48.4-30.7s-22.4,10.6-37.8,23.6C2378.3,4121.6,2266.1,4148.2,2164.6,4120.4z"
		/>
	<path d="M2116.7,3516.3c-52.6-30.7-29.5-110.4,31.9-110.4c8.3,0,23,7.7,33.7,17.1c37.2,33.1,18.9,91.5-31.3,98
		C2139.8,3522.8,2125,3520.4,2116.7,3516.3z"/>
	<path d="M1716.3,3003.7c-77.4-24.2-149.4-92.7-179.5-168.9c-11.8-29.5-13.6-47.8-15.9-137.6c-2.4-106.3,2.4-147.6,21.3-187.8
		c9.4-18.9,9.4-20.1-1.8-26.6c-22.4-12.4-87.4-78.5-111-113.4c-28.9-42.5-61.4-114.6-66.7-147.6c-3-22.4-5.9-25.4-41.3-43.7
		c-66.7-34.8-127-111.6-143.5-184.3c-3.5-14.2-6.5-70.9-5.9-126.4c0-90.9,1.2-104.5,14.2-141.7l14.2-41.3l-15.9-11.2
		c-34.3-24.8-94.5-91.5-118.1-130.5c-50.2-84.4-66.1-158.3-66.1-301.2v-92.7l20.1-20.1l20.1-20.1H2500h1459.8l20.1,20.1l20.1,20.1
		v92.7c0,142.3-16.5,216.7-65.6,299.4c-23,39-85.6,108.7-118.7,132.3l-15.9,11.2l14.2,41.3c13,37.2,14.2,50.8,14.2,141.7
		c0.6,55.5-2.4,112.2-5.9,126.4c-16.5,72.6-76.8,149.4-143.5,184.3c-35.4,18.3-38.4,21.3-41.3,43.7c-5.3,33.1-37.8,105.1-66.7,148.2
		c-13.6,20.1-46.1,56.1-72.6,80.9c-47.8,44.3-47.8,44.3-39.6,61.4c18.3,34.8,23,79.7,20.7,184.8c-3,119.9-10,147-56.7,208.5
		c-85,111-243.3,143.5-365,74.4c-66.1-37.2-122.2-115.7-138.2-192.5c-4.7-21.3-6.5-68.5-4.7-131.1c2.4-83.9,4.7-103.3,15.9-132.3
		l13.6-34.8l-13.6-9.4c-7.7-5.3-29.5-24.2-47.8-41.9l-34.3-31.9l-33.7,31.9c-18.9,17.7-40.7,36.6-48.4,41.9l-13.6,9.4l13.6,34.8
		c11.2,29.5,13.6,47.8,15.9,131.1c1.8,61.4,0,109.8-4.7,132.9c-26,134.1-140.6,228-277.6,228c-136.4,0-252.2-95.1-277.6-228
		c-4.7-23-6.5-72-4.7-132.9c2.4-83.3,4.7-101.6,15.9-131.1l13.6-34.8l-13.6-9.4c-7.7-5.3-29.5-24.2-47.8-41.9l-34.3-31.9l-30.7,28.9
		c-17.1,15.9-39,34.8-47.8,41.9l-17.1,13l13.6,34.3c11.2,28.9,13.6,49,15.9,132.3c3,112.8-2.4,146.5-31.3,204.9
		c-34.8,69.7-94.5,120.5-167.7,142.9C1837.4,3019.6,1765.9,3019.6,1716.3,3003.7z M1875.2,2883.8c28.9-13.6,60.8-45.5,76.8-76.2
		c11.8-21.9,13.6-35.4,15.4-117.5c3-116.3-3.5-140.6-49-185.4c-46.7-46.7-108.7-61.4-170.1-40.2c-37.8,13-82.1,53.7-98,91.5
		c-12.4,27.8-13,37.8-11.2,128.1c1.8,110.4,6.5,127,46.1,166.5c36.6,36.6,66.7,48.4,121.1,46.1
		C1836.2,2895.6,1861,2890.9,1875.2,2883.8z M2557.3,2890.3c39-14.8,70.3-43.1,89.8-80.9c18.3-36.6,18.3-38.4,18.3-127
		c0-110.4-6.5-134.6-49.6-177.8c-79.7-79.1-203.7-61.4-262.2,37.8c-15.4,26.6-15.9,31.3-17.7,127.6l-2.4,99.2l18.9,38.4
		c29.5,60.2,78,89.2,147.6,89.2C2521.3,2896.8,2546.7,2893.8,2557.3,2890.3z M3265.9,2886.7c30.1-14.2,66.1-49.6,81.5-80.3
		c10-20.1,11.8-38.4,13.6-122.2c1.8-90.4,1.2-100.4-11.2-128.1c-15.9-37.8-60.2-78.5-98-91.5c-61.4-21.3-123.4-6.5-170.1,39.6
		c-43.1,43.1-50.2,67.9-50.2,171.9c0,46.1,3,92.7,5.9,104.5c12.4,45.5,58.5,94.5,103.3,110.4
		C3170.9,2901.5,3238.2,2899.2,3265.9,2886.7z M1662.6,2375.3c40.2-21.9,99.2-38.4,139.4-38.4c41.9,0,104.5,17.1,140.6,39
		c22.4,13.6,37.8,18.9,45.5,16.5c24.8-7.7,90.4-82.1,113.4-127.6c11.8-24.8,20.7-47.8,18.3-50.8c-1.8-3-14.2-7.1-27.2-8.9
		c-69.7-9.4-155.9-75.6-191.3-147c-29.5-58.5-34.8-91.5-31.9-207.9c2.4-88,4.1-105.1,15.9-132.9l13-32.5l-19.5-14.8
		c-10.6-8.3-33.1-27.8-49-43.1l-29.5-27.2l-20.7,21.9c-11.2,11.8-32.5,31.3-46.7,42.5l-26,21.3l13.6,34.8
		c11.8,29.5,14.2,49,16.5,130.5c3,115.2-5.3,163-39,219.7c-39,66.7-121.1,126.4-184.3,134.6c-13.6,1.8-26,7.1-27.8,11.2
		c-5.9,16.5,41.9,93.9,85,137c23.6,23,45.5,42.5,48.4,42.5C1623,2396,1642.5,2386.6,1662.6,2375.3z M2340,2387.7
		c11.8-14.2,73.8-38.4,117.5-46.1c59.6-10,113.4-0.6,176.6,31.3l47.8,24.8l23-18.3c25.4-20.1,54.9-50.8,67.9-70.3
		c7.7-11.8,7.1-17.1-4.7-53.1c-7.7-22.4-14.2-44.3-14.2-49c0-5.3-14.8-16.5-33.1-25.4c-47.8-23.6-98.6-74.4-122.8-123.4
		c-29.5-57.9-34.8-91.5-31.9-204.9c2.4-82.1,4.7-103.9,15.4-133.5l13-34.8l-18.9-14.8c-10.6-8.3-32.5-27.2-47.8-42.5l-28.9-28.3
		l-24.2,25.4c-13.6,13.6-34.8,33.1-47.8,43.1l-22.4,18.3l13.6,34.8c11.2,29.5,13.6,47.8,15.9,132.3c3,113.4-2.4,147-31.9,204.9
		c-24.2,49-75,99.8-122.8,123.4c-18.3,8.9-33.1,20.1-33.1,25.4c0,4.7-6.5,27.2-14.2,49l-13.6,40.2l15.9,22.4
		c21.3,28.9,76.8,77.4,89.2,77.4C2328.7,2396,2336.4,2392.5,2340,2387.7z M3048,2381.2c82.7-54.3,195.5-56.1,291.1-4.7l39.6,21.3
		l24.2-18.9c13-10.6,34.3-30.7,46.7-45.5c27.2-30.7,68.5-105.7,64.4-116.9c-1.8-4.7-14.8-9.4-28.9-11.8
		c-96.3-14.2-191.3-109.8-215-214.4c-14.8-66.7-9.4-221.5,9.4-269.9l13.6-34.8l-26-21.3c-14.2-11.2-35.4-30.7-46.7-42.5l-20.7-21.9
		l-29.5,27.2c-15.9,15.4-38.4,34.8-49,43.1l-19.5,14.8l13,32.5c11.8,27.8,13.6,44.9,15.9,132.9c3,116.3-2.4,149.4-31.9,207.9
		c-35.4,71.5-121.7,137.6-191.3,147c-13,1.8-25.4,5.9-27.2,8.3c-4.7,8.3,25.4,69.7,51.4,103.9c22.4,30.1,77.4,78.5,88.6,78.5
		C3023.2,2396,3036.2,2389.5,3048,2381.2z M1511.4,2084.8c39-13,85.6-59.6,98.6-98.6c7.7-21.9,10-50.2,10-113.4
		c0-104.5-8.9-134.6-52-174.8c-37.8-35.4-72-47.8-123.4-44.9c-46.7,3-78,15.9-108.1,46.1c-39.6,39.6-44.3,56.1-46.1,164.8
		c-2.4,112.2,3,133.5,42.5,176.6C1380.3,2091.9,1444.1,2107.8,1511.4,2084.8z M2208.3,2084.8c40.2-13.6,85.6-60.2,99.2-101
		c8.9-25.4,10-47.2,8.3-124c-1.8-81.5-3.5-95.7-14.8-116.9c-30.7-57.9-85.6-90.9-149.4-90.4c-70.3,0.6-118.1,29.5-147.6,89.8
		l-18.9,38.4l2.4,99.2c1.8,88.6,3.5,102.2,14.8,123.4C2042.3,2077.7,2128.5,2111.9,2208.3,2084.8z M2903.3,2085.4
		c33.7-11.2,77.4-49,94.5-81.5c11.2-21.9,13-34.8,14.8-124l2.4-99.2l-18.9-38.4c-29.5-60.2-77.4-89.2-147.6-89.8
		c-63.8-0.6-118.7,32.5-149.4,90.4c-11.2,21.3-13,35.4-14.8,116.9c-3,115.7,3.5,140.6,48.4,185.4
		C2779.9,2091.9,2841.3,2106.6,2903.3,2085.4z M3619.1,2078.3c31.9-15.9,69.7-57.9,82.1-90.4c15.4-40.2,11.8-210.2-5.3-244.5
		c-14.8-30.1-47.2-62-76.8-76.8c-33.7-15.9-96.9-18.9-131.7-5.3c-39.6,14.8-80.9,56.1-95.7,94.5c-15.9,43.7-17.1,184.8-1.8,230.3
		c12.4,36.6,59.6,85.6,96.3,98.6C3522.2,2098.4,3587.2,2094.8,3619.1,2078.3z M1305.3,1575.1c88-56.1,215-54.3,303,3.5l23.6,15.9
		l20.7-16.5c28.3-21.3,73.2-68.5,76.8-80.3c1.8-5.3-3.5-33.7-11.8-62c-11.8-39.6-16.5-71.5-18.9-130.5l-3.5-78.5h-288.2h-288.8v60.8
		c0,95.7,19.5,157.7,71.5,227.4c19.5,25.4,76.8,78,85.6,78C1276.4,1592.9,1290,1584.6,1305.3,1575.1z M2002.2,1575.1
		c86.2-54.9,208.5-54.9,297-0.6l30.1,18.9l29.5-21.9c15.9-11.8,39.6-34.8,52-50.8l21.9-28.9l-13-39.6c-15.9-48.4-26-116.3-26-178.9
		v-46.7h-290h-290.6l3.5,75.6c3.5,96.9,19.5,144.7,70.3,212.6c18.9,25.4,76.2,78,85,78C1973.2,1592.9,1986.8,1584.6,2002.2,1575.1z
		 M2700.8,1574.5c88.6-54.9,210.8-54.3,297.6,0.6c27.8,17.7,28.9,17.7,44.3,8.3c30.1-19.5,80.3-76.8,99.8-112.8
		c27.8-53.1,42.5-116.3,42.5-186v-57.9h-336.6h-336.6v54.9c0.6,124.6,44.3,225,127,288.2c15.9,12.4,30.1,23,30.7,23
		C2670.7,1592.9,2684.8,1584.6,2700.8,1574.5z M3392.9,1578.1c39.6-26.6,81.5-39.6,138.2-43.1c63.2-3,115.7,9.4,164.2,40.2
		l28.3,18.3l23.6-16.5c54.9-37.8,108.7-119.9,125.8-191.3c4.7-20.7,8.9-65,8.9-98v-60.8h-288.8h-288.2l-3.5,78.5
		c-2.4,58.5-7.1,90.9-18.3,129.9c-8.3,28.3-15.4,53.7-15.4,56.7c0,13.6,86.8,101,100.4,101
		C3369.9,1592.9,3381.1,1586.4,3392.9,1578.1z"/>
</g>
</svg>
