<?xml version="1.0" encoding="utf-8"?>
<!-- Generator: Adobe Illustrator 26.0.0, SVG Export Plug-In . SVG Version: 6.00 Build 0)  -->
<svg version="1.1" id="Capa_1" xmlns="http://www.w3.org/2000/svg" xmlns:xlink="http://www.w3.org/1999/xlink" x="0px" y="0px"
	 viewBox="0 0 500 500" style="enable-background:new 0 0 500 500;" xml:space="preserve">
<style type="text/css">
	.st0{clip-path:url(#SVGID_00000039837535332206331240000001443343669496532637_);}
	.st1{clip-path:url(#SVGID_00000045579719534482079000000018286286069916154241_);fill:#FDC616;}
</style>
<g>
	<g>
		<g>
			<defs>
				<path id="SVGID_1_" d="M37.2,139.7v219.7c0,8,4.3,15.4,11.2,19.4l190.1,109.8c6.9,4,15.5,4,22.4,0l190.1-109.8
					c6.9-4,11.2-11.4,11.2-19.4V139.7c0-8-4.3-15.4-11.2-19.4L261,10.4c-6.9-4-15.5-4-22.4,0L48.4,120.3
					C41.5,124.3,37.2,131.7,37.2,139.7z"/>
			</defs>
			<clipPath id="SVGID_00000117647786506337872210000009287145752587831473_">
				<use xlink:href="#SVGID_1_"  style="overflow:visible;"/>
			</clipPath>
			<g style="clip-path:url(#SVGID_00000117647786506337872210000009287145752587831473_);">
				<g>
					<defs>
						
							<rect id="SVGID_00000057837581604451929930000005386057297266764983_" x="-562.5" y="-1786.7" width="2687.2" height="3873.4"/>
					</defs>
					<clipPath id="SVGID_00000019658748421772064580000017726177215465063097_">
						<use xlink:href="#SVGID_00000057837581604451929930000005386057297266764983_"  style="overflow:visible;"/>
					</clipPath>
					
						<rect x="23.8" y="-6" style="clip-path:url(#SVGID_00000019658748421772064580000017726177215465063097_);fill:#FDC616;" width="451.9" height="511.1"/>
				</g>
			</g>
		</g>
	</g>
	<g transform="translate(0.000000,512.000000) scale(0.100000,-0.100000)">
		<path d="M2424.3,4084c-29.9-7-36.9-10.5-521.5-267.8c-222.1-117.8-413.7-221.5-425.4-230.3c-46.9-36.9-72.7-118.4-56.2-178.7
			l7.6-29.9l-70.3-2.9c-53.3-2.3-79.1-6.4-104.3-15.8c-44.5-17-93.2-61.5-114.3-104.9l-16.4-33.4l-2.9-817.4l-2.9-817.4l-46.9-1.8
			c-69.7-2.3-73.2-7.6-73.2-94.9c0-86.1,6.4-121.3,32.2-173.4c27-54.5,75-100.8,135.9-130.1l45.7-21.7l1268.6-1.8
			c850.2-1.2,1277.9,0.6,1296.7,4.7c48,10,92.6,35.7,133.6,76.2c65.6,64.5,87.3,124.2,87.3,240.8c0,59.8-1.2,69.7-11.7,83.2
			c-11.1,14.1-16.4,15.2-60.4,17l-48,1.8l-2.9,817.4l-2.9,817.4l-16.4,32.8c-17.6,36.3-60.4,79.7-95.5,97.9
			c-31.1,15.8-82,24.6-143,24.6h-51l8.2,31.1c15.8,58-4.7,128.9-49.2,171.1c-14.1,14.1-127.7,77.3-319.9,179.3
			c-309.4,164.1-324.6,170.5-345.7,147.1c-12.9-14.6-12.9-49.8,0.6-60.9c5.3-4.7,139.5-76.8,297.1-160
			c303.5-160,326.4-175.2,334-215.6c4.7-24.6-8.2-66.8-25.2-82c-11.7-10.5-572.5-308.8-579.5-308.2c-2.9,0-75.6,82-162.9,181.6
			c-215,246.7-202.7,233.8-224.4,233.8c-24.6,0-42.2-18.2-42.2-42.8c0-17,21.1-43.4,173.4-217.4c95.5-109,171.1-199.8,168.8-202.7
			c-2.9-2.3-55.1-31.1-116.6-63.3c-130.1-68.6-162.3-78.5-220.9-66.2c-29.3,5.9-126,54.5-479.3,242
			c-243.2,128.9-447.1,237.9-452.3,243.2c-5.9,4.7-14.6,20.5-19.9,34.6c-12.9,33.4-7,62.1,17,87.9c13.5,14.1,143.6,86.1,440.6,243.8
			c232,123,437.7,229.7,456.4,237.9c29.3,11.7,42.2,13.5,83.2,11.7c46.9-1.8,50.4-2.9,138.9-48c86.1-43.9,91.4-45.7,107.2-38.1
			c20.5,10,30.5,34.6,22.3,55.7c-4.1,11.7-21.7,24.6-69.7,51c-107.2,58-126,64.5-196.3,66.2
			C2475.2,4089.3,2437.1,4087.5,2424.3,4084z M1626.8,3230.9l107.8-57.4l-193.4-2.9l-193.4-2.9l-11.1-14.1
			c-10.5-13.5-11.1-33.4-11.1-718.4s0.6-704.9,11.1-718.4c11.1-14.1,11.7-14.1,145.9-14.1c124.2,0,135.9,0.6,147.1,11.1
			c15.8,14.6,16.4,46.3,0.6,62.1c-10.5,10.5-19.3,11.7-114.3,11.7h-102.5v647.5v647.5h196.3h196.3v-102.5
			c0-127.7,8.2-173.4,45.1-249c22.9-46.9,34.6-63.3,77.3-105.5c70.9-70.3,148.2-107.8,296.5-144.1c187.5-45.7,423-40.4,596.5,12.9
			c8.2,2.9,10-0.6,10-21.7s-8.8-40.4-51-113.7c-44.5-77.3-51-92-53.3-121.9c-2.9-41,8.8-76.2,35.2-103.1
			c32.8-33.4,48-38.7,113.1-38.7c51.6,0,61.5,1.8,83.8,14.6c28.1,15.8,57.4,56.2,63.3,86.1c8.8,46.3,0.6,71.5-52.1,162.9l-51,88.5
			l0.6,40.4v41l48,22.9c38.1,18.2,58,33.4,98.4,73.2c42.8,42.2,55.1,59.2,77.3,106.1c36.9,75.6,45.1,121.3,45.1,249v102.5h196.3
			h196.3v-647.5v-647.5h-912.9c-908.2,0-913.5,0-924-11.7c-14.6-16.4-13.5-44.5,2.3-60.4l12.9-12.9h943.4h943.9l11.1,14.1
			c10.5,13.5,11.1,33.4,11.1,718.4s-0.6,704.9-11.1,718.4l-11.1,14.1l-193.4,2.9l-193.4,2.9l107.8,57.4l107.8,56.8h97.3
			c53.3,0,108.4-2.9,121.9-6.4c32.8-8.2,66.8-36.3,80.3-66.2c10.5-22.9,11.1-58.6,11.1-827.9v-804.5H2497.5H1208.4v804.5
			c0,772.9,0.6,805.1,11.1,827.9c12.9,28.1,43.9,55.1,75,65c12.9,4.1,63.9,7,123.6,7l100.8,0.6L1626.8,3230.9z M2116.6,2971.3
			c251.4-133.6,275.4-145.3,321.1-155.9c47.5-11.1,101.4-8.2,151.2,8.8c18.8,6.4,79.7,35.7,134.2,64.5
			c55.1,29.3,101.4,53.3,104.3,53.3c2.3,0,3.5-79.7,2.9-177l-1.8-177l-46.9-13.5c-82.6-22.9-150-32.2-254.9-35.2
			c-114.3-3.5-194.5,5.3-294.7,30.5c-186.3,47.5-275.4,114.3-321.7,240.8c-10.5,29.9-12.9,50.4-15.2,156.4l-2.3,122.5l19.3-10.5
			C1923.3,3073.8,2015.3,3025.2,2116.6,2971.3z M3099.3,2950.8c-1.8-89.1-4.1-110.7-15.2-140c-25.2-69.7-68-125.4-126.6-164.6
			c-17.6-11.1-32.8-20.5-34.6-20.5s-3.5,82.6-3.5,183.4v183.4l89.6,47.5l89.1,47.5l1.8-15.2C3101,3063.3,3101,3008.8,3099.3,2950.8z
			 M2907.1,2292.2c34.6-59.8,37.5-81.4,14.6-99.6c-11.1-8.8-24-12.3-46.3-12.3c-38.7,0-61.5,15.8-61.5,42.2
			c0,14.6,53.9,121.9,61.5,121.9C2876.6,2344.3,2890.7,2320.9,2907.1,2292.2z M2137.7,1484.8c18.8-59.8,58-107.8,110.2-135.4
			l29.9-15.8h219.7h219.7l31.1,16.4c51,27,90.2,75.6,109,134.8c2.9,9.4,33.4,10,528.5,10h525.6l-2.9-51.6
			c-2.3-40.4-6.4-58.6-19.9-85.5c-20.5-42.2-62.7-80.9-105.5-96.7c-32.2-12.3-35.7-12.3-1285.5-12.3s-1253.3,0-1285.5,12.3
			c-42.8,15.8-85,54.5-105.5,96.7c-13.5,27-17.6,45.1-19.9,85.5l-2.9,51.6h525.6C2104.3,1494.7,2134.8,1494.1,2137.7,1484.8z
			 M2767,1490c0-10.5-44.5-56.2-62.7-63.3c-14.6-6.4-60.9-8.2-207.4-8.2c-210.4,0-210.9,0-248.4,41.6
			c-11.1,12.9-20.5,25.8-20.5,28.7c0,4.1,94.3,5.9,269.5,5.9C2645.7,1494.7,2767,1492.4,2767,1490z"/>
		<path d="M1557.1,2165.6c-8.2-7.6-14.6-21.1-14.6-29.3s6.4-21.7,14.6-29.3l14.1-14.6h311.1c302.9,0,311.1,0.6,322.3,11.7
			c17.6,17.6,15.8,48.6-3.5,63.9c-15.2,12.3-21.1,12.3-322.9,12.3h-307L1557.1,2165.6z"/>
		<path d="M1554.7,1977.5c-7-8.8-12.3-19.3-12.3-23.4c0-15.8,14.1-36.9,28.7-43.4c10.5-4.1,151.8-5.9,465.2-4.7l450.6,1.8l11.1,14.1
			c14.6,17.6,14.1,44.5-0.6,59.2c-11.7,11.7-19.3,11.7-471.1,11.7h-460L1554.7,1977.5z"/>
	</g>
</g>
</svg>
