<?xml version="1.0" encoding="utf-8"?>
<!-- Generator: Adobe Illustrator 26.0.0, SVG Export Plug-In . SVG Version: 6.00 Build 0)  -->
<svg version="1.1" id="Capa_1" xmlns="http://www.w3.org/2000/svg" xmlns:xlink="http://www.w3.org/1999/xlink" x="0px" y="0px"
	 viewBox="0 0 220 62" style="enable-background:new 0 0 220 62;" xml:space="preserve">
<style type="text/css">
	.st0{fill:#2283FF;}
	.st1{fill:#FC0050;}
	.st2{fill:#4D4C4C;}
	.st3{font-family:'Nunito-Light';}
	.st4{font-size:12.8889px;}
	.st5{fill:#131313;}
	.st6{fill:#303031;}
	.st7{fill:#FFFFFF;}
	.st8{fill:#FFFFFF;stroke:#838283;stroke-miterlimit:10;}
	.st9{fill:#CE3E45;}
	.st10{fill:#6CC3C6;}
	.st11{fill:#FCC735;}
	.st12{fill:#74292D;}
</style>
<g>
	<path class="st0" d="M65.1,17.7c-0.6-0.7-1.5-1.4-2.5-1.8c-1.1-0.4-2.4-0.6-4-0.6c-1.5,0-3.1,0.1-4.5,0.3c-0.6,0.1-1.3,0.2-1.9,0.3
		c-1,0.2-1.6,1.1-1.6,2v13.8c0,1.5,1.2,2.7,2.7,2.7l0,0c1.5,0,2.7-1.2,2.7-2.7V20.1c0.3-0.1,0.7-0.1,1.1-0.2c0.4,0,0.8-0.1,1.2-0.1
		c1.2,0,2.1,0.3,2.5,1.1c0.5,0.7,0.6,1.9,0.6,3.6v7.3c0,1.5,1.2,2.7,2.7,2.7l0,0c1.5,0,2.7-1.2,2.7-2.7v-7.9c0-1.3-0.2-2.4-0.4-3.5
		C66.1,19.4,65.6,18.5,65.1,17.7L65.1,17.7z"/>
	<path class="st0" d="M100.6,30.3c-0.6,0.1-1.2,0.2-1.8,0.2c-1.2,0-2-0.3-2.3-1c-0.4-0.6-0.6-1.5-0.6-2.7v-6.6h4.2
		c1.2,0,2.2-1,2.2-2.2l0,0c0-1.2-1-2.2-2.2-2.2h-4.2v-2.4c0-1.6-1.5-2.9-3.1-2.6l0,0c-1.3,0.2-2.3,1.3-2.3,2.6V27
		c0,1.2,0.1,2.3,0.3,3.3c0.2,1,0.6,1.9,1.2,2.6c0.6,0.7,1.3,1.2,2.3,1.6c1,0.4,2.2,0.6,3.6,0.6c1.1,0,2.1-0.1,2.9-0.3
		c0.2-0.1,0.5-0.1,0.7-0.2c0.8-0.2,1.4-1.1,1.2-1.9l-0.2-0.9C102.4,30.8,101.5,30.2,100.6,30.3L100.6,30.3L100.6,30.3z"/>
	<g>
		<path class="st0" d="M111.7,8.4c-0.6-0.6-1.4-0.8-2.3-0.8c-0.9,0-1.6,0.2-2.3,0.8c-0.6,0.6-1,1.1-1,2s0.3,1.8,1,2.3
			c0.6,0.6,1.4,0.8,2.3,0.8c0.9,0,1.6-0.2,2.3-0.8c0.6-0.6,1-1.3,1-2.3C112.6,9.3,112.3,8.9,111.7,8.4L111.7,8.4z"/>
		<path class="st0" d="M109.5,34.6L109.5,34.6c1.5,0,2.7-1.2,2.7-2.7V18.5c0-1.5-1.2-2.7-2.7-2.7l0,0c-1.5,0-2.7,1.2-2.7,2.7v13.4
			C106.8,33.3,108,34.6,109.5,34.6z"/>
	</g>
	<path class="st0" d="M176.2,21.1c-0.5-1.2-1.1-2.3-1.9-3.1c-0.8-0.9-1.8-1.5-2.9-2s-2.3-0.7-3.7-0.7c-1.3,0-2.6,0.2-3.7,0.7
		s-2.1,1.1-2.9,2s-1.5,1.9-1.9,3.1c-0.5,1.2-0.7,2.6-0.7,4s0.2,2.8,0.6,4c0.5,1.2,1.1,2.3,1.9,3.2s1.8,1.5,2.9,2
		c1.1,0.5,2.4,0.7,3.8,0.7s2.7-0.2,3.8-0.7c1.1-0.5,2.1-1.1,2.9-2c0.8-0.9,1.5-1.9,1.9-3.2c0.4-1.2,0.6-2.6,0.6-4
		S176.6,22.4,176.2,21.1z M170.4,29.1c-0.6,1-1.6,1.5-2.8,1.5c-1.2,0-2.2-0.5-2.8-1.5c-0.6-1-1-2.3-1-3.9s0.3-2.9,1-3.9
		c0.6-1,1.6-1.4,2.8-1.4c1.2,0,2.2,0.5,2.8,1.4c0.6,1,1,2.3,1,3.9S171.1,28.1,170.4,29.1z"/>
	<path class="st0" d="M154.3,21.1c-0.5-1.2-1.1-2.3-1.9-3.1c-0.8-0.9-1.8-1.5-2.9-2s-2.3-0.7-3.7-0.7c-1.3,0-2.6,0.2-3.7,0.7
		s-2.1,1.1-2.9,2s-1.5,1.9-1.9,3.1s-0.7,2.6-0.7,4s0.2,2.8,0.6,4c0.5,1.2,1.1,2.3,1.9,3.2s1.8,1.5,2.9,2c1.1,0.5,2.4,0.7,3.8,0.7
		c1.4,0,2.7-0.2,3.8-0.7c1.1-0.5,2.1-1.1,2.9-2c0.8-0.9,1.5-1.9,1.9-3.2c0.4-1.2,0.6-2.6,0.6-4S154.7,22.4,154.3,21.1z M148.5,29.1
		c-0.6,1-1.6,1.5-2.8,1.5c-1.2,0-2.2-0.5-2.8-1.5c-0.6-1-1-2.3-1-3.9s0.3-2.9,1-3.9c0.6-1,1.6-1.4,2.8-1.4c1.2,0,2.2,0.5,2.8,1.4
		c0.6,1,1,2.3,1,3.9S149.2,28.1,148.5,29.1z"/>
	<path class="st0" d="M133.5,21.1c-0.3-1.2-0.9-2.3-1.5-3.1c-0.7-0.9-1.5-1.5-2.6-2c-1.1-0.5-2.2-0.7-3.6-0.7
		c-0.7,0-1.5,0.1-2.1,0.2c-0.6,0.2-1.3,0.3-1.9,0.6v-5.9c0-1.6-1.5-2.9-3.1-2.6l0,0c-1.3,0.2-2.3,1.3-2.3,2.6v22.1
		c0,1,0.6,1.9,1.6,2l0,0c0.6,0.2,1.3,0.2,1.9,0.3c0.6,0.1,1.4,0.2,2.1,0.2c0.7,0.1,1.4,0.1,2,0.1c1.5,0,2.9-0.2,4.1-0.7
		c1.2-0.5,2.3-1.1,3.1-2c0.8-0.9,1.5-1.9,1.9-3.1c0.4-1.2,0.6-2.6,0.6-4C134.1,23.7,133.9,22.4,133.5,21.1z M127.5,29
		c-0.7,1-1.9,1.5-3.3,1.5c-0.5,0-0.9,0-1.3-0.1c-0.4,0-0.7-0.1-1-0.2v-9.7c0.3-0.2,0.7-0.4,1.3-0.6c0.6-0.2,1.1-0.2,1.6-0.2
		c2.5,0,3.8,1.7,3.8,5.2C128.6,26.6,128.2,28,127.5,29z"/>
	<path class="st0" d="M85.8,19.8c-0.2-1-0.7-1.8-1.4-2.4c-0.6-0.6-1.5-1.2-2.5-1.5c-1.1-0.3-2.3-0.6-4-0.6c-0.6,0-1.2,0-1.9,0.1
		c-0.6,0.1-1.2,0.2-1.7,0.2c-0.6,0.1-1.1,0.2-1.5,0.3l0,0c-0.6,0.2-1.1,0.8-1,1.5l0.2,1.7c0.1,0.7,0.8,1.2,1.5,1.1
		c0.3-0.1,0.6-0.2,1-0.2c0.9-0.2,1.8-0.2,2.7-0.2c1.4,0,2.3,0.2,2.8,0.8c0.6,0.6,0.8,1.3,0.8,2.2v0.5c-0.3-0.1-0.7-0.2-1.3-0.2
		c-0.6-0.1-1.1-0.1-1.9-0.1c-1.1,0-2,0.1-3,0.3c-1,0.2-1.8,0.6-2.5,1c-0.7,0.5-1.3,1.1-1.8,1.9c-0.4,0.7-0.6,1.7-0.6,2.7
		c0,1.1,0.2,2.1,0.6,2.9s0.9,1.5,1.6,1.9c0.7,0.5,1.5,0.8,2.6,1.1c1,0.2,2.1,0.3,3.3,0.3c1.9,0,3.6-0.1,4.9-0.3
		c0.6-0.1,1.1-0.2,1.5-0.2c1-0.2,1.7-1.1,1.7-2v-9.4C86.2,21.8,86.1,20.7,85.8,19.8z M81.1,30.7c-0.3,0.1-0.6,0.1-1.1,0.1
		c-0.5,0-1,0-1.5,0c-1,0-1.8-0.2-2.3-0.5c-0.6-0.3-0.8-0.9-0.8-1.7c0-0.4,0.1-0.8,0.3-1.1c0.2-0.3,0.5-0.5,0.8-0.6
		c0.3-0.2,0.7-0.2,1.1-0.3c0.4-0.1,0.9-0.1,1.4-0.1c0.3,0,0.7,0,1.2,0.1c0.4,0.1,0.7,0.1,1,0.2L81.1,30.7L81.1,30.7z"/>
</g>
<g>
	<path class="st1" d="M44.4,4.1c0.8-0.8,0.8-2.1,0-2.9s-2.1-0.8-2.9,0l-4.2,4.2c-2.6-1.8-5.9-2.9-9.3-2.9c-3.5,0-6.9,1.2-9.6,3.1
		l-3.7-4.1c-0.8-0.8-2.1-0.8-2.9-0.1c-0.8,0.8-0.8,2-0.1,2.9l3.8,4.1c-2.5,2.9-4.1,6.7-4.1,10.8v20.9c0,2.9,1.9,5.3,4.6,5.9
		c0.5,0.1,1,0.2,1.5,0.2c1.7-0.1,2.8-0.9,3.5-1.5c0.6-0.5,0.8-0.7,1.3-0.7c0.5-0.1,0.8,0.2,1.7,0.8c0.9,0.7,2.2,1.5,3.9,1.5
		c0.1,0,0.2,0,0.2,0c1.7,0,2.9-0.8,3.8-1.5c0.8-0.6,1.2-0.8,1.7-0.8c0.5,0,0.8,0.2,1.3,0.7c0.8,0.6,1.9,1.5,3.5,1.5
		c0.5,0,1,0,1.5-0.2c2.7-0.6,4.6-3.1,4.6-5.9V19.2c0-4.3-1.6-8.2-4.3-11.2L44.4,4.1z M40.7,40.2c0,0.9-0.6,1.8-1.5,2
		c-0.2,0-0.3,0.1-0.5,0c-0.4,0-0.6-0.2-1.3-0.7c-0.8-0.6-1.8-1.5-3.5-1.5c-2.1-0.2-3.4,0.8-4.3,1.5c-0.8,0.5-1.1,0.8-1.5,0.7h-0.1
		H28c-0.4,0-0.7-0.2-1.5-0.7c-0.9-0.7-2.1-1.5-3.9-1.5c-0.2,0-0.3,0-0.5,0c-1.7,0.2-2.7,0.9-3.5,1.5c-0.6,0.5-0.8,0.7-1.3,0.7
		c-0.2,0-0.3,0-0.5,0c-0.8-0.2-1.5-1-1.5-2V19.2c0-6.9,5.6-12.7,12.7-12.7s12.6,5.7,12.6,12.7V40.2z"/>
	<path class="st1" d="M28.1,13.6c-4.2,0-7.6,3.4-7.6,7.6s3.4,7.6,7.6,7.6s7.6-3.4,7.6-7.6S32.3,13.6,28.1,13.6z M28.1,25.8
		c-2.5,0-4.6-2.1-4.6-4.6s2.1-4.6,4.6-4.6s4.6,2.1,4.6,4.6S30.6,25.8,28.1,25.8z"/>
	<circle class="st1" cx="28.1" cy="21.2" r="2.5"/>
</g>
<g id="Capa_1-2">
	<text transform="matrix(1 0 0 1 100.7065 51.0957)" class="st2 st3 st4">by</text>
	<g>
		<g id="Capa_2_00000126305699886140131540000013809257787404574593_">
			<g id="Capa_1-2_00000062888240477174994510000004067176742034081708_">
				<path class="st5" d="M158.1,43.8c0.2,0,0.4,0.1,0.5,0.2c0.1,0.1,0.2,0.3,0.2,0.5c0,0.2-0.1,0.4-0.2,0.5
					c-0.1,0.1-0.3,0.2-0.5,0.2h-1.2v6.4c0,0.2-0.1,0.4-0.2,0.5c-0.3,0.3-0.8,0.3-1.1,0c-0.1-0.1-0.2-0.3-0.2-0.5v-6.4h-1.2
					c-0.2,0-0.4-0.1-0.6-0.2c-0.1-0.1-0.2-0.3-0.2-0.5c0-0.2,0.1-0.4,0.2-0.5c0.2-0.1,0.4-0.2,0.6-0.2h1.2v-2.2
					c0-0.2,0.1-0.4,0.2-0.5c0.3-0.3,0.8-0.3,1.1,0c0.1,0.1,0.2,0.3,0.2,0.5v2.2H158.1z"/>
				<path class="st5" d="M163.2,40.9c0.2,0,0.3,0,0.5,0.1c0.1,0.1,0.3,0.2,0.4,0.3c0.2,0.3,0.2,0.6,0,0.9c-0.1,0.1-0.2,0.3-0.4,0.3
					c-0.2,0.1-0.3,0.1-0.5,0.1c-0.2,0-0.3,0-0.5-0.1c-0.1-0.1-0.3-0.2-0.4-0.3c-0.1-0.1-0.1-0.3-0.1-0.4c0-0.2,0-0.3,0.1-0.5
					c0.1-0.1,0.2-0.3,0.4-0.3C162.8,40.9,163,40.9,163.2,40.9z M163.2,43.8c0.2,0,0.4,0.1,0.5,0.2c0.1,0.1,0.2,0.3,0.2,0.5v7.1
					c0,0.2-0.1,0.4-0.2,0.5c-0.3,0.3-0.8,0.3-1.1,0c-0.1-0.1-0.2-0.3-0.2-0.5v-7.1c0-0.2,0.1-0.4,0.2-0.5
					C162.8,43.8,163,43.8,163.2,43.8z"/>
				<path class="st6" d="M172.5,45.2c-0.8,0-1.6,0.3-2.2,0.8c-1.1,1-1.2,2.7-0.2,3.9c0.1,0.1,0.1,0.1,0.2,0.2
					c0.6,0.5,1.4,0.8,2.2,0.8c1,0,1.9-0.4,2.5-1.2c0.1-0.2,0.3-0.3,0.5-0.3c0,0,0.1,0,0.1,0c0.2,0,0.3,0,0.4,0.1
					c0.2,0.1,0.3,0.3,0.3,0.5c0,0,0,0.1,0,0.1c0,0.1-0.1,0.3-0.1,0.4c-0.9,1.2-2.3,1.8-3.7,1.8c-1.2,0-2.4-0.4-3.3-1.3
					c-1.7-1.5-1.8-4.1-0.3-5.7c0.1-0.1,0.2-0.2,0.3-0.3c0.9-0.8,2-1.3,3.3-1.3c1.5,0,2.8,0.6,3.7,1.8c0.1,0.1,0.1,0.3,0.1,0.4
					c0,0,0,0.1,0,0.1c0,0.2-0.1,0.4-0.3,0.5c-0.1,0.1-0.3,0.1-0.4,0.1c0,0-0.1,0-0.1,0c-0.2,0-0.4-0.1-0.5-0.3
					C174.4,45.6,173.5,45.2,172.5,45.2z"/>
				<path class="st2" d="M180.6,40.9c0.1,0,0.2,0,0.3,0.1c0.1,0.1,0.1,0.2,0.1,0.3V52c0,0.1,0,0.2-0.1,0.3c-0.1,0.1-0.2,0.1-0.3,0.1
					c-0.1,0-0.2,0-0.3-0.1c-0.1-0.1-0.1-0.2-0.1-0.3V41.2c0-0.1,0-0.2,0.1-0.3C180.4,40.9,180.5,40.9,180.6,40.9z"/>
				<path class="st2" d="M193.5,44c0.1,0,0.2,0,0.3,0.1c0.1,0.1,0.1,0.2,0.1,0.3v7.6c0,0.1,0,0.2-0.1,0.3c-0.1,0.1-0.2,0.1-0.3,0.1
					c-0.1,0-0.2,0-0.3-0.1c-0.1-0.1-0.1-0.2-0.1-0.3v-1.4c-0.9,1.2-2.2,1.8-3.7,1.8c-1.2,0-2.3-0.4-3.2-1.2c-1.6-1.5-1.8-4-0.3-5.6
					c0.1-0.1,0.2-0.2,0.3-0.3c0.9-0.8,2-1.3,3.2-1.2c1.4,0,2.8,0.6,3.7,1.8v-1.4c0-0.1,0-0.2,0.1-0.3C193.3,44,193.4,44,193.5,44z
					 M189.4,51.6c1,0,1.9-0.3,2.6-1c1.3-1.2,1.4-3.2,0.3-4.6c-0.1-0.1-0.2-0.2-0.3-0.3c-0.7-0.7-1.6-1-2.6-1c-1,0-1.9,0.3-2.6,1
					c-1.3,1.2-1.4,3.3-0.2,4.6c0.1,0.1,0.1,0.2,0.2,0.2C187.5,51.2,188.4,51.6,189.4,51.6z"/>
				<path class="st2" d="M198.6,51.9c-0.4-0.3-0.8-0.6-1.1-1c-0.1-0.1-0.1-0.2-0.1-0.3c0-0.1,0.1-0.2,0.2-0.2c0.1-0.1,0.2-0.1,0.3,0
					c0.1,0,0.2,0.1,0.3,0.2c0.2,0.3,0.5,0.6,0.8,0.8c0.4,0.2,0.8,0.4,1.2,0.4c0.5,0,0.9-0.1,1.3-0.4c0.3-0.3,0.5-0.6,0.5-1.1
					c0-0.4-0.2-0.8-0.5-1c-0.5-0.2-0.9-0.4-1.4-0.5c-0.6-0.1-1.2-0.3-1.7-0.6c-0.6-0.3-0.9-1-0.9-1.6c0-0.6,0.3-1.2,0.8-1.6
					c0.5-0.4,1.2-0.7,1.9-0.7c0.5,0,1,0.1,1.5,0.4c0.4,0.2,0.8,0.6,1,1c0,0.1,0,0.2,0,0.3c0,0.1-0.1,0.2-0.2,0.2c-0.1,0-0.2,0-0.3,0
					c-0.1,0-0.2-0.1-0.2-0.2c-0.2-0.3-0.4-0.5-0.7-0.7c-0.3-0.2-0.7-0.3-1-0.3c-0.5,0-0.9,0.1-1.3,0.4c-0.3,0.2-0.5,0.6-0.5,1.1
					c0,0.4,0.2,0.8,0.5,1c0.4,0.2,0.9,0.4,1.4,0.5c0.6,0.1,1.2,0.3,1.7,0.6c0.6,0.4,0.9,1,0.9,1.6c0,0.6-0.3,1.2-0.8,1.6
					c-0.5,0.4-1.2,0.7-1.9,0.7C199.7,52.3,199.1,52.2,198.6,51.9z"/>
				<path class="st2" d="M207.2,51.9c-0.4-0.3-0.8-0.6-1.1-1c-0.1-0.1-0.1-0.2-0.1-0.3c0-0.1,0.1-0.2,0.2-0.2
					c0.2-0.1,0.4-0.1,0.6,0.1c0.2,0.3,0.5,0.6,0.8,0.8c0.4,0.2,0.8,0.4,1.2,0.4c0.5,0,0.9-0.1,1.3-0.4c0.3-0.3,0.5-0.6,0.5-1.1
					c0-0.4-0.2-0.8-0.5-1c-0.4-0.2-0.9-0.4-1.4-0.5c-0.6-0.1-1.2-0.3-1.7-0.6c-0.6-0.3-0.9-1-0.9-1.6c0-0.6,0.3-1.2,0.8-1.6
					c0.5-0.4,1.2-0.7,1.9-0.7c0.5,0,1,0.1,1.5,0.4c0.4,0.2,0.8,0.6,1,1c0,0.1,0,0.2,0,0.3c0,0.1-0.1,0.2-0.2,0.2c-0.1,0-0.2,0-0.3,0
					c-0.1,0-0.2-0.1-0.2-0.2c-0.1-0.3-0.4-0.5-0.7-0.7c-0.3-0.2-0.7-0.3-1-0.3c-0.5,0-0.9,0.1-1.3,0.4c-0.3,0.3-0.5,0.6-0.5,1.1
					c0,0.4,0.2,0.8,0.5,1c0.4,0.2,0.9,0.4,1.4,0.5c0.6,0.1,1.2,0.3,1.7,0.6c0.6,0.4,0.9,1,0.9,1.6c0,0.6-0.3,1.2-0.8,1.6
					c-0.5,0.4-1.2,0.7-1.9,0.7C208.2,52.3,207.7,52.2,207.2,51.9z"/>
				<g>
					<g>
						<g>
							<g>
								<path class="st7" d="M148,53.3c0,0.6-0.4,1.3-0.9,1.5L136,60.8c-0.5,0.3-1.3,0.3-1.9,0L123,54.9c-0.5-0.3-0.9-1-0.9-1.5
									V40.5c0-0.6,0.4-1.3,0.9-1.5l11.1-5.9c0.5-0.3,1.3-0.3,1.9,0l11.1,5.9c0.5,0.3,0.9,1,0.9,1.5L148,53.3L148,53.3z"/>
								<path class="st8" d="M135,61.1c-0.3,0-0.7-0.1-1-0.2L123,55c-0.5-0.3-1-1-1-1.6V40.5c0-0.6,0.4-1.3,1-1.6l11.1-5.9
									c0.5-0.3,1.4-0.3,2,0l11.1,5.9c0.5,0.3,1,1,1,1.6v12.8v0.1c0,0.6-0.4,1.3-1,1.6L136,60.9C135.7,61,135.4,61.1,135,61.1z"/>
							</g>
						</g>
						<g>
							<g>
								<path class="st9" d="M138,49.8c-1.6,2.5-5.9,5.8-8.1,4.4c-2.2-1.4-0.9-6.5,0.7-9c1.6-2.5,4.4-3.5,6.6-2.2
									C139.4,44.5,139.6,47.4,138,49.8z"/>
							</g>
						</g>
						<g>
							<g>
								<path class="st10" d="M132,49.8c1.6,2.5,5.9,5.8,8.1,4.4c2.2-1.3,0.9-6.5-0.7-9c-1.6-2.5-4.4-3.5-6.6-2.2
									C130.6,44.5,130.4,47.4,132,49.8z"/>
							</g>
						</g>
						<g>
							<g>
								<path class="st11" d="M131.5,38.7l0.9,3.6c0,0,0,0,0.1,0c0.8-0.5,1.6-0.7,2.5-0.7c0,0,0,0,0,0c0,0,0,0,0,0
									c0.8,0,1.7,0.2,2.5,0.7c0,0,0,0,0.1,0l0.9-3.6l-1.9,1.5l-1.6-2.4l-1.5,2.4L131.5,38.7z"/>
							</g>
						</g>
						<g>
							<path class="st12" d="M137.2,43.1c-0.7-0.4-1.4-0.6-2.2-0.6c0,0,0,0,0,0c0,0,0,0,0,0c-0.7,0-1.5,0.2-2.2,0.6
								c-2.2,1.3-2.4,4.2-0.8,6.7c0.7,1,1.8,2.2,3,3.1c1.2-0.9,2.4-2.1,3-3.1C139.6,47.4,139.4,44.5,137.2,43.1z"/>
						</g>
					</g>
				</g>
			</g>
		</g>
	</g>
</g>
</svg>
