<?xml version="1.0" encoding="utf-8"?>
<!-- Generator: Adobe Illustrator 26.0.0, SVG Export Plug-In . SVG Version: 6.00 Build 0)  -->
<svg version="1.1" id="Capa_1" xmlns="http://www.w3.org/2000/svg" xmlns:xlink="http://www.w3.org/1999/xlink" x="0px" y="0px"
	 viewBox="0 0 252.6 83.3" style="enable-background:new 0 0 252.6 83.3;" xml:space="preserve">
<style type="text/css">
	.st0{fill:#131313;}
	.st1{fill:#303030;}
	.st2{fill:#4C4C4C;}
	.st3{fill:#FFFFFF;}
	.st4{fill:#FFFFFF;stroke:#848383;stroke-miterlimit:10;}
	.st5{fill:#CE3E45;}
	.st6{fill:#66CCCC;}
	.st7{fill:#FFC933;}
	.st8{fill:#742A2D;}
</style>
<g>
	<g id="Capa_2_00000126305699886140131540000013809257787404574593_">
		<g id="Capa_1-2">
			<path class="st0" d="M103,32.8c0.6,0,1.1,0.2,1.5,0.6c0.4,0.4,0.6,0.9,0.6,1.4c0,0.5-0.2,1-0.6,1.4c-0.4,0.4-1,0.6-1.5,0.6h-3.4
				v18c0,0.5-0.2,1-0.6,1.4c-0.9,0.8-2.2,0.8-3.1,0c-0.4-0.3-0.7-0.9-0.7-1.4v-18h-3.3c-0.6,0-1.1-0.2-1.6-0.6
				c-0.4-0.4-0.6-0.9-0.6-1.4c0-0.5,0.2-1.1,0.6-1.4c0.4-0.4,1-0.6,1.6-0.6h3.4v-6.1c0-0.5,0.2-1.1,0.7-1.4c0.9-0.8,2.2-0.8,3.1,0
				c0.4,0.4,0.6,0.9,0.6,1.4v6.1H103z"/>
			<path class="st0" d="M117.2,24.8c0.5,0,0.9,0.1,1.4,0.3c0.4,0.2,0.8,0.5,1,0.9c0.5,0.8,0.5,1.8,0,2.5c-0.2,0.4-0.6,0.7-1,1
				c-0.4,0.2-0.9,0.3-1.4,0.3c-0.5,0-1-0.1-1.4-0.3c-0.4-0.2-0.8-0.6-1-1c-0.2-0.4-0.4-0.8-0.4-1.3c0-0.5,0.1-0.9,0.4-1.3
				c0.2-0.4,0.6-0.7,1-0.9C116.2,24.9,116.7,24.8,117.2,24.8z M117.2,32.8c0.6,0,1.1,0.2,1.5,0.6c0.4,0.4,0.7,0.9,0.7,1.4v20
				c0,0.5-0.2,1.1-0.7,1.4c-0.9,0.8-2.2,0.8-3.1,0c-0.4-0.3-0.7-0.9-0.7-1.4v-20c0-0.5,0.2-1.1,0.7-1.4
				C116.1,33.1,116.6,32.8,117.2,32.8z"/>
			<path class="st1" d="M143.3,36.8c-2.2,0-4.4,0.8-6.1,2.3c-3.1,2.8-3.4,7.7-0.5,10.8c0.2,0.2,0.3,0.4,0.5,0.5
				c1.6,1.5,3.8,2.4,6.1,2.3c2.7,0.1,5.3-1.1,6.9-3.3c0.3-0.4,0.9-0.7,1.4-0.8c0.1,0,0.3,0,0.4,0c0.4,0,0.9,0.1,1.2,0.4
				c0.5,0.3,0.8,0.8,0.9,1.3c0,0.1,0,0.2,0,0.4c0,0.4-0.1,0.8-0.4,1.1c-2.5,3.3-6.4,5.1-10.4,5c-3.4,0.1-6.7-1.2-9.1-3.5
				c-4.7-4.2-5.1-11.4-0.9-16c0.3-0.3,0.6-0.6,0.9-0.9c2.5-2.3,5.7-3.6,9.1-3.5c4.1-0.1,8,1.7,10.4,5c0.3,0.3,0.4,0.7,0.4,1.1
				c0,0.1,0,0.2,0,0.4c-0.1,0.5-0.4,1-0.9,1.3c-0.4,0.2-0.8,0.4-1.2,0.3c-0.1,0-0.3,0-0.4,0c-0.6-0.1-1.1-0.3-1.4-0.8
				C148.6,38,146,36.8,143.3,36.8z"/>
			<path class="st2" d="M166,24.7c0.3,0,0.6,0.1,0.8,0.3c0.2,0.2,0.3,0.5,0.4,0.8v30c0,0.3-0.1,0.6-0.4,0.8
				c-0.2,0.2-0.5,0.3-0.8,0.3c-0.3,0-0.6-0.1-0.8-0.3c-0.2-0.2-0.3-0.5-0.4-0.8v-30c0-0.3,0.1-0.6,0.4-0.8
				C165.4,24.8,165.7,24.7,166,24.7z"/>
			<path class="st2" d="M202.1,33.4c0.3,0,0.6,0.1,0.8,0.3c0.2,0.2,0.3,0.5,0.3,0.7v21.3c0,0.3-0.1,0.6-0.3,0.8
				c-0.2,0.2-0.5,0.3-0.8,0.3c-0.3,0-0.6-0.1-0.8-0.3c-0.2-0.2-0.3-0.5-0.3-0.8v-3.9c-2.4,3.3-6.2,5.1-10.3,5
				c-3.3,0.1-6.5-1.2-8.9-3.5c-4.6-4.1-5-11.1-0.9-15.7c0.3-0.3,0.6-0.6,0.9-0.9c2.4-2.3,5.6-3.5,8.9-3.4c4-0.1,7.9,1.7,10.3,5v-4
				c0-0.3,0.1-0.5,0.3-0.7C201.5,33.5,201.8,33.4,202.1,33.4z M190.7,54.7c2.7,0.1,5.3-1,7.3-2.8c3.7-3.3,4.1-9.1,0.7-12.8
				c-0.2-0.3-0.5-0.5-0.7-0.7c-2-1.9-4.6-2.9-7.3-2.8c-2.7-0.1-5.3,1-7.3,2.8c-3.7,3.4-4,9.2-0.6,12.9c0.2,0.2,0.4,0.4,0.6,0.6
				C185.3,53.7,188,54.7,190.7,54.7z"/>
			<path class="st2" d="M216.6,55.5c-1.3-0.7-2.3-1.7-3.1-2.9c-0.2-0.2-0.2-0.5-0.2-0.8c0.1-0.3,0.3-0.5,0.5-0.7
				c0.3-0.2,0.6-0.2,0.9-0.1c0.3,0.1,0.6,0.2,0.7,0.5c0.6,0.9,1.4,1.7,2.4,2.2c1,0.6,2.2,1,3.4,1c1.3,0,2.6-0.4,3.7-1.2
				c0.9-0.7,1.5-1.8,1.5-3c0.1-1.2-0.5-2.3-1.5-2.9c-1.3-0.7-2.6-1.2-4.1-1.4c-1.7-0.3-3.3-1-4.8-1.8c-1.6-1-2.5-2.7-2.4-4.5
				c0-1.8,0.8-3.4,2.2-4.5c1.5-1.3,3.4-1.9,5.3-1.9c1.4,0,2.9,0.3,4.1,1.1c1.2,0.6,2.2,1.6,2.8,2.8c0.1,0.3,0.1,0.6,0,0.8
				c-0.1,0.3-0.3,0.5-0.6,0.6c-0.3,0.1-0.6,0.1-0.9,0c-0.3-0.1-0.5-0.3-0.6-0.5c-0.4-0.8-1.1-1.5-1.9-1.9c-0.9-0.5-1.9-0.7-2.9-0.7
				c-1.3,0-2.6,0.4-3.6,1.2c-1,0.7-1.5,1.8-1.5,3c-0.1,1.1,0.5,2.2,1.4,2.8c1.3,0.7,2.6,1.1,4,1.4c1.7,0.4,3.3,1,4.8,1.8
				c1.6,1,2.5,2.8,2.4,4.6c0,1.8-0.8,3.4-2.2,4.5c-1.5,1.3-3.4,1.9-5.3,1.9C219.5,56.8,217.9,56.3,216.6,55.5z"/>
			<path class="st2" d="M240.5,55.5c-1.3-0.7-2.3-1.7-3.1-2.9c-0.2-0.2-0.2-0.5-0.2-0.8c0.1-0.3,0.3-0.5,0.5-0.7
				c0.5-0.3,1.2-0.2,1.6,0.3c0.6,0.9,1.4,1.7,2.4,2.2c1,0.6,2.2,1,3.4,1c1.3,0,2.6-0.4,3.7-1.2c0.9-0.7,1.5-1.8,1.5-3
				c0.1-1.2-0.5-2.3-1.5-2.9c-1.3-0.7-2.6-1.2-4-1.4c-1.7-0.3-3.3-0.9-4.8-1.8c-1.6-1-2.5-2.7-2.4-4.5c0-1.8,0.8-3.4,2.2-4.5
				c1.5-1.2,3.4-1.9,5.3-1.9c1.4,0,2.9,0.4,4.1,1.1c1.2,0.6,2.1,1.6,2.7,2.8c0.1,0.3,0.1,0.6,0,0.8c-0.1,0.3-0.3,0.5-0.6,0.6
				c-0.3,0.1-0.6,0.1-0.9,0c-0.3-0.1-0.5-0.3-0.7-0.5c-0.4-0.8-1.1-1.5-1.8-1.9c-0.9-0.5-1.9-0.7-2.9-0.7c-1.3,0-2.6,0.4-3.7,1.2
				c-1,0.7-1.5,1.8-1.5,3c-0.1,1.1,0.5,2.2,1.4,2.8c1.3,0.7,2.6,1.1,4,1.4c1.7,0.4,3.3,1,4.8,1.8c1.6,1,2.5,2.8,2.4,4.6
				c0,1.8-0.8,3.4-2.2,4.5c-1.5,1.3-3.4,1.9-5.3,1.9C243.5,56.8,241.9,56.3,240.5,55.5z"/>
			<g>
				<g>
					<g>
						<g>
							<path class="st3" d="M74.6,59.6c0,1.6-1.2,3.6-2.6,4.3L41,80.5c-1.4,0.8-3.8,0.8-5.2,0L4.7,64c-1.4-0.8-2.6-2.7-2.6-4.3v-36
								c0-1.6,1.2-3.6,2.6-4.3L35.7,2.7c1.4-0.8,3.8-0.8,5.2,0L72,19.3c1.4,0.8,2.6,2.7,2.6,4.3L74.6,59.6L74.6,59.6z"/>
							<path class="st4" d="M38.3,81.3c-1,0-2-0.2-2.7-0.6L4.5,64.2c-1.5-0.8-2.7-2.9-2.7-4.5v-36c0-1.7,1.2-3.8,2.7-4.5L35.6,2.5
								c1.5-0.8,3.9-0.8,5.5,0l31.1,16.6c1.5,0.8,2.7,2.9,2.7,4.5v35.8v0.3c0,1.7-1.2,3.8-2.7,4.5L41,80.7
								C40.3,81.1,39.3,81.3,38.3,81.3z"/>
						</g>
					</g>
					<g>
						<g>
							<path class="st5" d="M46.6,49.8c-4.4,6.9-16.5,16.2-22.7,12.5c-6.2-3.8-2.6-18.3,1.8-25.2s12.3-9.9,18.5-6
								C50.5,34.8,51.1,42.9,46.6,49.8z"/>
						</g>
					</g>
					<g>
						<g>
							<path class="st6" d="M29.8,49.8c4.4,6.9,16.5,16.2,22.7,12.5c6.2-3.8,2.6-18.3-1.8-25.2s-12.3-9.9-18.5-6
								C25.9,34.8,25.3,42.9,29.8,49.8z"/>
						</g>
					</g>
					<g>
						<g>
							<path class="st7" d="M28.5,18.7l2.6,10.2c0.1-0.1,0.1-0.1,0.2-0.1c2.2-1.3,4.5-1.9,6.9-1.9c0.1,0,0.1,0,0.1,0
								c0.1,0,0.1,0,0.1,0c2.3-0.1,4.7,0.6,6.9,1.9c0.1,0.1,0.1,0.1,0.2,0.1L48,18.7l-5.3,4.1l-4.4-6.6l-4.1,6.6L28.5,18.7z"/>
						</g>
					</g>
					<g>
						<path class="st8" d="M44.4,31.1c-1.9-1-3.9-1.7-6-1.7c-0.1,0-0.1,0-0.1,0c-0.1,0-0.1,0-0.1,0c-2,0.1-4.1,0.7-6,1.7
							C26,34.9,25.3,43,29.8,49.8c1.8,2.8,5,6.1,8.4,8.6c3.5-2.6,6.6-5.8,8.4-8.6C51.1,43,50.5,34.8,44.4,31.1z"/>
					</g>
				</g>
			</g>
		</g>
	</g>
</g>
</svg>
