<?xml version="1.0" encoding="utf-8"?>
<!-- Generator: Adobe Illustrator 26.0.0, SVG Export Plug-In . SVG Version: 6.00 Build 0)  -->
<svg version="1.1" id="Capa_1" xmlns="http://www.w3.org/2000/svg" xmlns:xlink="http://www.w3.org/1999/xlink" x="0px" y="0px"
	 viewBox="0 0 500 500" style="enable-background:new 0 0 500 500;" xml:space="preserve">
<style type="text/css">
	.st0{clip-path:url(#SVGID_00000145775856015660424730000012422137191886442928_);}
	.st1{clip-path:url(#SVGID_00000054945384162234187140000006277080056733559970_);fill:#FDC616;}
</style>
<g>
	<g>
		<g>
			<defs>
				<path id="SVGID_1_" d="M37.5,140.5v219.7c0,8,4.3,15.4,11.2,19.4l190.1,109.8c6.9,4,15.5,4,22.4,0l190.1-109.8
					c6.9-4,11.2-11.4,11.2-19.4V140.5c0-8-4.3-15.4-11.2-19.4L261.2,11.2c-6.9-4-15.5-4-22.4,0L48.7,121.1
					C41.8,125.1,37.5,132.5,37.5,140.5z"/>
			</defs>
			<clipPath id="SVGID_00000169530599790427806410000007011981232742391188_">
				<use xlink:href="#SVGID_1_"  style="overflow:visible;"/>
			</clipPath>
			<g style="clip-path:url(#SVGID_00000169530599790427806410000007011981232742391188_);">
				<g>
					<defs>
						
							<rect id="SVGID_00000129907960447245611840000016916958859642890669_" x="-562.3" y="-1785.9" width="2687.2" height="3873.4"/>
					</defs>
					<clipPath id="SVGID_00000057848140602030035230000013890956736659451564_">
						<use xlink:href="#SVGID_00000129907960447245611840000016916958859642890669_"  style="overflow:visible;"/>
					</clipPath>
					
						<rect x="24.1" y="-5.2" style="clip-path:url(#SVGID_00000057848140602030035230000013890956736659451564_);fill:#FDC616;" width="451.9" height="511.1"/>
				</g>
			</g>
		</g>
	</g>
</g>
<g>
	<path d="M256.4,101c-17.1,3.3-31.9,15.3-38,31l-1.6,4.2l-3.6,1c-13.8,3.8-24.1,14.2-27.2,27.8c-1.4,5.8-0.9,15.2,1.1,20.5
		c2.1,5.5,4.9,10.1,8.7,13.9l3.1,3.2v4.3c0.1,17.7,10.2,34,25.9,41.6c7.3,3.5,12.7,4.8,20.5,4.8c9.1,0,18.2-2.7,25.6-7.8l2.7-1.8
		l4.8,2.1c12.7,5.8,26.9,6.6,40.2,2.1c8.6-2.9,15.5-7.4,22.2-14.4l3.3-3.6l3.6,1c11,3,23.5,1.1,32.9-5c10.9-7.1,17.6-17.7,19.2-30.6
		c1.6-12.7-2.9-25.3-12.3-34.7c-4.2-4.1-10.6-8-15.9-9.7c-2-0.7-2.2-0.9-2.6-3.8c-1.2-8.8-5.3-17.1-11.9-24.1
		c-8.7-9.2-19-13.6-31.9-13.5c-7.8,0-12.3,1-18.9,4.2c-2.3,1.1-4.4,2-4.6,2c-0.1,0-2-1.5-4-3.3C286.8,102.9,270.2,98.4,256.4,101z
		 M277.1,112.2c6.6,2.1,11.6,5.2,17.1,10.6c5.4,5.3,7,5.8,10.7,3.1c15.4-11.6,37.9-7.9,48.4,8c3.6,5.4,5.2,10,5.7,16.7
		c0.6,6.6,1.1,7.4,6.3,8.8c11.7,3,20.9,12,23.8,23.2c4.4,17-6.6,34.7-23.9,38.8c-5.2,1.3-12.3,0.8-17.2-1c-4.4-1.6-7.1-2.1-8.2-1.4
		c-0.5,0.2-2.4,2.5-4.4,5c-8,10.1-19.2,15.8-32.4,16.4c-9.4,0.5-16.7-1.3-25.1-6.2c-4.6-2.7-6-2.6-10,0.7
		c-6.4,5.4-14.2,8.1-22.9,8.1c-9.7,0-17.5-3.1-24.4-9.7c-4.6-4.3-7.4-8.6-9.7-14.7c-1.3-3.5-1.5-5-1.6-11.7c-0.1-4.3-0.3-8.3-0.5-9
		c-0.2-0.7-1.6-2.1-3.1-3.2c-10-7.1-13.5-22.6-7.7-34c3.8-7.4,11.6-12.9,20.4-14.5c2.7-0.4,5.3-1.1,5.8-1.5c0.5-0.4,1.5-2.8,2.3-5.4
		c4.5-14.5,15.7-25,30.5-28.4C262.2,109.8,271.2,110.3,277.1,112.2z"/>
	<path d="M232.1,156.1c-0.5,0.3-1.3,1.4-1.7,2.4c-0.9,2.1,0,5,1.8,6c0.6,0.4,7.4,0.6,15.4,0.6H262l1.4-1.5c1-0.9,1.5-2.1,1.5-3.3
		c0-1.1-0.5-2.4-1.5-3.3l-1.4-1.5h-14.5C239.5,155.5,232.6,155.8,232.1,156.1z"/>
	<path d="M276.3,157c-1.7,2.1-1.6,4.7,0.2,6.5l1.4,1.5h34.5H347l1.2-1.4c0.7-0.7,1.4-1.9,1.6-2.6c0.5-1.5-1-4.6-2.3-5.2
		c-0.5-0.2-16.5-0.4-35.4-0.4h-34.5L276.3,157z"/>
	<path d="M231.4,176.9c-1.5,1.5-1.7,2.1-1.4,3.8c0.2,1.1,1,2.5,1.9,3.2l1.5,1.4h33.7c24.5,0,34-0.2,35-0.7c1.9-1,2.7-2.3,2.7-4.3
		s-0.8-3.3-2.7-4.3c-1-0.5-10.5-0.7-35-0.7h-33.8L231.4,176.9z"/>
	<path d="M317.6,175.9c-2.6,1.5-3.3,3.8-2,6.6c1.1,2.6,2.7,2.8,17.2,2.8c13.5,0,13.6,0,15.3-1.4c1.3-1.1,1.7-1.9,1.7-3.6
		s-0.4-2.6-1.7-3.6c-1.6-1.4-1.7-1.4-15.4-1.4C323.4,175.2,318.4,175.4,317.6,175.9z"/>
	<path d="M232.1,196c-0.5,0.3-1.3,1.4-1.7,2.4c-0.9,2.1,0,5,1.8,6c0.6,0.4,7.4,0.6,15.4,0.6H262l1.4-1.5c1-0.9,1.5-2.1,1.5-3.3
		c0-1.1-0.5-2.4-1.5-3.3l-1.4-1.5h-14.5C239.5,195.4,232.6,195.7,232.1,196z"/>
	<path d="M276.5,196.9c-1.8,1.8-1.9,4.3-0.2,6.5l1.2,1.5H312c21,0,35-0.2,35.6-0.6c1.7-0.9,2.6-3.6,1.8-5.7
		c-1.3-3.3,0.1-3.2-37.1-3.3H278L276.5,196.9z"/>
	<path d="M165.1,183.2c-22,5.2-40.6,16.3-51.5,30.8c-8.6,11.4-12.8,25.1-13.5,44.6c-0.7,18.5,2.6,28.1,15.2,45.3
		c6.5,8.9,9.2,13.6,11.4,19.5c3,8,3.8,14.1,3.5,23.7c-0.5,12.6-3.2,23.7-8.5,35.4c-2.7,6-3.1,8.3-2,11.2c0.9,2.5,4.1,5.5,6.5,6.1
		c1.3,0.4,17.9,0.6,42.9,0.6c38.5,0,40.9-0.1,43.3-1.1c2.9-1.3,4.5-3.4,5.9-7.8c1.7-5.4,5-11.1,8.6-15l3.4-3.8l9.8,3.2
		c20.7,6.6,24.8,7.2,30.2,4.5c6.3-3.1,9.5-9.7,8.9-18.3c-0.2-2.6-0.5-5.5-0.7-6.4c-0.4-1.4-0.1-1.8,3-3.9c4.3-2.9,5.2-4.3,4.7-8.3
		c-0.2-2.8-0.2-3.2,1.3-4.1c3.4-2.2,3.6-6.6,0.5-12.2c-2.4-4.3-2.1-4.9,5.1-9c8-4.5,8.8-12.3,2-19.8c-3-3.4-10.4-14.7-13.6-21.2
		l-2.8-5.5l3-3.2c3.5-3.8,4.2-5.5,2.9-8c-1-2-2-2.5-4.8-2.5c-1.5,0-2.6,0.7-5.5,3.7c-3.9,4-5.5,7-5.5,10.2c0,3.8,8.6,19.5,16.6,30.1
		c2.3,3.1,4.2,5.8,4.2,6c0,0.8-2.1,2.3-4.3,3.3c-3.3,1.4-6.8,4.8-7.9,7.8c-1.3,3.2-0.8,7.4,1,11l1.3,2.5l-2.7,2.5
		c-2.9,2.7-3.3,4.2-1.9,6.8c0.8,1.4,0.7,1.5-1.5,3.2c-4.2,3-5.7,8.7-4.1,15.7c0.7,3.1-0.3,7.8-2.1,9.7c-1.8,1.8-3.5,1.8-12.7-0.8
		c-9.8-2.6-42.8-13.8-46.8-15.9c-5.6-2.8-8.6-6.2-8.6-9.7c0-2.2-2.5-4.5-4.9-4.5c-7.4,0.1-6.5,11.2,1.6,18.2
		c3.5,3.1,10.4,6.6,17.6,8.9c2.8,0.9,5.3,1.8,5.5,2.1c0.3,0.2-0.7,2.2-2.3,4.3c-2.7,3.9-7,12.4-7.7,15.4l-0.4,1.7h-39.5h-39.6
		l2.3-5.2c5.1-11.9,8.1-24.4,8.8-37.4c0.9-17.8-3.6-31.4-16.1-48.6c-7.1-9.7-10.3-15.5-12.4-22c-1.3-4.1-1.4-5.5-1.3-16.1
		c0-9.7,0.2-12.7,1.4-17.9c2.7-12.6,6.1-19.5,13.4-27.3c5.9-6.3,12.5-10.9,21.5-15.4c6.9-3.3,20.1-8,22.8-8c5.8,0,9.2-4.9,6-8.6
		C173.5,181.7,171.9,181.6,165.1,183.2z"/>
	<path d="M201.2,255.6c-6.1,1.2-11.6,5.4-14.4,11c-1.3,2.5-1.5,3.8-1.5,8.6c0,5.1,0.2,6,1.7,8.8c4.2,8,12.2,12,21.1,10.7
		c11.2-1.7,18.8-13.2,16-24.1c-1.6-6.4-5.4-10.9-11.1-13.4C209.3,255.5,204.9,254.9,201.2,255.6z M210.5,266.9
		c2.3,1.4,4.4,5.5,4.4,8.2c0,4.7-3.9,9.3-8.6,9.9c-2.2,0.4-3.3,0.2-5.5-1c-3.3-1.7-4.9-3.7-5.5-6.9c-0.9-4.9,1-8.6,5.4-10.8
		C203.7,264.8,207.3,265,210.5,266.9z"/>
	<path d="M159.8,276.1c-3.5,1.3-6.1,3.6-7.9,6.7c-1.4,2.4-1.7,3.5-1.7,7.3c0.1,6.7,2.7,11,8.6,13.6c5.6,2.6,11.9,1.3,16.4-3.2
		c7.4-7.4,5.4-19-4.1-23.9C168.6,275.3,162.7,275.1,159.8,276.1z M168.2,286.7c1.8,1.7,1.9,5.3,0.2,7c-2.9,2.9-8.3,0.6-8.3-3.4
		C160.1,286.1,165.2,283.8,168.2,286.7z"/>
</g>
</svg>
