<?xml version="1.0" encoding="utf-8"?>
<!-- Generator: Adobe Illustrator 24.1.3, SVG Export Plug-In . SVG Version: 6.00 Build 0)  -->
<svg version="1.1" id="Capa_1" xmlns="http://www.w3.org/2000/svg" xmlns:xlink="http://www.w3.org/1999/xlink" x="0px" y="0px"
	 viewBox="0 0 285.1 311.35" style="enable-background:new 0 0 285.1 311.35;" xml:space="preserve">
<style type="text/css">
	.st0{fill:#FDC500;}
	.st1{fill:#FFFFFF;}
	.st2{clip-path:url(#SVGID_2_);}
	.st3{fill:#12100B;}
	.st4{fill:#F1A283;}
	.st5{fill:#322B26;}
	.st6{fill:#F6BBA2;}
	.st7{fill:#A25B44;}
	.st8{fill:#F1906B;}
</style>
<g>
	<g id="Capa_4_8_">
		<g>
			<path class="st0" d="M285.1,225.65c0,6.4-4.6,14-10.2,17l-122.1,65c-5.6,3-14.8,3-20.5,0l-122.1-65c-5.6-3-10.2-10.7-10.2-17
				V84.25c0-6.4,4.6-14,10.2-17l122.1-65c5.6-3,14.8-3,20.5,0l122.1,65c5.6,3,10.2,10.7,10.2,17V225.65z"/>
		</g>
	</g>
	<g id="Capa_1_15_">
		<g>
			<polygon class="st1" points="30.5,251.75 59.7,235.05 79,224.35 74.3,198.65 61.3,176.15 52.7,139.55 50.6,117.95 48.1,87.95 
				59.4,59.45 66.7,49.25 82.8,40.95 110.3,20.75 155.1,21.65 168,26.75 176.9,33.35 187,34.65 211,50.45 223.2,77.35 227.5,96.45 
				224.9,113.55 219.4,160.95 203.3,205.25 198.3,221.55 206.2,225.55 220.9,229.15 262.9,248.85 142.5,311.35 			"/>
		</g>
	</g>
	<g id="Capa_2_9_">
		<g>
			<g>
				<g>
					<defs>
						<path id="SVGID_1_" d="M273.9,229.15c0,6.1-4.4,13.3-9.7,16.2l-116,61.8c-5.3,2.8-14.1,2.8-19.4,0l-116-61.8
							c-5.3-2.8-9.7-10.1-9.7-16.2V94.75c0-6.1,4.4-13.3,9.7-16.2l116-61.7c5.3-2.8,14.1-2.8,19.4,0l116,61.7
							c5.3,2.8,9.7,10.1,9.7,16.2V229.15z"/>
					</defs>
					<clipPath id="SVGID_2_">
						<use xlink:href="#SVGID_1_"  style="overflow:visible;"/>
					</clipPath>
					<g class="st2">
						<path class="st3" d="M298,323.05c0.3-10.2,0.6-20.7-2.7-30.3c-6.3-18.3-23.1-28.5-41.6-38.9c-16.9-9.4-31-16.7-48.3-21.5
							l-121.7,2.8c-32.1,7.1-73,36.4-78,41.3c-11.7,11.8-15.1,29.2-18,45.5"/>
					</g>
				</g>
			</g>
		</g>
		<g>
			<path class="st4" d="M99.3,207.75c-0.3,4.8,0.4,14.5-2.1,18.9c-3.4,5.7-7.1,6.3-13.6,8.6c-0.7,12.9,22.5,49.8,70.4,44.9
				c43.4-4.5,52.1-39.7,51.3-47.7c-3.7-1.3-10.3-4.5-14.9-8.1c-10.4-8.1-5.8-22.3-8.3-34.4"/>
		</g>
		<g>
			<path class="st5" d="M207.7,162.95c0.9,1.1,1.9,2.2,2.3,3.5c0.4,1.3,0.3,2.9-0.8,3.8s-3.1,0.8-3.7-0.5c2.1,1.9,3.4,4.6,3.6,7.4
				c0.1,1.8-0.3,3.8-1.7,5c-1.4,1.3-3.9,1.6-5.2,0.2c0.1,1.1,0.2,2.4-0.3,3.4c-0.6,1-2.1,1.6-3,0.9c0,1,0.4,1.9,0.6,2.8
				c0.2,0.9,0.2,2-0.5,2.7s-2.3,0.3-2.3-0.6c1.6,1.4,1.7,3.9,0.3,5.4s-4.1,2.6-5.7,1.3c0,0,1,3.3-2.3,5.4s-6-1-6-1l-86.2,5.6
				c-1.3,2-4.6,2.3-6.6,0.9c-2-1.4-2.7-4.1-2-6.4c-1.4,1-3.8,0.7-4.9-0.6c-1.1-1.4-0.8-3.6,0.7-4.6c-1.6,0-2.7-1.6-2.7-3.1
				s0.8-2.8,1.6-4.1c-2.7-0.7-5.9-1.8-6.6-4.3c-0.3-1-0.1-2,0.1-3c0.4-1.6,1.2-3.2,2.2-4.5l10.8-14.9"/>
		</g>
		<g>
			<path class="st5" d="M65.9,150.75c-4.1-0.3-7.2-4.7-5.9-8.3c0.4-1.2,1.2-2.3,1.1-3.5c-0.1-1.9-2.1-3.2-3-5
				c-1.6-3,1.1-7.1,4.7-7.1c-2.3-2-4.7-5.3-2.8-7.6c0.5-0.6,1.2-1,1.7-1.6c1.8-2.2-0.5-5.2-2.4-7.2s-3.6-5.6-1.2-7.2
				c0.7-0.5,1.7-0.6,2.4-1.1c2.1-1.5,0.5-4.7-1.6-6.2c-2-1.5-4.7-3.1-4.8-5.5c0-2,2-3.6,4.1-4s4.3,0.2,6.3,0.7
				c-0.6-2.3-2.2-4.4-3.3-6.6s-1.7-4.8-0.5-7c1.2-2.1,4.9-2.9,6.3-1c-1.5-3.1-3-6.3-2.7-9.7c0.3-3.4,3.2-6.8,6.8-6.5
				c1.8,0.1,3.3,1,5,1.6c1.7,0.5,3.8,0.6,4.9-0.7c2.2-2.4-1.6-6.4,0-9.2c1.2-2.2,4.6-2,6.8-0.8c2.2,1.2,3.8,3.4,6,4.5
				c0.8,0.4,1.8,0.7,2.6,0.5c0.7-0.2,1.2-0.6,1.7-1.1c2.9-2.7,4.4-6.7,4.2-10.5c0-0.7-0.1-1.4,0.2-1.9c1-1.9,4.1-0.4,5.6,1.2
				c1.5,1.6,4.5,3.2,5.6,1.3c-1.3-3-3.6-5.6-4-8.8s2.5-7,5.7-6c1.8,0.6,2.7,2.3,4,3.6s3.7,2.1,4.9,0.8c0.5-0.6,0.6-1.3,0.8-2.1
				c0.8-2.8,3.3-5.1,6.4-5.5c3-0.3,6.3,1.6,7,4.4c0.6,2.5-0.1,5.9,2.4,6.9c1.2-3.7,5-6.5,9.1-6.7s8.2,2.4,9.7,6
				c0.9,2.1,1.1,4.8,3,6.2c2.4,1.7,5.8,0.4,8.6-0.6c2.8-1.1,6.7-1.5,8.1,1c1.5,2.6-0.8,6.8,2,8.2c2.7-2.7,5.8-5.6,9.7-6.2
				c4.9-0.7,9.7,2.7,11.3,7.1s0.4,9.4-2.3,13.2c1.6-0.2,3.2-0.4,4.7,0.1s2.8,1.9,2.5,3.4c-0.4,2.3-4.2,4-2.9,6
				c0.6,0.9,1.8,1.1,2.8,1.5c2.2,1,3,4.1,1.5,5.9c3-0.4,6.7-0.3,8.4,2.2c1.3,1.9,0.7,4.6-0.8,6.3c-1.5,1.8-3.7,2.9-5.8,3.9
				c3.4-0.9,7.2,0.8,8.8,3.8c1.5,2.9,0.5,6.8-2.3,8.8c-2.1,1.4-5.2,2.1-5.9,4.5c-1,3.5,4.1,5.5,5.9,8.7c1.9,3.3-1,8-5,8.2
				c2,0.3,3.7,2,3.9,3.9s-1,3.9-2.8,4.6c3,0.2,5.5,3.2,5,6s-3.9,4.9-6.8,4.2"/>
		</g>
		<g>
			<path class="st6" d="M198.6,142.65c0-4.6-0.3-9-2.6-13.1c-1.9-3.4-4.3-5.7-5.4-9.5c-2.2-7.7,0.4-15.9-0.8-23.8
				c-2.6-16.8-27.3-25.5-41.5-29.2c2.7,3.5-5.8,4.5-3.9,0.4c-0.5,2.1-2.8,7.2-5.5,6.5c-2.8-0.7-1.4-4-0.3-5.6
				c-0.9,1-2.5,1.4-3.7,1.1c0.2-0.9,0.4-1.8,0.6-2.7c-1.2,1.5-3,3.7-5.2,3.4c-1.1-0.2-1.9-1.5-2.4-1.7c-0.7-0.2-2.4-0.3-3.7-0.1
				c-6.6,1-13.2,2.1-19.4,4.6C92.7,77.85,86,86.65,85,99.65c-1.5,19.8-8.4,38.4-4.8,58.6c2.3,12.6,5.4,26.1,9.7,38.3
				c4.4,12.5,12.4,20.9,24.4,26.6c11.2,5.3,24.5,8.2,36.6,4.9c11.6-3.1,21.6-12.1,29.7-20.6c10.2-10.7,12.3-24.9,14.7-39
				C196.5,160.05,197.8,151.35,198.6,142.65z"/>
		</g>
		<g>
			<g>
				<path class="st3" d="M160.8,166.85c-7.6,3.4-15.6,5.2-23.9,5.1c-7.6-0.1-17.4-1.1-22.3-7.7c-0.6-0.8-1.9,0-1.3,0.8
					c4.6,6.3,12.8,7.8,20.1,8.3c9.7,0.7,19.3-1.3,28.2-5.2C162.4,167.75,161.7,166.45,160.8,166.85L160.8,166.85z"/>
			</g>
		</g>
		<g>
			<path class="st6" d="M79.3,143.75c-2-3.6-7.5-4.5-10.2-2.6c-3.3,2.4-3,7.8-2.8,12.3c0.5,8.7,2.9,29.8,13.2,25.9
				c1.3-0.5,3.5-2.3,4-4.2"/>
		</g>
		<g>
			<path class="st6" d="M198.6,137.65c4.3-5,10.9-3.6,13.1,0.8c1.9,3.6,0.8,9.4-0.1,14.8c-1.3,7.6-3.9,25.7-14.7,23.5
				c-2.3-0.5-5.3-5.1-2.1-8.2"/>
		</g>
		<g>
			<g>
				<path class="st7" d="M195.2,168.75c2.1-1.5,4.9,3.8,8.2,2c2.9-1.6,4.1-6,4.9-8.9c1.6-6.3,3.2-18.5-4.1-22.1
					c-0.5-0.3-1,0.5-0.5,0.8c7.2,3.5,5.2,16.5,3.3,22.5c-1.4,4.5-3.5,8.3-8.6,5.5c-1.5-0.8-2-1.8-3.7-0.6
					C194.3,168.35,194.7,169.15,195.2,168.75L195.2,168.75z"/>
			</g>
		</g>
		<g>
			<g>
				<path class="st7" d="M195.1,160.75c0.4-1.7,1.7-6.4,3.6-7.2c1.2-0.4,3.4,0,3.6,1.3c0,0.3-0.2,1.5-0.5,1.7
					c-1.2,0.7-2.2-1.7-2.4-2.4c-0.2-0.9,0.1-1.9,0.2-2.7c0.5-3.1,1.5-6.7,3.2-9.3c1.6-2.5,6.4-5.1,7.5-0.6c0.1,0.6,1,0.3,0.9-0.2
					c-1.1-4.9-6.2-3.6-8.7-0.3c-2.2,2.8-6.7,14-2.5,16.7c2.7,1.7,4.2-3.3,2.6-5c-3.9-4.2-7.7,5.4-8.2,7.8
					C194.2,161.15,195,161.35,195.1,160.75L195.1,160.75z"/>
			</g>
		</g>
		<g>
			<path class="st5" d="M93.4,122.85c2.7-3.7,6.9-6.7,11.9-8.3c5.8-1.8,12.3-1.8,17.8-4.2c-9.2-3.2-20.3-2.7-26.6,4.9
				C93.1,119.15,93.4,122.85,93.4,122.85z"/>
		</g>
		<g>
			<path class="st5" d="M149.8,110.75c4.4-5.5,12.3-6.5,17.6-5.3c5.3,1.3,11.7,8.3,13,13.6c-4.6-4.2-11.1-8.4-17.4-9.6
				C158.2,108.65,153.5,110.25,149.8,110.75z"/>
		</g>
		<g>
			<path class="st3" d="M109.8,122.05c-4.1,0-3.6,8,0.2,8C113.7,129.85,113.9,122.05,109.8,122.05z"/>
		</g>
		<g>
			<path class="st3" d="M162.5,129.35c3.9,0,4.4-8,0.2-8C158.6,121.45,158.8,129.15,162.5,129.35z"/>
		</g>
		<g>
			<path class="st8" d="M131.6,142.95c-2.8-2.7-7.4-3.7-11.1-2.4c-1.7,0.6-3.3,1.8-4.1,3.4c-0.7,1.6-0.4,3.7,1.1,4.8
				c0.8,0.6,1.9,0.8,3,0.9c2.7,0.3,5.6,0.3,8,1.5c2.5,1.3,4.4,3.8,7.2,4c3.6,0.2,5.9-3.7,9.1-5.3c2.7-1.3,6-1,8.5-2.4
				c3.4-1.9,4.1-7,1.3-9.6s-8.2-2-10.2,1.2c0.1-10-0.5-20.6-5.9-29.2c-0.5-0.8-1-1.6-1.9-1.9c-1.4-0.6-3,0.1-3.9,1.2
				s-1.2,2.5-1.5,3.9c-1.8,9.4-2.2,19-1.3,28.5L131.6,142.95z"/>
		</g>
		<g>
			<path class="st5" d="M108.9,213.75c-1.2,3.6-1.3,8.6,0.8,11.9c1.3,2,7.6,5.2,7.7,0.2c-3.2,3.3,2.1,7.6,5.2,4.9
				c-2.2,2.5,0,6.5,2.9,7.1c3.7,0.7,6.3-3.2,7.8-5.9c-1.7,6.7,7.7,7.5,6.8,3.3c0.1,1.4,0.5,2.6,1.3,3.8c1.9-1.4,3.5-3.2,4.5-5.4
				c3.9,8.2,11.7-3.1,12.9-6.6c3,7.5,14.8,0.5,9.2-5.3c0.7,2.8,4.5,1.7,5.6,0c1.6-2.6-0.6-5.8-2.1-7.8c0.8,3.4,6.7,1,4.7-3.4
				c-1.6-3.6-8.2-4.4-11.6-4.7c-4.2-0.4-8.4,1-12.5,0.6c-4.6-0.4-5.2-4.5-8.9-6.5c-1.6-0.9-3.3-1.3-5.1-1.3c-0.9-0.1-1.8,0-2.6,0.3
				c-1.5,0-2.1,0.7-1.9,2.1c-2.3,2.8-3.4,4.6-7.1,5.9C122.6,208.05,108.9,207.55,108.9,213.75z"/>
		</g>
		<g>
			<g>
				<path class="st7" d="M84,175.25c0-1.8-0.9-3.8-2.9-4.1c-3.2-0.5-3.5,4.3-7.5-0.3c-2.5-2.9-3.1-8.7-3.5-12.3
					c-0.5-4.5-0.2-10.5,4.9-12.4c0.5-0.2,0.3-1.1-0.2-0.9c-7.2,2.6-6,12.2-4.7,18.2c0.7,3.1,1.6,7.6,4.4,9.5c0.8,0.5,1.5,1,2.5,0.9
					c0.5-0.1,0.7-0.5,1.2-0.6c0.2-0.1,0.4-0.3,0.5-0.4c1.5-1.7,2.9-0.9,4.4,2.3C83.1,175.85,84,175.85,84,175.25L84,175.25z"/>
			</g>
		</g>
		<g>
			<g>
				<path class="st7" d="M82.5,161.75c-0.8-3.2-5.9-5.3-7.7-1.6c-1.5,3.2,2.4,5.8,3.5,1.6c1-4.1-0.1-10.8-1.8-14.6
					c-1.6-3.6-5.9-5.6-7.4-0.9c-0.2,0.6,0.7,0.8,0.9,0.2c1.9-5.9,5.8,0.8,6.3,3c0.5,2,0.9,4.1,1.1,6.1c0.2,1.7,0.4,3.5,0.1,5.2
					c0,0.5-0.2,1-0.4,1.5c-1.5-2.2-1.2-3.3,0.8-3.3c1.8-0.1,3.2,1.2,3.7,2.9C81.7,162.55,82.6,162.35,82.5,161.75L82.5,161.75z"/>
			</g>
		</g>
	</g>
</g>
</svg>
