<?xml version="1.0" encoding="utf-8"?>
<!-- Generator: Adobe Illustrator 24.1.3, SVG Export Plug-In . SVG Version: 6.00 Build 0)  -->
<svg version="1.1" id="Capa_1" xmlns="http://www.w3.org/2000/svg" xmlns:xlink="http://www.w3.org/1999/xlink" x="0px" y="0px"
	 viewBox="0 0 285.1 309.9" style="enable-background:new 0 0 285.1 309.9;" xml:space="preserve">
<style type="text/css">
	.st0{fill:#5AB35F;}
	.st1{clip-path:url(#SVGID_2_);}
	.st2{fill:#FFFFFF;}
	.st3{fill:#8B422D;}
	.st4{fill:#FCD9D9;}
	.st5{fill:#9C5C49;}
	.st6{fill:#D9CDCB;}
	.st7{fill:#030607;}
	.st8{fill:#BC3E33;}
	.st9{fill:none;stroke:#FCDCCD;stroke-width:27;stroke-miterlimit:10;}
	.st10{fill:#010101;}
	.st11{fill:#FAC7B5;}
	.st12{fill:#FCDCCD;}
	.st13{fill:#F59E82;}
	.st14{fill:none;stroke:#211D1D;stroke-miterlimit:10;}
	.st15{fill:#F6988A;}
	.st16{fill:#DDCCCD;}
	.st17{fill:#984F3A;}
</style>
<g id="Capa_2_4_">
	<g id="Capa_4_3_">
		<g>
			<path class="st0" d="M285.1,225.65c0,6.4-4.6,14-10.2,17l-122.1,65c-5.6,3-14.8,3-20.5,0l-122.1-65c-5.6-3-10.2-10.7-10.2-17
				V84.25c0-6.4,4.6-14,10.2-17l122.1-65c5.6-3,14.8-3,20.5,0l122.1,65c5.6,3,10.2,10.7,10.2,17V225.65z"/>
		</g>
	</g>
</g>
<g>
	<g>
		<defs>
			<path id="SVGID_1_" d="M285.1,225.65c0,6.4-4.6,14-10.2,17l-122.1,65c-5.6,3-14.8,3-20.5,0l-122.1-65c-5.6-3-10.2-10.7-10.2-17
				V84.25c0-6.4,4.6-14,10.2-17l122.1-65c5.6-3,14.8-3,20.5,0l122.1,65c5.6,3,10.2,10.7,10.2,17V225.65z"/>
		</defs>
		<clipPath id="SVGID_2_">
			<use xlink:href="#SVGID_1_"  style="overflow:visible;"/>
		</clipPath>
		<g class="st1">
			<polygon class="st2" points="25.4,388.28 12.79,361.56 19.09,336.34 42.27,274.61 35.73,268.7 49.85,244.61 71.2,230.21 
				77.44,216.91 49.85,204.62 42.27,190.63 47.75,170.42 70.53,89.57 77.44,48.5 118.87,24.32 177.95,21.71 214.8,48.5 
				243.05,117.32 234.77,158.25 252.4,208.33 243.05,281.91 263.02,357.79 263.02,368.97 251.08,400.57 			"/>
			<path class="st3" d="M82.43,113.07c0,0-31.23,31.88-23.58,72.86c0,0-2.23-32.71,12.75-52.16c0,0-13.38,31.44,3.82,64.37
				c17.21,32.92-12.43,57.35-12.43,57.35l139.31-18.06l15.03-113.04L82.43,113.07z"/>
			<g>
				<g>
					<path class="st4" d="M89.88,126.87c-1.51-4.06-6.03-5.57-8.59-3.6c-3.13,2.32-3.36,8.35-3.71,13.23
						c-0.46,9.51-0.35,32.95,9.05,29.47c1.04-0.46,4.41-3.13,5.22-5.34"/>
				</g>
				<g>
					<g>
						<path class="st5" d="M90.93,161.9c0.23-2.09-0.46-4.18-2.2-4.76c-2.67-0.81-3.48,4.41-6.38-0.81
							c-1.86-3.36-1.86-9.75-1.86-13.81c0-4.99,0.81-11.49,5.57-13.23c0.46-0.23,0.35-1.16-0.12-0.93
							c-6.5,2.32-6.5,12.88-5.92,19.49c0.23,3.36,0.58,8.47,2.78,10.91c0.7,0.7,1.16,1.16,2.09,1.16c0.46-0.12,0.58-0.58,1.04-0.58
							c0.23-0.12,0.35-0.35,0.46-0.46c1.51-1.86,2.67-0.81,3.6,2.78C90,162.48,90.81,162.6,90.93,161.9L90.93,161.9z"/>
					</g>
				</g>
				<g>
					<g>
						<path class="st5" d="M90.93,146.94c-0.35-3.48-4.64-6.26-6.5-2.44c-1.62,3.36,1.62,6.61,2.78,2.09
							c1.28-4.41,0.93-11.83-0.23-16.13c-0.93-4.06-4.64-6.61-6.26-1.51c-0.35,0.7,0.46,0.81,0.81,0.35
							c2.32-6.26,4.99,1.28,5.22,3.71c0.23,2.32,0.35,4.52,0.35,6.73c0,1.97,0,3.83-0.46,5.8c0,0.58-0.35,1.04-0.46,1.74
							c-1.04-2.55-0.7-3.71,0.93-3.48c1.62,0,2.67,1.51,2.9,3.48C90.12,147.87,91.05,147.63,90.93,146.94L90.93,146.94z"/>
					</g>
				</g>
				<path class="st6" d="M84.65,170.44c3.84-0.39,8.8,4.55,7.21,11.02c-1.59,6.47-7.31,8.76-11.22,2.51S80.81,170.83,84.65,170.44z"
					/>
				<path class="st7" d="M85.94,159.35c-3.53,0.31-2.9,3.8-2.92,5.15c-0.01,1.35,0.31,9.45,0.31,9.45h4.53c0,0-0.16-8.28,0-10.62
					C88.02,160.99,87.68,159.2,85.94,159.35z"/>
			</g>
			<path class="st8" d="M105.6,38.78c0,0-26.13,9.34-25.81,31.21s-15.93,45.88-9.56,59.75s22.63,23.47,15.62,38.68
				c-7.01,15.2,9.46,31.74-17.1,30.41s-16.68-22.87-16.68-22.87s-14.34,19.67,9.24,26.07s28.68-9.07,27.41-18.94
				s23.26-30.67,18.16-47.21s15.62-85.35,15.62-85.35L105.6,38.78z"/>
			<g>
				<path class="st9" d="M63.98,271.84c0,0-32.16,83.73-27.85,92.57C40.44,373.24,57,415.94,57,415.94"/>
				<path class="st9" d="M214.8,271.84c0,0,32.16,83.73,27.85,92.57c-4.31,8.83-20.87,51.53-20.87,51.53"/>
				<path class="st10" d="M196.31,409.31l0.62-72.15c12.2-8.1,4.24-48.15,4.24-48.15c12.73-3.98,33.6-21.79,33.6-21.79
					s-7.43-13.99-18.39-21.23c-7.44-5.48-15.78-7.75-24.12-9.61l3.96,0.72c-10.94-2.79-24.9-5.99-32.65-10.43l-43.92,1.34
					c-7.74,4.34-26.54,6.51-34.88,8.37s-16.68,4.13-24.12,9.61c-10.96,7.25-18.39,21.23-18.39,21.23s20.86,17.82,33.6,21.79
					c0,0-8.89,35.26,4.24,48.15l0.62,72.15H196.31z"/>
				<g>
					<path class="st11" d="M120.51,193.74c-0.22,4.09,0.22,31.47-1.21,35.23c-1.99,4.86-9.4,5.3-13.15,7.29
						c-0.44,10.93,15.46,34.12,43.62,29.93c25.51-3.87,30.59-25.51,30.15-32.36c-2.21-1.1-9.95-0.55-12.6-3.64
						c-6.07-6.85-3.98-35.78-3.98-35.78"/>
				</g>
			</g>
			<path class="st12" d="M115.61,52.42c0,0-29.51,13.16-28.87,43s3.85,37.29,4.49,54.58c0.64,17.29,3.21,45.84,33.37,62.21
				c0,0,16.04,12.09,38.5-2.46c0,0,19.25-8.11,26.1-35.29c6.84-27.17,7.27-57.14,7.27-57.14l-25.43-69.7L115.61,52.42z"/>
			<path class="st13" d="M137.99,115.79l-0.86,19.53c0,0-0.51,4.8-3.6,6.85c-3.08,2.06-7.54,4.97-5.14,9.08
				c2.4,4.11,8.54,1.2,8.54,1.2s1.44,4.94,6.21,4.94s6.17-5.11,6.17-5.11s8.46,3.07,9.39-1.55c1.54-7.71-7.9-8.25-8.59-11.67
				c-0.69-3.43-2.02-9.39-2.53-23.26h-9.59V115.79z"/>
			<path class="st14" d="M132.01,146.11c0,0-2.58,1.76-1.72,4.8c0.89,3.17,3.89,3,3.89,3"/>
			<g>
				<path class="st15" d="M117.02,167.47c2.94,3.7,11.11,15.79,13.39,17.21c3.27,2.07,7.3,1.52,11.22,1.63
					c3.27,0.11,7.63,0.11,10.68-1.09c4.36-1.85,12.84-13.93,15.13-17.31l-27.55,10.12L117.02,167.47z"/>
			</g>
			<g>
				<path class="st10" d="M118.76,112.8c-4.68,0-4.03,9.04,0.22,9.04C123.23,121.62,123.45,112.8,118.76,112.8z"/>
			</g>
			<g>
				<path class="st10" d="M167.45,122.06c4.47,0,5.01-9.04,0.22-9.04C163.09,113.02,163.31,121.84,167.45,122.06z"/>
			</g>
			<g>
				<g>
					<path class="st5" d="M109.85,120.42c4.57-2.4,10.67,0.98,10.89,6.21c0,0.65,0.98,0.65,0.98,0c-0.33-5.88-7.3-9.8-12.31-6.97
						C108.76,119.76,109.31,120.64,109.85,120.42L109.85,120.42z"/>
				</g>
			</g>
			<g>
				<g>
					<path class="st5" d="M166.88,125.98c0-4.47,6.64-7.62,10.46-6.43c0.65,0.22,0.87-0.76,0.22-0.98
						c-4.36-1.2-11.76,2.4-11.66,7.52C165.79,126.63,166.88,126.63,166.88,125.98L166.88,125.98z"/>
				</g>
			</g>
			<g>
				<path class="st2" d="M167.44,167.91c-8.57,1.69-24.86,2.49-24.86,2.49s-22.63-1.3-25.57-2.94c3.05,2.51,10.76,12.21,14.14,13.08
					c5.45,1.31,18,1.31,23.23-0.65C157.53,178.26,167.44,167.91,167.44,167.91z"/>
			</g>
			<path class="st16" d="M164.97,61.02c0,0-26.68-20.89-32.82-8.7C126,64.51,99.58,69.43,99.58,69.43l1.5,16.68L89.4,130.62
				c0,0-3.15-14.09-3.38-35.02s11.93-35.15,29.12-44.26C132.32,42.25,164.97,61.02,164.97,61.02z"/>
			<g>
				<path class="st13" d="M104.07,174.47c0.35,3.63,1.39,7.16,2.68,10.55c1.31,3.39,2.93,6.66,4.77,9.78
					c1.84,3.13,3.93,6.11,6.18,8.95c2.26,2.84,4.66,5.57,7.22,8.15l-0.06-0.05c2.78,1.78,5.97,3.06,9.23,3.8
					c3.26,0.77,6.65,0.93,9.97,0.57c3.33-0.41,6.63-1.18,9.79-2.34c3.15-1.15,6.24-2.63,9-4.48l-0.06,0.05
					c2.29-2.45,4.23-5.23,5.93-8.14c1.69-2.92,3.14-5.99,4.42-9.13c2.54-6.28,4.55-12.79,6-19.43c-0.58,3.35-1.37,6.66-2.27,9.95
					c-0.91,3.28-1.95,6.53-3.19,9.7c-1.23,3.18-2.64,6.3-4.3,9.29s-3.6,5.85-5.96,8.37l-0.03,0.03l-0.03,0.02
					c-2.88,1.95-5.97,3.45-9.19,4.65c-3.22,1.2-6.58,2.02-10,2.45c-3.44,0.39-6.94,0.17-10.3-0.63c-1.68-0.39-3.33-0.93-4.92-1.59
					c-1.6-0.67-3.13-1.43-4.6-2.41l-0.03-0.02l-0.03-0.03c-2.55-2.62-4.99-5.37-7.21-8.28c-2.23-2.91-4.28-5.95-6.08-9.14
					c-1.81-3.18-3.37-6.51-4.58-9.96C105.22,181.69,104.26,178.12,104.07,174.47z"/>
			</g>
			<path class="st10" d="M129.25,106.81c2.97-1.53-3.36-5.35-12.85-6.92c-7.74-1.28-16.35,4.59-18.91,9.33c0,0,5.13,0.8,8.66-2.09
				c3.53-2.89,5.78-2.73,8.18-2.09C116.74,105.69,124.28,109.38,129.25,106.81z"/>
			<path class="st10" d="M156.36,105.85c-0.49-1.86,12.19-5.78,20.21-5.13c8.02,0.64,9.95,1.76,9.95,1.76l0.8,6.84
				c0,0-11.55-4.56-16.2-4.34C166.47,105.21,157.81,111.31,156.36,105.85z"/>
			<path class="st3" d="M129.28,35.63c0,0,30.09-14.02,49.14-4.46s33.71,24.54,47.1,66.28c13.38,41.75-9.62,49.06,6.82,81.1
				c16.44,32.03,12.93,42.55,3.37,71.87s0.96,36.33,5.1,68.2c4.14,31.87-4.14,50.03-18.16,62.78c0,0,10.52-23.26,5.42-42.38
				c-5.1-19.12-28.68-43.98-22.31-82.86s2.13-131.93,2.13-131.93L129.28,35.63z"/>
			<path class="st17" d="M124.5,37.55c0,0,31.55-1.59,53.86,14.98s16.36,36.97,29.53,51.94s20.82,28.36,19.22,59.27
				c-1.59,30.91,14.98,53.86-3.82,80.62c-18.8,26.77,5.42,57.68-8.6,80.94s-1.59,39.83,2.55,43.66c0,0-19.76-1.91-24.86-23.26
				s19.44-31.55,13.7-51.31s-21.03-14.02-16.89-56.09s12.43-41.11,12.43-41.11l3.19-33.78l-29.96-64.69l-20.4-39.52L124.5,37.55z"/>
			<path class="st8" d="M111.43,34.57c4.02-4.07,22.94-2.97,25.49,4.25s15.06,6.37,28.99,19.12s15.62,41.22,31.35,68.41
				c15.72,27.19,11.47,93.05,3.4,101.98s1.27,25.49-4.25,43.34c-5.52,17.85-16.57,15.3-11.47,25.49c5.1,10.2-1.27,19.97-1.27,19.97
				s2.66-10.62-3.72-23.05c-6.37-12.43,15.3-13.7,13.07-34.74c-2.23-21.03-23.9-22.63-11.15-41.75s19.44-20.59,19.44-42.96
				s-17.53-23.32-26.13-52s-16.25-51.94-35.37-56.41S92.95,53.27,111.43,34.57z"/>
		</g>
	</g>
</g>
</svg>
