<?xml version="1.0" encoding="utf-8"?>
<!-- Generator: Adobe Illustrator 24.1.3, SVG Export Plug-In . SVG Version: 6.00 Build 0)  -->
<svg version="1.1" id="Capa_1" xmlns="http://www.w3.org/2000/svg" xmlns:xlink="http://www.w3.org/1999/xlink" x="0px" y="0px"
	 viewBox="0 0 285.1 309.9" style="enable-background:new 0 0 285.1 309.9;" xml:space="preserve">
<style type="text/css">
	.st0{fill:#EB4957;}
	.st1{clip-path:url(#SVGID_2_);}
	.st2{fill:#FFFFFF;}
	.st3{fill:#F9BA9D;}
	.st4{fill:#010101;}
	.st5{fill:#F8A07C;}
	.st6{fill:#AA3838;}
	.st7{fill:#F6936D;}
	.st8{fill:#ED1556;}
	.st9{fill:#2B2725;}
	.st10{fill:none;stroke:#211D1D;stroke-miterlimit:10;}
</style>
<g id="Capa_4_1_">
	<g>
		<path class="st0" d="M285.1,225.65c0,6.4-4.6,14-10.2,17l-122.1,65c-5.6,3-14.8,3-20.5,0l-122.1-65c-5.6-3-10.2-10.7-10.2-17
			V84.25c0-6.4,4.6-14,10.2-17l122.1-65c5.6-3,14.8-3,20.5,0l122.1,65c5.6,3,10.2,10.7,10.2,17V225.65z"/>
	</g>
</g>
<g>
	<g>
		<defs>
			<path id="SVGID_1_" d="M285.1,225.65c0,6.4-4.6,14-10.2,17l-122.1,65c-5.6,3-14.8,3-20.5,0l-122.1-65c-5.6-3-10.2-10.7-10.2-17
				V84.25c0-6.4,4.6-14,10.2-17l122.1-65c5.6-3,14.8-3,20.5,0l122.1,65c5.6,3,10.2,10.7,10.2,17V225.65z"/>
		</defs>
		<clipPath id="SVGID_2_">
			<use xlink:href="#SVGID_1_"  style="overflow:visible;"/>
		</clipPath>
		<g class="st1">
			<polygon class="st2" points="19.76,409.36 17.43,286 8.06,266.95 34.9,240.26 52.69,227.92 44.53,184.01 50.04,144.82 
				69.31,67.97 105.1,33.8 160.9,30.36 211.78,56.93 233.44,136.98 241.37,236.49 273.03,266.95 258.58,278.63 258.58,412.87 			"/>
			<path class="st3" d="M28.51,266.47c0,0-3.33,104.07,0,134.99H252.3c0,0,2.22-85.19-1.85-130.18S28.51,266.47,28.51,266.47z"/>
			<path class="st4" d="M222.34,401.46c5.41-31.69-2.03-69.01-2.03-69.01c15.56-7.75,5.41-46.05,5.41-46.05
				c16.24-3.8,37.22-20.84,37.22-20.84s-9.47-13.38-23.45-20.31c-9.49-5.24-20.13-7.41-30.76-9.19l5.05,0.69
				c-13.96-2.67-17.75-5.73-27.63-9.98l-84.03,1.28c-9.87,4.15-19.84,6.23-30.48,8c-10.63,1.78-21.27,3.95-30.76,9.19
				c-13.98,6.93-23.45,20.31-23.45,20.31s20.98,17.04,37.22,20.84c0,0-11.33,33.73,5.41,46.05c0,0-7.44,37.32-2.03,69.01h164.31
				V401.46z"/>
			<g>
				<path class="st5" d="M109.87,198.67c0,10.63-0.55,29.24-7.98,30.68c23.59,23.26,75.32,19.27,89.06-1.33
					c-6.87-0.66-9.19-8.86-10.19-15.62c-0.89-6.76,0.55-13.62,0.33-20.6"/>
			</g>
			<path class="st6" d="M55.36,203.39c0,0-8.53-24.53,4.92-52.13s7.18-45.69,18.02-71.44s37.41-39.55,58.4-40.78
				s58.05,2.76,73.14,40.47s15.09,59.37,17.71,95.55s10.82,36.91,1.64,64.2s-20.34,37.1-13.12,75.43
				c7.22,38.33-3.26,63.47-3.26,63.47s0.64-30.05-10.84-39.55c0,0,10.17,32.5,0.98,53.35c0,0-1.97-30.05-11.48-42.62
				c0,0,3.94,15.02,0.98,30.05c0,0-6.45-26.37-17.65-41.7c-11.21-15.33-18.42-29.44-9.24-54.58s11.41-66.35,1.9-84.75
				c-9.51-18.4-47.49,16.8-47.49,16.8l-9.44-5.88c0,0,20.83,32.74,2.11,63.4s-3.83,42.93,6.34,67.15
				c10.17,24.22-5.9,49.67-5.9,49.67L55.36,203.39z"/>
			<g>
				<path class="st3" d="M89.67,126.98c0.59,14.34,0.85,28.27,2.71,41.07c1.88,12.92,2.69,24.66,9.79,34.36
					c4.62,6.31,11.66,12.67,19.86,17.03c5.99,3.18,9.47,6.1,17.86,7.98c8.01,1.59,17.65-0.61,23.76-5.8
					c10.9-9.24,23.41-17.6,28.8-29.61c3.94-11.45,5.18-24.24,7.66-36.04c5.29-22.43,1.23-45.28-8.58-66.38
					c-2.19-6.38-5.79-12.26-11.58-16.19c-38.39-27.53-96.32-4.6-91.53,44.64"/>
			</g>
			<path class="st7" d="M137.83,125.33c0,0,2.12,26.14-2.36,34.15s-9.12,17.67,2.86,17.9c0,0,0.6-2.04,1.96-1.1
				c1.36,0.94,3.25,3.04,6.18,3.04s5.13-0.94,6.8-2.2s2.83-1.47,3.04,0.31c0,0,4.5-1.05,4.61-5.34c0.1-4.29-8.04-13.26-7.93-25.61
				c0.1-12.35,0.21-21-0.23-24.43C152.01,116.3,137.35,115.06,137.83,125.33z"/>
			<path class="st8" d="M168.54,190.68c0,0-2.87,3.77-4.43,7.54c-1.56,3.77-9.38,10.95-14.77,10.95s-9.65,0.09-14.16-2.87
				s-4.69-4.49-5.65-6.29c-0.96-1.8-2.35-6.29-5.39-7.09c0,0,3.05,2.07,6.56,0.67c2.98-1.19,6.29-3.19,8.33-3.19
				c2.02,0,4.65,1.25,7.32,1.36c1.8,0.08,3.63-0.86,5.31-1.18c2.56-0.45,6.39,1.15,9.75,2.05
				C165.45,193.73,168.83,190.63,168.54,190.68z"/>
			<g>
				<path class="st4" d="M117.77,137.47c-4.21,0-3.68,7.35,0.21,7.35C121.66,144.63,121.98,137.47,117.77,137.47z"/>
			</g>
			<g>
				<path class="st4" d="M173.2,144.82c3.79,0,4.29-7.35,0.2-7.35C169.31,137.56,169.51,144.72,173.2,144.82z"/>
			</g>
			<path class="st9" d="M159,127.9c0,0,4.57-6.44,9.69-8.04c5.12-1.61,23.22-1.91,24.83,8.04c0,0-3.8-7.61-13.75-4.24
				C169.82,127.02,166.17,128.12,159,127.9z"/>
			<path class="st9" d="M130.33,127.93c0,0-8.34,0.12-13.75-1.34s-13.46-2.57-18.14,1.35c0,0,3.66-6.76,11.56-7.34
				C117.9,120,129.6,122.05,130.33,127.93z"/>
			<path class="st6" d="M175.93,70.73c0,0-17.96,36.34-42.82,50.83c0,0,12.29-16.12,16.38-28.47c0,0-9.95,19.1-26.04,33.98
				c0,0,6.44-16.75,6.15-28.17c0,0-3.42,15.81-14.14,28.17c0,0,5.57-14.6,2.69-21.06c0,0-10.49,15.44-19.7,22.75
				c0,0,3.95-4.16,6.58-12.19c0,0-10.24,9.64-6.58,28.19c0,0-4.53-7.9-3.66-18.55c0,0-1.17,18.56-11.41,37.93
				c0,0-4.1-39.6,5.27-66.55c9.36-26.96,32.19-37.63,32.19-37.63l43.87-1.68L175.93,70.73z"/>
			<path class="st6" d="M175.93,70.73c0,0,10.81,25.26,14.51,44.82c0,0-0.2-14.5-8.78-36.6c0,0,10.53,12.56,11.12,56.27
				c0,0,1.46-4.22,0.73-15.08c0,0,2.61,19.88,8.64,22.86s4.28-32.78,4.28-32.78l-15.13-32.2l-12.56-10.86L175.93,70.73"/>
			<g>
				<g>
					<path class="st9" d="M160.9,189.89c0.97,0,0.97-1.5,0-1.5C159.94,188.39,159.94,189.89,160.9,189.89L160.9,189.89z"/>
				</g>
			</g>
			<g>
				<g>
					<path class="st9" d="M122.82,184.98c0.97,0,0.97-1.5,0-1.5C121.85,183.48,121.85,184.98,122.82,184.98L122.82,184.98z"/>
				</g>
			</g>
			<path class="st6" d="M90.34,192.91c0,0-25.75,9.19-18.73,46.25s-21.11,48.06-14.48,69.9s24.22,36.59,15.25,56.09
				c0,0,11.7-10.14,5.85-29.25c-5.85-19.11-16.38-26.13-5.07-44.86c11.31-18.72,35.56-56.57,22.66-85.82S90.34,192.91,90.34,192.91z
				"/>
			<path class="st6" d="M66.18,307.92c0,0-6.52,10.43,4.89,20.21s17.42,18.91,16.21,32.93c0,0,9.22-13.69,4.33-26.57
				c0,0,10.13,14.51,5.39,37c0,0,10.91-11.08,11.89-33.91c0.49-11.41-10.19-65.74-20.99-70.31S66.18,307.92,66.18,307.92z"/>
			<path class="st6" d="M211.54,293.9c0,0,10.49,35.7,25.56,42.04c0,0-17.76-27.06-17.18-49.52s-3.46-42.66-19-65.1"/>
			<path class="st9" d="M161.56,142.67c0,0,5.73-7.3,13.53-6.31c5.19,0.66,8.19,4.17,10.31,5.41s2.63,2.58,4.83,1.41
				c0,0-1.32,2.05-3.95,1.3c-1.76-0.5-5.05-3.34-7.61-4.51C176.11,138.8,169.62,136.46,161.56,142.67z"/>
			<path class="st9" d="M129.17,142.67c0,0-5.73-7.3-13.53-6.31c-5.19,0.66-8.19,4.17-10.31,5.41s-2.63,2.58-4.83,1.41
				c0,0,1.32,2.05,3.95,1.3c1.76-0.5,5.05-3.34,7.61-4.51C114.62,138.8,121.11,136.46,129.17,142.67z"/>
			<path class="st10" d="M135.96,171.34c0,0-3.89,1.15-3.83,3.91c0.08,4.02,5.44,4.08,7.16,1.71"/>
		</g>
	</g>
</g>
</svg>
