<?xml version="1.0" encoding="utf-8"?>
<!-- Generator: Adobe Illustrator 24.1.3, SVG Export Plug-In . SVG Version: 6.00 Build 0)  -->
<svg version="1.1" id="Capa_1" xmlns="http://www.w3.org/2000/svg" xmlns:xlink="http://www.w3.org/1999/xlink" x="0px" y="0px"
	 viewBox="0 0 285.1 309.9" style="enable-background:new 0 0 285.1 309.9;" xml:space="preserve">
<style type="text/css">
	.st0{fill:#60C4B7;}
	.st1{clip-path:url(#SVGID_2_);}
	.st2{fill:#FFFFFF;}
	.st3{fill:#FADBC3;}
	.st4{fill:#514439;}
	.st5{fill:#7D6138;}
	.st6{fill:#010101;}
	.st7{fill:#F9C9A8;}
	.st8{fill:#F9BD94;}
	.st9{fill:#9C5C49;}
	.st10{fill:#F6988A;}
	.st11{fill:#F59E82;}
	.st12{fill:none;stroke:#D3C8C0;stroke-linecap:round;stroke-miterlimit:10;}
	.st13{fill:none;stroke:#010101;stroke-width:2.5;stroke-miterlimit:10;}
	.st14{fill:#D3C8C0;}
</style>
<g>
	<g id="Capa_4_2_">
		<g>
			<path class="st0" d="M285.1,225.65c0,6.4-4.6,14-10.2,17l-122.1,65c-5.6,3-14.8,3-20.5,0l-122.1-65c-5.6-3-10.2-10.7-10.2-17
				V84.25c0-6.4,4.6-14,10.2-17l122.1-65c5.6-3,14.8-3,20.5,0l122.1,65c5.6,3,10.2,10.7,10.2,17V225.65L285.1,225.65z"/>
		</g>
	</g>
</g>
<g>
	<g>
		<defs>
			<path id="SVGID_1_" d="M285.1,225.65c0,6.4-4.6,14-10.2,17l-122.1,65c-5.6,3-14.8,3-20.5,0l-122.1-65c-5.6-3-10.2-10.7-10.2-17
				V84.25c0-6.4,4.6-14,10.2-17l122.1-65c5.6-3,14.8-3,20.5,0l122.1,65c5.6,3,10.2,10.7,10.2,17V225.65L285.1,225.65z"/>
		</defs>
		<clipPath id="SVGID_2_">
			<use xlink:href="#SVGID_1_"  style="overflow:visible;"/>
		</clipPath>
		<g class="st1">
			<polygon class="st2" points="25.33,375.12 25.33,286.22 11.09,286.22 7.02,252.21 25.33,221.82 37.36,173.56 50.41,120.54 
				80.24,63.19 100.62,41.46 151.42,30.65 197.03,56.41 222.22,105.65 247.1,197.52 251.75,245.16 251.75,265.2 256.49,380.45 			
				"/>
			<path class="st3" d="M45.63,248.09c-12.71,25.9-16.19,97.95-13,127.04h214.23c0,0,2.62-67.63-9.36-123.6
				C228.6,209.95,58.34,222.18,45.63,248.09z"/>
			<g>
				<path class="st4" d="M201.52,244.07c-8.05-0.31-16.12-0.61-24.16-0.13c-10.51,0.64-20.89,2.62-31.35,3.87
					c-23.73,2.83-47.91,1.82-71.33-2.97c-3.68-0.75-7.55-1.71-10.17-4.39c-3.64-3.71-3.79-9.51-3.71-14.71
					c0.08-4.81,0.17-9.65,1.19-14.35c0.82-3.79,2.23-7.43,3.24-11.18c2.34-8.69,2.48-17.8,3.5-26.74s3.08-18.12,8.58-25.24
					c4.18-5.41,10.06-9.24,16.04-12.56c5.72-3.18,11.67-6.01,17.97-7.77c11.72-3.27,24.11-2.72,36.26-2.14l62.41,19.86
					L201.52,244.07z"/>
			</g>
			<g>
				<path class="st5" d="M217.06,151.62c4.32,4.48,8.68,9.02,11.81,14.4c3.12,5.38,4.93,11.78,3.71,17.88
					c-0.82,4.11-2.96,8.43-1.24,12.26c1.7,3.78,6.75,5.72,7.3,9.83c0.66,4.97-5.9,9.02-4.66,13.88c0.72,2.82,3.72,4.29,5.77,6.35
					c2.79,2.81,3.89,7.18,2.76,10.97s-4.44,6.85-8.31,7.67c-1.79,0.38-3.63,0.31-5.46,0.24c-9.07-0.34-18.14-0.69-27.2-1.03
					l8.87-74.1L217.06,151.62z"/>
			</g>
			<path class="st6" d="M216.11,376.12c4.95-28.98-1.86-63.12-1.86-63.12c14.23-7.08,4.95-42.12,4.95-42.12
				c14.85-3.48,24.29-13.65,24.29-13.65s-7.36-30.03-38.75-37.82s-98.59-1.9-98.59-1.9c-9.03,3.8-18.42,4.53-27.88,7.32
				c-30.24,8.91-40.92,30.23-40.92,30.23s10.52,12.34,25.37,15.81c0,0-10.37,30.85,4.95,42.12c0,0-6.81,34.14-1.86,63.12h150.3
				V376.12z"/>
			<g>
				<path class="st7" d="M109.12,220.39c0,0-0.58-1.21-8.5,0.32c25.17,24.81,80.35,20.56,95-1.42c-7.33-0.71-11.72-3.8-11.72-3.8
					s1.44-27.4,1.2-34.84"/>
			</g>
			<path class="st8" d="M109.12,192c-3.24,11.82,0,28.39,0,28.39l36.37,15.66l38.41-20.56c0,0,2.53-22.76,2.27-38.42
				C185.91,161.4,112.36,180.17,109.12,192z"/>
			<g>
				<path class="st3" d="M123.98,53.4c-12.31,4.75-29.76,7.42-34.32,21.65c-3.34,9.47-3.4,19.73-3.42,29.78
					c0.53,19.72-1.28,39.68,0.73,59.29c5.82,14.7,14.47,30.7,24.68,38.84c10.21,8.14,23.6,15.51,39.8,12.85
					c16.2-2.66,51.1-25.76,44.83-71.54c-4.49-32.82-5.77-75.42-38.6-90.45c-8.29-4.77-17.79-3.67-25.99,0.77"/>
			</g>
			<g>
				<path class="st6" d="M109.09,123.88c-5.43,0.88-2.99,11.24,1.94,10.45C115.92,133.28,114.53,123.01,109.09,123.88z"/>
			</g>
			<g>
				<path class="st6" d="M163.92,126.65c5.18-0.83,4.12-11.42-1.44-10.53C157.18,116.98,159.08,127.17,163.92,126.65z"/>
			</g>
			<g>
				<g>
					<path class="st9" d="M100.18,134.38c4.86-3.63,12.57-0.86,13.8,5.17c0.12,0.76,1.26,0.58,1.14-0.18
						c-1.48-6.76-10.3-10.01-15.58-5.79C98.79,133.83,99.59,134.74,100.18,134.38L100.18,134.38z"/>
				</g>
			</g>
			<g>
				<g>
					<path class="st9" d="M164,131.3c-0.83-5.18,6.28-10.09,10.93-9.41c0.8,0.13,0.87-1.05,0.07-1.18
						c-5.28-0.58-13.2,4.98-12.12,10.9C162.86,132.26,164.12,132.06,164,131.3L164,131.3z"/>
				</g>
			</g>
			<path class="st10" d="M117.31,171.21c0,0,10.78,12.84,27.54,10.51c18.44-2.57,20.48-16.04,20.48-16.04l-18.82,7.41l-20.37,0.79
				L117.31,171.21"/>
			<g>
				<path class="st2" d="M165.33,165.67c-3.82,2.2-20.61,4.5-23.3,4.74c-7.83,0.95-21.53,1.79-24.71,0.8
					c3.38,1.69,6.97,3.18,10.64,4.47c3.2,1.08,6.49,2.05,10.05,2.35c5.72,0.4,11.44-1.11,16.62-3.39
					C160.77,172.06,165.33,165.67,165.33,165.67z"/>
			</g>
			<path class="st11" d="M135.79,122.41c0,0-6.33,3.52-5.52,19.67c0,0-10.38,3.67-6.71,11.38s10.46,0,10.46,0s6.42,7.89,13.03-0.55
				c0,0,7.34,3.67,10.1-2.39c2.75-6.06-2.75-11.35-8.26-9.53C148.9,140.99,144.72,121.82,135.79,122.41z"/>
			<g>
				<g>
					<path class="st3" d="M192.49,130.25c2.96-5.56,8.75-4.37,10.99,0.12c2.01,3.67,1.66,9.93,1.54,15.61
						c-0.24,7.92-0.47,27.19-9.69,25.66c-2.01-0.35-4.97-5.08-2.6-8.51"/>
				</g>
				<g>
					<g>
						<path class="st9" d="M193.08,163.12c1.42-1.66,4.49,3.67,6.98,1.66c2.36-1.89,2.72-6.5,3.19-9.69
							c0.71-6.74,0.71-19.63-5.79-23.17c-0.47-0.24-0.71,0.59-0.35,0.83c6.27,3.31,6.03,17.02,5.08,23.53
							c-0.71,4.85-2.01,8.87-6.5,6.27c-1.18-0.83-1.89-1.77-3.07-0.35C192.13,162.88,192.6,163.59,193.08,163.12L193.08,163.12z"/>
					</g>
				</g>
				<g>
					<g>
						<path class="st9" d="M192.01,154.85c0.12-1.77,0.71-6.86,2.25-7.68c0.83-0.47,2.72-0.12,3.07,1.06c0.12,0.35,0,1.66-0.24,1.77
							c-0.83,0.83-2.13-1.66-2.25-2.48c-0.24-0.83-0.12-2.13-0.12-2.84c0.12-3.19,0.59-7.21,1.66-10.05
							c0.95-2.72,4.73-5.79,6.15-1.06c0.24,0.71,0.83,0.35,0.71-0.24c-1.42-5.08-5.67-3.43-7.33,0.24
							c-1.42,2.96-4.14,15.13-0.35,17.85c2.48,1.66,3.07-3.78,1.54-5.32c-3.67-4.26-5.91,6.15-6.03,8.63
							C191.3,155.32,192.13,155.44,192.01,154.85L192.01,154.85z"/>
					</g>
				</g>
			</g>
			<g>
				<path class="st5" d="M146.86,54.86c3.42,5.14,9.54,7.95,15.65,8.91c1.09,0.17,2.26,0.32,3.11,1.03c1.52,1.26,1.34,3.6,2.04,5.45
					c1.21,3.23,4.95,4.66,7.24,7.25c3.7,4.19,3.31,11.03,7.37,14.88c1.38,1.3,3.21,2.19,4.14,3.85c0.53,0.95,0.71,2.05,0.85,3.13
					c0.49,3.76,0.85,7.92,3.57,10.57c0.89,0.87,2.01,1.55,2.62,2.64c2.18,3.93-3.9,9.06-1.46,12.82c1.28,1.97,4.4,2.4,5.14,4.62
					c0.37,1.1,0.01,2.31,0.09,3.47c0.34,4.75,7.24,6.16,9.05,10.57c1.33,3.25-0.53,7.12,0.68,10.41c0.93,2.52,3.45,4.13,4.59,6.56
					c0.57,1.21,0.76,2.57,1.33,3.78s1.71,2.32,3.05,2.22c1.74-0.13,2.64-2.09,3.14-3.76c3.13-10.25,4.94-21.56,0.97-31.51
					c-1.63-4.09-4.23-7.93-4.62-12.31c-0.3-3.34,0.71-6.74,0.02-10.02c-1.33-6.23-8.26-9.87-10.18-15.94
					c-0.75-2.37-0.7-5.03-2.07-7.1c-1.31-1.99-3.65-3.01-5.39-4.63c-5.09-4.74-4.21-13.53-9.03-18.54c-2.24-2.33-5.4-3.49-8.15-5.2
					c-5.11-3.19-8.93-8.4-14.52-10.65c-4.4-1.77-9.32-1.46-14.05-1.13c-1.53,0.11-3.13,0.23-4.47,0.98s-2.38,2.29-2.02,3.79"/>
			</g>
			<line class="st12" x1="197.1" y1="167.97" x2="197.1" y2="197.52"/>
			<polyline class="st6" points="183.93,110.22 199.61,126.9 199.11,130.85 186.17,117.72 184.68,114.02 182.8,110.22 			"/>
			<g>
				<path class="st5" d="M208.16,205.72c1.18-5.38,5.07-10.08,10.13-12.26c2.57-1.11,5.5-1.65,7.53-3.57
					c2.19-2.07,2.86-5.38,2.37-8.35s-1.97-5.69-3.55-8.25c-0.63-1.02-1.29-2.05-1.6-3.21c-1.02-3.83,1.97-7.42,3.42-11.11
					c1.24-3.15,1.36-6.8,0-9.91c-1.35-3.11-4.24-5.58-7.59-6.12c-1.64-0.27-3.39-0.1-4.92-0.75c-3.05-1.3-3.93-5.12-4.41-8.4
					c-0.8-5.43-1.6-10.87-2.39-16.3c-0.21-1.43-0.42-2.86-0.81-4.25c-0.59-2.11-1.59-4.07-2.59-6.02c-1.63-3.2-3.26-6.39-4.89-9.59
					c-1.07-2.1-2.19-4.26-3.99-5.78s-4.49-2.25-6.57-1.12c-2.28,1.24-3.01,4.12-3.5,6.68c-0.32,1.64-0.64,3.28-0.95,4.92
					c-0.14,0.7-0.27,1.42-0.16,2.12c0.17,1.04,0.86,1.9,1.52,2.72c1.44,1.77,2.89,3.53,4.33,5.3c0.44,0.53,0.88,1.09,1.08,1.75
					c0.56,1.91-1.12,3.73-1.38,5.7c-0.33,2.53,1.72,4.72,3.8,6.2c2.08,1.48,4.49,2.81,5.52,5.14c1.8,4.04-1.42,8.91,0.07,13.07
					c1.21,3.38,5.23,5.35,5.85,8.88c0.67,3.83-3.03,7.53-2.04,11.29c0.27,1.03,0.88,1.94,1.37,2.89c1.15,2.24,1.63,4.81,1.38,7.31
					c-0.38,3.74-2.32,7.1-3.65,10.61c-2.58,6.81-2.88,14.71-4.34,21.86c-0.87,4.3-1.74,8.66-1.45,13.03
					c0.26,3.92,1.47,7.77,3.5,11.13c1.44,2.39,3.32,4.61,3.94,7.33c0.79,3.45-0.6,7-0.69,10.54c-0.1,4.16,1.78,8.41,5.18,10.82
					c3.4,2.4,8.27,2.71,11.75,0.43s5.13-7.15,3.43-10.95c-1.06,2.07-3.05,3.65-5.31,4.21c-0.96,0.24-2.02,0.29-2.91-0.14
					c-1.7-0.82-2.18-3.12-1.63-4.92s1.85-3.26,2.97-4.77c4.21-5.67,6.25-13.35,3.78-19.97c-0.99-2.64-2.62-4.99-3.99-7.45
					c-1.99-3.57-3.46-7.52-3.57-11.6c-0.11-4.08,1.29-8.32,4.3-11.07c0.6-0.55,1.28-1.06,1.67-1.78c1.16-2.14-0.75-4.61-2.52-6.29"
					/>
			</g>
			<g>
				<path class="st5" d="M158.08,46.23c-3.45-4.31-9.69-5.36-15.15-4.49s-25.23,5.55-30.31,7.17c-9.47,3.02-18.54,10.94-24.38,18.98
					S75.12,84.08,71.81,93.45c-1.7,4.8,0.03,10.96-3.51,14.63c-1.89,1.95-4.24,3.44-6.01,5.5c-2.52,2.95-3.65,7.04-3.01,10.86
					c0.62,3.71,2.8,7.07,3.03,10.82c0.34,5.34-3.35,10.16-7.61,13.41c-1.54,1.17-3.24,2.29-4.14,4c-0.65,1.25-0.81,2.69-0.91,4.1
					c-0.02,0.23-0.02,0.46-0.03,0.7c-0.06,0.6-0.09,1.2-0.09,1.81c-0.11,3.35,0.03,6.71,0.44,10.04c0.28,2.32,0.86,4.82,1.96,6.87
					c-0.56,4.25-2.58,8.33-5.94,11.19c-2.58,2.2-6.13,3.81-7.03,7.08c-1.21,4.41,3.28,8.67,2.74,13.21
					c-0.39,3.26-3.2,5.59-5.64,7.78s-4.88,5.17-4.21,8.38c0.36,1.72,1.58,3.15,2.11,4.83c0.94,2.99-0.51,6.28-2.68,8.52
					c-2.18,2.25-5.01,3.72-7.63,5.42c-3.17,2.05-6.17,4.58-7.87,7.94c-1.7,3.37-1.86,7.71,0.4,10.73c1.75,2.34,4.78,3.78,5.67,6.57
					c1.13,3.52-2.91,7.47-6.4,6.28c2.29,1.98,6.19,1.34,8.06-1.04s1.75-5.98,0.09-8.51c-0.89-1.36-2.16-2.45-3-3.84
					c-1.79-2.96-1.2-7.13,1.33-9.48c2.18-2.02,5.29-2.57,8.1-3.52c2.82-0.95,5.79-2.77,6.27-5.7c-0.49,2.15-0.05,4.5,1.19,6.33
					c1.08,1.58,2.79,2.96,2.83,4.87c0.03,1.25-0.69,2.39-1.39,3.42c-3.8,5.61-8.21,12.03-6.48,18.58c1.18,4.45,5.13,8.43,4.15,12.93
					c-0.36,1.67-1.39,3.12-2.01,4.71c-1.4,3.6-0.6,7.82,1.55,11.03s5.49,5.47,9.08,6.89c-1.69-2.07-3.41-4.2-4.35-6.7
					s-0.98-5.51,0.56-7.69c1.2-1.7,3.16-2.67,4.64-4.13c4.64-4.54,3.51-12.45,0.21-18.04c-1.22-2.08-2.74-4.54-1.68-6.7
					c0.46-0.95,1.35-1.62,2.24-2.2c6.12-4.03,13.88-6.13,18.12-12.11c3.09-4.36,3.66-9.95,4.14-15.27
					c-1.25-5.01,1.38-10.11,4.13-14.49c5.28-8.4,11.35-16.29,18.11-23.55c-2.31-6.2-2.28-12.99-3.31-19.52
					c-0.21-1.3-0.48-2.62-0.81-3.92c0.88-1.64,1.61-3.37,2.34-5.09c0.9-2.13,1.82-4.39,1.53-6.69c-0.65-5.24-7.3-9.25-5.7-14.29
					c0.79-2.49,3.44-4.01,4.32-6.47c1.21-3.36-1.23-6.8-2.75-10.04c-0.29-0.63-0.56-1.29-0.53-1.98c0.07-1.83,2.03-2.9,3.24-4.28
					c3.72-4.24,0.12-11.03,1.74-16.43c1.23-4.11,5.32-6.86,6.58-10.96c1.37-4.46-0.75-10.06,2.38-13.53
					c0.98-1.08,2.32-1.74,3.52-2.55c2.36-1.6,4.24-3.9,5.33-6.53c0.52-1.24,0.92-2.62,1.99-3.43c0.72-0.55,1.65-0.74,2.52-0.97
					c4.31-1.14,8.25-3.6,11.16-6.97c0.96-1.11,1.87-2.36,3.22-2.92c1.2-0.5,2.56-0.36,3.86-0.34c5.54,0.1,11.05-2.11,15.1-5.88
					c3.88,0.3,7.9-0.97,10.69-3.69c0.74-0.72,1.42-1.57,1.68-2.57C159.88,49.27,159.13,47.55,158.08,46.23z"/>
			</g>
			<path class="st13" d="M129.57,119.31c0,0-8.5-5.38-25.89-2.2c-17.39,3.17-17.13,8.63-15.17,16.43s5.37,14.65,11.98,14.65
				s25.7-2.45,27.9-8.08S131.52,122.73,129.57,119.31z"/>
			<path class="st13" d="M142.74,118.68c0,0,6.69-7.51,24.28-9.25s18.85,3.57,19.11,11.61s-1.14,15.57-7.49,17.39
				s-25.38,4.73-29.05-0.07S141.81,122.51,142.74,118.68z"/>
			<path class="st6" d="M130.64,128.36c0,0,5-6.37,13.19-2.08l0.05-9.85c0,0-9.4,2.83-15.43,0.63L130.64,128.36z"/>
			<g>
				<g>
					<path class="st14" d="M192.39,190.86c3.43,0,6.85,0,10.28,0c1.61,0,1.61-2.5,0-2.5c-3.43,0-6.85,0-10.28,0
						C190.78,188.36,190.78,190.86,192.39,190.86L192.39,190.86z"/>
				</g>
			</g>
			<g>
				<g>
					<path class="st14" d="M192.58,182.45c3.55,0.02,7.11,0.2,10.65,0.51c0.67,0.06,1.25-0.62,1.25-1.25c0-0.73-0.57-1.19-1.25-1.25
						c-3.54-0.31-7.09-0.48-10.65-0.51C190.97,179.94,190.97,182.44,192.58,182.45L192.58,182.45z"/>
				</g>
			</g>
			<g>
				<path class="st5" d="M148.04,107.56c1.94-1.36,4.09-2.38,6.3-3.22c2.21-0.84,4.52-1.44,6.89-1.81c2.37-0.31,4.78-0.46,7.2-0.04
					c2.38,0.42,4.71,1.33,6.53,2.86c-2.22-0.79-4.47-1.18-6.71-1.3c-1.12-0.04-2.23-0.02-3.36,0.08c-1.13,0.08-2.25,0.2-3.37,0.37
					c-2.25,0.31-4.48,0.79-6.72,1.31C152.56,106.36,150.32,106.95,148.04,107.56z"/>
			</g>
			<g>
				<path class="st5" d="M116.88,111.23c-3.41,0.06-6.68-0.2-9.85,0.01c-0.78,0.06-1.56,0.15-2.29,0.31
					c-0.76,0.13-1.35,0.41-2.13,0.75c-0.72,0.35-1.44,0.71-2.1,1.15c-0.34,0.21-0.66,0.45-0.95,0.71c-0.28,0.27-0.58,0.57-0.68,0.98
					c-0.11-0.43,0.04-0.9,0.23-1.3c0.19-0.41,0.46-0.77,0.74-1.12c0.58-0.67,1.25-1.25,1.96-1.76c0.66-0.5,1.57-0.98,2.43-1.24
					c0.44-0.16,0.88-0.21,1.32-0.32c0.44-0.07,0.88-0.11,1.32-0.16c1.75-0.12,3.47,0.06,5.14,0.39
					C113.71,109.97,115.35,110.46,116.88,111.23z"/>
			</g>
			<g>
				<path class="st5" d="M65.47,219.89c-0.61,8.45,4,19.48,11.69,23.02c4.69,2.16,12.68,0.31,17.13,2.94
					c3.61,2.14,5.8,6.47,5.39,10.65c-0.23,2.29-1.16,4.46-1.34,6.76c-0.31,4.02,1.98,8.12,5.57,9.96c3.27,1.68,7.4,1.61,10.2,4
					c3.24,2.76,3.38,7.86,1.79,11.81c-0.71,1.77-1.73,3.49-1.75,5.4c-0.04,3.23,2.79,5.79,5.71,7.18c4.41,2.09,9.66,2.52,14.21,0.78
					c4.55-1.75,8.26-5.77,9.23-10.55c-3.18,4.73-9.7,6.89-15.07,4.99c-1.02-0.36-2.03-0.88-2.66-1.77c-0.49-0.69-0.7-1.55-0.8-2.39
					c-0.85-6.66,3.72-13.61,1.27-19.87c-2.68-6.84-12.48-9.17-14.27-16.3c-1.11-4.41,1.38-8.94,1.28-13.49
					c-0.11-4.89-3.32-9.37-7.52-11.87c-2.99-1.79-6.71-2.95-8.33-6.03c-2.04-3.89,0.38-8.54,2.77-12.22s4.9-8.24,3.02-12.21
					c-1.39-2.94-4.86-4.56-6-7.6c-1.34-3.58,1.05-7.36,1.85-11.1c0.99-4.64-0.73-9.76-4.32-12.87c-1.3-1.13-2.82-2-4.11-3.14
					c-1.67-1.47-3.35-3.52-5.56-3.25c-2.11,0.26-3.3,2.53-3.87,4.57c-1.73,6.26-0.94,12.92-1.63,19.39
					c-0.68,6.46-3.49,13.47-9.51,15.92"/>
			</g>
		</g>
	</g>
</g>
</svg>
