<?xml version="1.0" encoding="utf-8"?>
<!-- Generator: Adobe Illustrator 24.1.3, SVG Export Plug-In . SVG Version: 6.00 Build 0)  -->
<svg version="1.1" id="Capa_1" xmlns="http://www.w3.org/2000/svg" xmlns:xlink="http://www.w3.org/1999/xlink" x="0px" y="0px"
	 viewBox="0 0 285.1 309.9" style="enable-background:new 0 0 285.1 309.9;" xml:space="preserve">
<style type="text/css">
	.st0{fill:#7A6A8A;}
	.st1{fill:#FFFFFF;}
	.st2{fill:#352E25;}
	.st3{fill:#12100B;}
	.st4{fill:#F4A27E;}
	.st5{fill:#6D533A;}
	.st6{fill:#F7BFA3;}
	.st7{fill:#322B26;}
	.st8{fill:#A25B44;}
	.st9{fill:#F2936B;}
	.st10{fill:none;stroke:#6D533A;stroke-linecap:round;stroke-miterlimit:10;}
	.st11{fill:#F19387;}
</style>
<g>
	<g id="Capa_4_10_">
		<g>
			<path class="st0" d="M285.1,225.65c0,6.4-4.6,14-10.2,17l-122.1,65c-5.6,3-14.8,3-20.5,0l-122.1-65c-5.6-3-10.2-10.7-10.2-17
				V84.25c0-6.4,4.6-14,10.2-17l122.1-65c5.6-3,14.8-3,20.5,0l122.1,65c5.6,3,10.2,10.7,10.2,17V225.65L285.1,225.65z"/>
		</g>
	</g>
	<g>
		<path class="st1" d="M248,145.31l-0.72-36.83l2.56-32.83l-23.39,7.8l-18.46-34.78l-56.42-26.06l-49.03,6.67l-33.75,47.5
			l-12.62,35.39l5.23,35.6l-2.87,31.6l6.05,22.47l21.75,28.52l-31.8,8.92l-32.2,9.93l100.21,53.36l12.52,6.26
			c5.74,1.74,13.13,1.33,17.95-1.23l112.94-60.11l-59.7-20.21l7.39-23.39l25.75-35.49L248,145.31z"/>
	</g>
	<g>
		<path class="st2" d="M107.63,224.44c-2.73-2.41-4.3-6.19-4.09-9.86c-2.62,4.51-6.5,8.18-11.12,10.6
			c3.25-5.35,4.09-12.28,2.2-18.26c-1.36,1.89-2.52,3.88-3.57,5.88c1.15-6.19,1.99-13.01-1.05-18.57
			c11.33,1.89,21.82,8.08,28.85,17.21L107.63,224.44z"/>
	</g>
	<g>
		<path class="st3" d="M185.69,232.1l-86.87,1.26c-10.18,4.09-20.56,6.19-31.48,7.97c-11.02,1.78-22.03,3.88-31.79,9.13
			c-0.94,0.52-3.15,1.78-5.25,3.04l101.35,53.93c5.98,3.15,15.63,3.15,21.51,0l99.99-53.19c-9.97-4.51-23.92-9.55-38.82-12.28
			C199.85,239.45,195.97,236.41,185.69,232.1z"/>
	</g>
	<g>
		<path class="st2" d="M72.06,138.2c-1.15-9.02-9.23-17.84-5.46-26.23c0.84-1.78,2.1-3.36,3.25-4.93
			c5.04-7.34,5.98-16.68,9.55-24.87c5.35-12.28,16.16-21.51,21.72-33.68c1.68-3.67,2.94-7.66,5.67-10.49
			c2.31-2.41,5.56-3.67,8.71-4.62c8.81-2.62,18.15-3.15,27.17-1.36c8.08,1.57,15.74,4.93,23.92,5.88c2.2,0.21,4.51,0.31,6.61,1.05
			c5.35,1.78,8.39,7.24,11.96,11.65c1.15,1.57,2.62,3.04,4.41,3.78c1.68,0.73,3.57,0.63,5.35,0.84c5.35,0.52,10.39,3.25,13.74,7.45
			c4.72,5.88,5.67,13.85,8.81,20.67c3.15,6.82,10.39,13.32,17.52,10.7c4.09-1.57,6.61-5.67,8.71-9.55
			c-1.15,9.02-6.4,17.52-14.06,22.56c6.92,3.99,8.92,14.37,4.09,20.67c-1.47,1.99-3.67,4.2-2.73,6.5c0.42,1.05,1.36,1.68,2.2,2.31
			c2.73,1.78,5.56,3.36,8.6,4.72c-5.25,0.73-10.7,0.1-15.63-1.68c0.42,6.71,6.09,12.7,12.8,13.53c-4.51,1.26-9.55,0.1-13.01-2.94
			c0.31,9.55-4.09,19.2-11.44,25.29c-4.2,3.46-9.34,5.88-13.11,9.86c-4.41,4.62-6.61,11.12-5.98,17.42
			c-0.31-2.31-0.63-4.62-1.05-6.92c-1.99,4.93-5.25,9.44-9.44,12.8c0.31-1.89,0.52-3.88,0.84-5.77c-4.62,3.57-7.13,9.65-6.19,15.42
			c-5.98-5.46-9.02-13.95-7.66-21.93"/>
	</g>
	<g>
		<path class="st4" d="M107.94,203.78c0,10.07-0.52,27.7-7.55,29.06c22.35,22.03,71.34,18.26,84.35-1.26
			c-6.5-0.63-8.71-8.39-9.65-14.79c-0.84-6.4,0.52-12.9,0.31-19.51"/>
	</g>
	<path class="st5" d="M64.93,181.43c1.36-5.56,22.66-4.93,24.03,0s-6.09,21.19-10.7,21.19S63.46,187.2,64.93,181.43z"/>
	<g>
		<path class="st6" d="M121.06,56.68C99.97,64.44,87.38,76.61,84.55,99.7c-1.15,9.76,0.73,19.72-0.63,29.27
			c-0.73,5.04-3.57,8.71-4.72,13.43c-1.36,5.46,0.1,11.86,0.63,17.31c0.94,9.97,0.63,15.11,3.04,24.87
			c2.31,9.44,9.76,18.15,17.52,22.45c7.55,4.2,9.23,8.08,17.1,11.44c11.12,4.72,25.6,0.52,34.62-5.35
			c14.27-9.34,33.89-7.97,38.09-22.56c2.31-7.97,2.52-19.51,2.83-31.48c0.31-9.86,1.05-10.6,0.21-19.1
			c-0.94-9.76-2.52-16.68-2.62-26.75c-0.1-9.23-0.21-29.38-4.62-37.67c-9.55-18.26-41.02-20.77-59.28-20.98"/>
	</g>
	<g>
		<path class="st3" d="M108.57,117.74c-4.2,0-3.67,8.18,0.21,8.18C112.46,125.72,112.77,117.74,108.57,117.74z"/>
	</g>
	<g>
		<path class="st3" d="M159.77,125.09c3.99,0,4.51-8.18,0.21-8.18C155.68,117.01,155.89,124.98,159.77,125.09z"/>
	</g>
	<g>
		<path class="st7" d="M182.33,113.86c-3.36-7.03-11.44-7.34-18.15-7.55c-2.41,0-6.82,0.94-8.81,0.1c-1.36-0.63-1.68-3.88-3.46-4.93
			C161.87,100.33,180.97,101.27,182.33,113.86z"/>
	</g>
	<g>
		<path class="st7" d="M86.86,114.91c3.36-7.03,11.44-7.34,18.15-7.55c2.41,0,6.82,0.94,8.81,0.1c1.36-0.63,1.68-3.88,3.46-4.93
			C107.31,101.38,88.11,102.32,86.86,114.91z"/>
	</g>
	<g>
		<path class="st6" d="M80.14,136.1c-1.36-3.67-5.46-5.04-7.76-3.25c-2.83,2.1-3.04,7.55-3.36,11.96c-0.42,8.6-0.31,29.8,8.18,26.65
			c0.94-0.42,3.99-2.83,4.72-4.83"/>
	</g>
	<g>
		<g>
			<path class="st8" d="M81.09,167.79c0.21-1.89-0.42-3.78-1.99-4.3c-2.41-0.73-3.15,3.99-5.77-0.73
				c-1.68-3.04-1.68-8.81-1.68-12.49c0-4.51,0.73-10.39,5.04-11.96c0.42-0.21,0.31-1.05-0.1-0.84c-5.88,2.1-5.88,11.65-5.35,17.63
				c0.21,3.04,0.52,7.66,2.52,9.86c0.63,0.63,1.05,1.05,1.89,1.05c0.42-0.1,0.52-0.52,0.94-0.52c0.21-0.1,0.31-0.31,0.42-0.42
				c1.36-1.68,2.41-0.73,3.25,2.52C80.25,168.31,80.98,168.42,81.09,167.79L81.09,167.79z"/>
		</g>
	</g>
	<g>
		<g>
			<path class="st8" d="M81.09,154.25c-0.31-3.15-4.2-5.67-5.88-2.2c-1.47,3.04,1.47,5.98,2.52,1.89c1.15-3.99,0.84-10.7-0.21-14.58
				c-0.84-3.67-4.2-5.98-5.67-1.36c-0.31,0.63,0.42,0.73,0.73,0.31c2.1-5.67,4.51,1.15,4.72,3.36c0.21,2.1,0.31,4.09,0.31,6.09
				c0,1.78,0,3.46-0.42,5.25c0,0.52-0.31,0.94-0.42,1.57c-0.94-2.31-0.63-3.36,0.84-3.15c1.47,0,2.41,1.36,2.62,3.15
				C80.35,155.09,81.19,154.88,81.09,154.25L81.09,154.25z"/>
		</g>
	</g>
	<g>
		<path class="st9" d="M132.08,111.76c-5.25,0-6.71,6.5-7.13,11.02c-0.52,5.67-0.63,12.49-3.46,17.52
			c-1.78,3.15-10.07,5.35-4.72,9.97c2.31,1.99,5.35,1.68,7.97,2.52c2.73,0.84,4.2,2.52,7.03,1.47c2.94-1.15,4.41-1.57,7.66-1.57
			c2.62,0,5.14-0.31,6.82-2.52c1.47-1.89,1.57-4.51,0.42-6.71c-1.36-2.52-4.09-2.73-5.67-4.83c-1.57-1.99-1.05-5.98-1.26-8.29
			c-0.31-2.94-0.63-5.88-1.05-8.81C138.48,119.63,137.32,111.76,132.08,111.76z"/>
	</g>
	<g>
		<path class="st2" d="M193.98,143.87c-0.1-3.57-1.47-7.03-3.78-9.76c-1.15-1.47-2.62-2.62-3.67-4.2c-2.1-3.46-1.47-7.97-1.36-12.07
			c0.31-12.17-5.14-24.45-14.37-32.31c2.1-0.63,4.3-0.52,6.3,0c-11.02-0.73-20.98-6.82-30.32-12.7
			c-5.56-3.57-11.33-7.13-15.53-12.17c-1.89-2.2-3.46-4.62-5.35-6.82c-3.25-3.99-7.34-7.24-11.96-9.55
			c8.29-1.68,16.89-2.41,25.29-2.31c5.56,0.1,11.23,0.63,16.58,2.2c7.13,2.1,13.53,5.98,19.72,10.07
			c4.93,3.25,9.86,6.71,14.16,10.81c5.25,5.04,9.55,11.02,12.59,17.63c7.34,15.63,7.55,33.68,6.71,50.89"/>
	</g>
	<g>
		<g>
			<path class="st6" d="M192.3,136.73c2.62-4.93,7.76-3.88,9.76,0.1c1.78,3.25,1.47,8.81,1.36,13.85
				c-0.21,7.03-0.42,24.13-8.6,22.77c-1.78-0.31-4.41-4.51-2.31-7.55"/>
		</g>
		<g>
			<g>
				<path class="st8" d="M192.82,165.9c1.26-1.47,3.99,3.25,6.19,1.47c2.1-1.68,2.41-5.77,2.83-8.6c0.63-5.98,0.63-17.42-5.14-20.56
					c-0.42-0.21-0.63,0.52-0.31,0.73c5.56,2.94,5.35,15.11,4.51,20.88c-0.63,4.3-1.78,7.87-5.77,5.56
					c-1.05-0.73-1.68-1.57-2.73-0.31C191.98,165.69,192.4,166.32,192.82,165.9L192.82,165.9z"/>
			</g>
		</g>
		<g>
			<g>
				<path class="st8" d="M191.88,158.56c0.1-1.57,0.63-6.09,1.99-6.82c0.73-0.42,2.41-0.1,2.73,0.94c0.1,0.31,0,1.47-0.21,1.57
					c-0.73,0.73-1.89-1.47-1.99-2.2c-0.21-0.73-0.1-1.89-0.1-2.52c0.1-2.83,0.52-6.4,1.47-8.92c0.84-2.41,4.2-5.14,5.46-0.94
					c0.21,0.63,0.73,0.31,0.63-0.21c-1.26-4.51-5.04-3.04-6.5,0.21c-1.26,2.62-3.67,13.43-0.31,15.84c2.2,1.47,2.73-3.36,1.36-4.72
					c-3.25-3.78-5.25,5.46-5.35,7.66C191.25,158.98,191.98,159.08,191.88,158.56L191.88,158.56z"/>
			</g>
		</g>
	</g>
	<path class="st5" d="M209.72,181.43c-1.36-5.56-22.66-4.93-24.03,0s6.09,21.19,10.7,21.19S211.18,187.2,209.72,181.43z"/>
	<line class="st10" x1="196.39" y1="170.2" x2="196.39" y2="181.43"/>
	<line class="st10" x1="75.73" y1="170.2" x2="75.73" y2="181.43"/>
	<path class="st11" d="M104.69,166.22c0,0,11.54-4.41,15.42-4.41c3.88,0,7.34,1.15,10.49,1.15s5.98-1.68,9.44-1.15
		c3.46,0.52,18.05,3.67,20.98,5.46c0,0-5.77,12.9-9.02,16.26c-3.36,3.36-7.55,5.04-12.8,5.04c-5.25,0-18.57,0.31-22.56-1.89
		c-3.99-2.31-8.29-8.6-9.86-12.8C105.01,169.68,104.69,166.22,104.69,166.22z"/>
	<path class="st1" d="M160.93,167.26c0,0-10.81,2.1-24.24,1.36c-13.43-0.73-24.03-0.73-32-2.41c0,0,5.88,15.42,14.16,16.47
		c7.87,0.94,24.66,1.36,28.96,0C152.12,181.43,154.74,176.18,160.93,167.26z"/>
</g>
</svg>
