<?xml version="1.0" encoding="utf-8"?>
<!-- Generator: Adobe Illustrator 24.1.3, SVG Export Plug-In . SVG Version: 6.00 Build 0)  -->
<svg version="1.1" id="Capa_1" xmlns="http://www.w3.org/2000/svg" xmlns:xlink="http://www.w3.org/1999/xlink" x="0px" y="0px"
	 viewBox="0 0 285.1 309.9" style="enable-background:new 0 0 285.1 309.9;" xml:space="preserve">
<style type="text/css">
	.st0{fill:#B2CD47;}
	.st1{clip-path:url(#SVGID_2_);}
	.st2{fill:#FFFFFF;}
	.st3{fill:#F4C7A7;}
	.st4{fill:#F6C7B6;}
	.st5{fill:#9C5C49;}
	.st6{fill:#010101;}
	.st7{fill:#F1B58C;}
	.st8{fill:none;stroke:#9C5C49;stroke-linecap:round;stroke-miterlimit:10;}
	.st9{fill:none;stroke:#010101;stroke-miterlimit:10;}
	.st10{fill:#F5916D;}
	.st11{fill:none;stroke:#614A44;stroke-width:0.5;stroke-linecap:round;stroke-miterlimit:10;}
</style>
<g>
	<g id="Capa_4_9_">
		<g>
			<path class="st0" d="M285.1,225.65c0,6.4-4.6,14-10.2,17l-122.1,65c-5.6,3-14.8,3-20.5,0l-122.1-65c-5.6-3-10.2-10.7-10.2-17
				V84.25c0-6.4,4.6-14,10.2-17l122.1-65c5.6-3,14.8-3,20.5,0l122.1,65c5.6,3,10.2,10.7,10.2,17V225.65z"/>
		</g>
	</g>
</g>
<g>
	<defs>
		<path id="SVGID_1_" d="M285.1,225.65c0,6.4-4.6,14-10.2,17l-122.1,65c-5.6,3-14.8,3-20.5,0l-122.1-65c-5.6-3-10.2-10.7-10.2-17
			V84.25c0-6.4,4.6-14,10.2-17l122.1-65c5.6-3,14.8-3,20.5,0l122.1,65c5.6,3,10.2,10.7,10.2,17V225.65z"/>
	</defs>
	<clipPath id="SVGID_2_">
		<use xlink:href="#SVGID_1_"  style="overflow:visible;"/>
	</clipPath>
	<g class="st1">
		<polygon class="st2" points="35.37,395.27 39.19,350 31.42,343.83 44.03,266.7 60.41,255.68 96.64,241.19 96.64,223.37 
			86.81,211.97 69.57,189.23 56.42,160.11 49.84,105.47 64.03,61.61 117.55,33.27 156.41,27.4 208.46,56.36 228.04,97.94 
			228.04,167.09 203.52,201.18 193.92,220.39 182.67,237.33 220.22,245.91 244.42,278.59 253.78,322.86 249.83,398.43 		"/>
		<polygon class="st3" points="49.17,332.25 44.03,406.18 70.37,406.18 76.8,321.37 		"/>
		<polygon class="st3" points="239.28,332.25 244.42,406.18 218.08,406.18 211.65,321.37 		"/>
		<g>
			<path class="st4" d="M86.16,157.02c-2.03-3.68-7.58-4.53-10.26-2.64c-3.33,2.45-3.05,7.83-2.77,12.46
				c0.46,8.78,2.96,30.01,13.31,26.14c1.48-0.57,3.97-2.64,4.07-4.81"/>
		</g>
		<g>
			<g>
				<path class="st5" d="M90.87,188.07c-0.28-1.7-1.66-3.59-3.6-3.49c-0.83,0-1.11,0.66-1.76,0.85c-2.5,0.75-4.71-0.19-5.91-2.64
					c-2.86-6.04-5.73-20.95,2.77-24.06c0.46-0.19,0.28-1.04-0.18-0.85c-7.02,2.55-6.56,11.89-5.45,17.93
					c0.65,3.49,1.57,8.4,4.53,10.66c0.74,0.57,1.48,1.04,2.5,0.94c0.46-0.09,0.74-0.47,1.11-0.57c1.48-0.38,3.88-5.95,5.08,1.42
					C90.23,188.82,90.97,188.63,90.87,188.07L90.87,188.07z"/>
			</g>
		</g>
		<g>
			<g>
				<path class="st5" d="M86.81,174.67c-0.28-3.49-4.62-5.28-7.02-2.45c-2.03,2.45,0.46,6.51,2.59,3.11
					c2.22-3.49,1.85-10.38,1.29-14.34c-0.55-3.96-4.53-8.3-7.21-3.4c-0.28,0.47,0.46,0.94,0.74,0.47c3.05-1.51,4.81-0.94,5.36,1.7
					c0.09,0.19,0.09,0.47,0.18,0.66c0.18,0.75,0.18,1.6,0.28,2.45c0.09,1.79,0.09,3.59-0.09,5.38c-0.09,1.79-0.28,3.59-0.74,5.28
					c-0.09,0.47-0.28,0.94-0.55,1.42c-0.37-0.75-0.74-1.6-1.02-2.36c0.92-0.75,1.94-1.04,3.14-0.75c1.39,0.28,2.13,1.23,2.31,2.83
					C86.07,175.14,86.9,175.14,86.81,174.67L86.81,174.67z"/>
			</g>
		</g>
		<g>
			<path class="st4" d="M196.42,153.72c4.25-5,11-3.59,13.12,0.75c1.85,3.68,0.83,9.44-0.09,14.91
				c-1.29,7.64-3.88,25.95-14.69,23.59c-2.31-0.47-5.36-5.1-2.13-8.21"/>
		</g>
		<g>
			<g>
				<path class="st5" d="M192.81,184.48c2.13-1.7,5.73,4.72,9.24,2.45c2.86-1.89,3.88-6.42,4.44-9.44c1.2-6.42,2.03-18.5-5.36-21.61
					c-0.46-0.19-0.74,0.57-0.18,0.85c7.58,3.21,5.91,17.55,3.97,23.87c-0.46,1.6-1.02,3.49-2.22,4.62c-3.23,3.4-4.53,0.66-6.84-0.94
					c-1.39-0.94-2.22-1.42-3.6-0.28C191.8,184.2,192.35,184.86,192.81,184.48L192.81,184.48z"/>
			</g>
		</g>
		<g>
			<g>
				<path class="st5" d="M194.85,176.08c0.18-1.79,1.02-3.49,1.94-5c0.83-1.23,4.81-4.91,5.82-1.13c0.28,2.08-0.65,2.55-2.77,1.23
					c-0.28-0.47-0.46-1.04-0.65-1.6c-0.37-1.32-0.37-2.64-0.37-4.06c0-2.55,0.37-5.47,1.29-7.83c1.02-2.45,5.64-7.08,7.49-1.89
					c0.18,0.47,1.02,0.28,0.83-0.19c-1.76-4.62-6.38-2.93-8.59,0.66c-1.94,3.3-3.7,13.68,0.18,16.42c2.77,1.89,4.62-2.26,2.68-4.34
					c-4.07-4.15-8.32,4.72-8.78,7.74C193.92,176.55,194.75,176.55,194.85,176.08L194.85,176.08z"/>
			</g>
		</g>
		<g>
			<path class="st6" d="M89.96,177.67c-4.07-2.17-8.19-4.37-11.48-7.54c-3.28-3.17-5.68-7.49-5.47-12.09
				c-1.27,5.47,0.05,11.37,3.52,15.68c-5.61-2.99-9.14-9.24-8.79-15.58c-1.57,1.73-3.14,3.47-4.71,5.2
				c-0.68-5.5,2.47-11.4,7.54-14.13c-3.22,0.16-6.44-0.87-8.87-2.83c2.28-0.05,4.55-0.09,6.83-0.14c-2.85-1.21-4.73-4.23-4.54-7.3
				c0.19-3.07,2.43-6,5.43-7.08c-3.78-1-7.25-2.99-9.95-5.72c2.05-0.03,4.09-0.07,6.14-0.1c-3.39-4.15-5.16-9.54-4.92-14.94
				c1.61,0,3.19,0.51,4.46,1.43c-3.3-4.12-4.65-9.69-3.63-14.96c1.13,0.6,2.26,1.2,3.38,1.8c-2.56-5.54-2.5-12.25,0.15-17.94
				c0.5,1.62,1.77,2.98,3.38,3.61c2.41-7.61,7.77-24.24,14.74-28.49c0.82,1.94,1.05,4.12,0.66,6.22
				c4.16-4.47,10.36-6.76,14.44-11.31c1.56-1.74,2.75,6.11,4.24,4.31c5.72-6.88,14.96-9.69,23.6-12.13
				c-1.72-0.81-3.31-1.89-4.68-3.18c3.85-0.5,7.8,0.03,11.31,1.51c0.94-1.85,3.02-3.12,5.11-3.13c0.45,1.65,0.9,3.31,1.36,4.96
				c3.6-4.43,8.24-8.06,13.44-10.51c-1.47,2.29-2.94,4.57-4.4,6.86c6.2-0.36,12.42,1.67,17.02,5.54c-2.91,0.43-5.88,0.39-8.74-0.12
				c6.33,0.52,12.42,2.91,17.26,6.78c0.18-1.59,0.37-3.17,0.55-4.76c1.72,1.6,3.14,3.52,4.14,5.63c1.78-1.01,7.62-3.63,9.64-3.87
				c-1.23,1.33-2.45,2.65-3.68,3.98c6.37,4.49,8.24,1.94,13.12,7.95c0.89-1.84,1.29-3.88,1.18-5.88c1.34,2.26,2.68,14.38,4.02,16.63
				c0.83-1.43,2.25-2.53,3.85-2.99c-1.43,3.99-0.63,8.6,2.06,11.76c0.53-1.18,1.59-2.13,2.84-2.56
				c10.35,11.56,12.7,29.45,5.74,43.78c1-1.56,2.38-2.89,4-3.85c-0.33,3.75-0.65,7.51-0.98,11.26c-0.08,0.97-0.18,1.97-0.69,2.82
				c-0.49,0.81-1.34,1.42-2.28,1.61c1.55,1.08,2.64,2.75,3.01,4.58c-1.09,0.31-2.11,0.9-2.91,1.7c1.96-0.75,3.91-1.51,5.87-2.26
				c0,0-2.11,5.38-8.14,8.36c2.28,0.05,4.55,0.09,6.83,0.14c-2.44,1.96-5.65,2.99-8.87,2.83c5.08,2.73,8.22,8.63,7.54,14.13
				c-1.57-1.73-3.14-3.47-4.71-5.2c0.34,6.33-3.18,12.58-8.79,15.58c3.47-4.3,4.79-10.2,3.52-15.68c0.21,4.59-2.18,8.91-5.47,12.09
				c-3.28,3.17-7.41,5.38-11.48,7.54"/>
		</g>
		<g>
			<g>
				<g>
					<g>
						<path class="st6" d="M246.09,331.7c0.19-8.08-1.58-33.22-3.73-40.82c-4.09-14.49-14.02-26.51-26.04-34.75
							c-10.98-7.44-41.24-13.08-41.24-13.08l-62.3,2.22c0,0-42.45,8.78-54.62,21.86c-12.17,13.07-13.75,33.97-15.64,46.88
							c-3.34,25.6-3.34,25.95-3.34,25.95s29.71,2.11,41.01,0.53c0,0-2.88,55.1-2.01,80.97H211.7c0,0-4.45-48.68-3.58-83.96
							C208.12,337.5,228.72,339.36,246.09,331.7z"/>
					</g>
				</g>
			</g>
		</g>
		<g>
			<path class="st7" d="M121.62,223.7c-0.26,4.24,1.21,12.82-0.95,16.71c-2.94,5.04-12.21,5.57-17.84,7.6
				c-0.61,11.4,21.31,29.24,44.5,27.32s35.58-22.72,34.89-29.79c-3.2-1.15-17.58-3.98-21.56-7.16c-0.5-5.48-1.99-29.53-1.99-29.53"
				/>
		</g>
		<g>
			<path class="st3" d="M86.34,136.22c1.1,26.48-1.45,46.36,6.63,71.39c10.09,14.09,33.17,30.54,50.85,29.97
				c17.07-4.89,43.75-16.83,48.95-34.77c3.14-10.85,3.27-26.7,4.34-50.89c1.45-32.75,1.35-74.77-27.61-74.28
				c-21.68,0.33-48.1-5.78-67.1,7.53c-6.34,5.45-13.8,9.91-19.49,15.99C79.95,112.04,83.57,125.54,86.34,136.22z"/>
		</g>
		<g>
			<path class="st6" d="M117.62,138.08c-4.57-0.02-4.3,8.76-0.15,8.78C121.62,146.67,122.19,138.1,117.62,138.08z"/>
		</g>
		<g>
			<path class="st6" d="M166.65,145.41c4.36,0.02,5.26-8.76,0.58-8.78C162.76,136.61,162.62,145.18,166.65,145.41z"/>
		</g>
		<g>
			<path class="st6" d="M83.09,160.11c5.05-5.91,6.65-13.88,7.45-21.48c0.34-3.24,1.18-7.27,4.35-8.18
				c-2.46-3.35-0.75-8.15,1.02-12.06c3.33-7.34,2.23-20.02,9-24.48c-1.05,2.25,18.65-9.48,28.56-10.6
				c-1.75,0.62,13.92-3.16,27.53-0.22c11.33,2.45,20.32,11.68,25.05,12.33c6.68,5.63,2.38,14.43,6.63,22.08
				c3.88,6.97,4.02,13.64,2.7,21.67c-0.17,1.04-0.43,2.11-0.13,3.1c0.25,0.82,0.84,1.46,1.42,2.08c2.55,2.72,5.09,5.45,7.64,8.17
				c2.01-17.93,4.01-36.13,1.13-53.76c-0.49-2.98-1.14-6-2.73-8.54c-1.44-2.31-3.58-4.08-5.7-5.78c-4.93-3.96-10.2-7.88-16.48-9.13
				c-2.64-0.53-5.36-0.56-8.07-0.6c-7.07-0.09-14.13-0.18-21.2-0.25c-24.04-0.25-48.71-0.25-71.55,8.13
				c-0.4,0.15-0.83,0.32-1.09,0.67c-0.28,0.39-0.28,0.89-0.28,1.36c-0.01,3.5-0.79,7.02-2.27,10.25c-0.89,1.94-2.04,3.79-2.52,5.85
				c-0.42,1.82-0.3,3.69-0.17,5.54c1.02,14.17,2.47,28.28,4.34,42.33"/>
		</g>
		<path class="st8" d="M181.47,193.98c0,0-2.24-12.11,2.89-18.16"/>
		<path class="st6" d="M97.42,140.01c0,0,0.28-5.82,4.93-7.34s25.37-2.13,27.18-5.15s-2.86-7.44-2.86-7.44s-6.21,3.5-10.21,2.98
			s-5.63-2.5-11.51,1.58C99.08,128.72,94.82,131.73,97.42,140.01z"/>
		<path class="st6" d="M152.02,128.32l0.28-3.36c0,0,1.36,4.35,4.4,4.06c3.04-0.28,7.83-0.88,13.76-1.26
			c5.92-0.38,13.47,0.41,17.22,5.45c0,0,2.62-3.87-4.32-8.49c-6.94-4.61-5.52-5.55-12.46-4.45c-6.94,1.1-7.81-2.31-11.35-1.15
			c-3.54,1.15-6.05,3.61-6.05,3.61l-0.77-2.89C152.72,119.84,149.77,123.17,152.02,128.32z"/>
		<path class="st9" d="M119.45,189.12c0,0,5.39,7.37,8,6.98s12.6,0.07,14.59-1.34c1.99-1.41,7.65,0.68,11.21,0.47
			c3.57-0.21,11.73-0.99,11.73-0.99"/>
		<path class="st8" d="M99.08,180.35c0,0,4.89,7.02,2.92,17.75"/>
		<path class="st9" d="M117.55,191.16c0,0,2.69-3.2,6.05-3.74"/>
		<g>
			<path class="st6" d="M102.76,217.56c0.01,2.88,0.04,5.84,1.18,8.48c1.14,2.64,2.7,1.94,5.57,1.81c0.49,1.33,0.02,2.9,0.61,4.19
				c0.69,1.49,2.89,2,4.17,0.96c-0.16,1.27,0.99,2.4,2.24,2.69s2.54-0.05,3.78-0.38c1.13,1.8,2.55,3.51,4.45,4.46
				c1.9,0.95,4.37,1,6.03-0.33c1.7,1.94,4.9,2.34,7.02,0.88c0.42-0.29,0.83-0.65,1.33-0.75c0.69-0.13,1.35,0.27,1.99,0.58
				c3.38,1.63,7.85,0.48,10.02-2.59c3.03,2.55,8.09,2.14,10.67-0.85c0.43-0.49,0.82-1.06,1.41-1.33c0.93-0.41,1.99,0.05,2.99,0.17
				c2.88,0.34,5.31-2.15,6.69-4.71c0.48-0.89,1.03-1.93,2.03-2.12c0.51-0.1,1.05,0.06,1.54-0.09c0.88-0.26,1.23-1.3,1.41-2.21
				c0.39-1.99,0.59-2.04,0.6-4.07c1.87,0.24,3.57-2,2.82-3.74c-4.98,3.88-11.09,7.84-17.09,9.82c-3.65,1.2-16.21,0.29-18.4-1.46
				c-2.04-1.62-2.8-4.47-4.88-6.04c-1.58,0.61-2.47,2.29-3.9,3.18c-9.43,5.85-14.69,7.35-23.73,2.21
				C104.25,221.19,102.76,217.56,102.76,217.56z"/>
		</g>
		<g>
			<path class="st10" d="M130.52,161.57c-1.68,0.59-3.25,1.77-4.04,3.35c-0.69,1.58-0.39,3.65,1.08,4.73
				c0.79,0.59,4.54,2.17,6.9,3.35c2.47,1.28,4.34,3.75,7.1,3.94c3.55,0.2,5.82-3.65,8.97-5.23c2.66-1.28,4.93-0.99,7.4-2.37
				c3.35-1.87,4.04-6.9,1.28-9.47s-8.09-1.97-10.06,1.18c0.1-9.86,0.49-30.17-4.83-38.65c-0.49-0.79-0.99-1.58-1.87-1.87
				c-1.38-0.59-2.96,0.1-3.85,1.18s-1.18,2.47-1.48,3.85c-1.77,9.27-2.17,28.59-1.28,37.96
				C135.85,163.55,134.17,160.29,130.52,161.57z"/>
		</g>
		<polyline class="st11" points="150.99,127.99 141.05,122.37 143.59,128.87 136.65,119.64 139.78,127.34 132.49,121.16 
			131.57,128.07 129.95,119.64 		"/>
		<g>
			<path class="st6" d="M89.99,118.32c4-3.9,7.3-8.53,9.67-13.6c1.66-3.54,3.14-7.59,6.58-9.43c-1.1,2.54,2.46,4.98,5.11,4.21
				c2.65-0.77,4.39-3.21,6.31-5.21c3.81-3.97,9.22-6.61,14.71-6.27c-4.62,1.7-7.15,7.61-5.19,12.12c2.25,5.18,8.93,7.12,14.46,5.95
				c-2.44-1.71-3.82-4.8-3.49-7.76c0.34-2.96,2.39-5.66,5.15-6.77c-0.91,3.37,0.47,7.24,3.32,9.27c2.05-6.72,7.48-12.32,14.14-14.57
				c-1.74,1.92-0.79,5.22,1.26,6.81c2.05,1.59,4.77,1.94,7.35,2.23c-3.2,0.75-4.55,5.15-2.84,7.95c1.72,2.8,5.54,3.8,8.7,2.92
				c3.16-0.88,5.71-3.28,7.58-5.97c0.16,5.06,4.9,8.97,9.82,10.16c3.16,0.76,6.89,0.53,9.09-1.86c1.99-2.16,2.14-5.5,1.32-8.32
				s-2.45-5.32-3.71-7.97c-1.03-2.15-1.84-4.44-3.27-6.34c-1.21-1.6-2.81-2.86-4.44-4.03c-17.73-12.74-40.49-16.97-62.28-15.65
				c-1.88,0.11-3.76,0.27-5.58,0.77c-2.57,0.71-4.89,2.1-7.15,3.52c-4.83,3.04-9.52,6.29-14.05,9.76
				c-4.13,3.16-8.16,6.51-11.42,10.57c-5.84,7.26-8.96,16.67-8.6,25.99"/>
		</g>
	</g>
</g>
</svg>
